<svg id="Layer_1" data-name="Layer 1" xmlns="http://www.w3.org/2000/svg" xmlns:xlink="http://www.w3.org/1999/xlink" viewBox="0 0 2214.89 1903.23"><defs><style>.cls-1,.cls-3{fill:none;}.cls-2{fill:url(#radial-gradient);}.cls-3{stroke:#005775;stroke-miterlimit:10;stroke-width:6px;}.cls-4{fill:#ff9b17;}.cls-5{fill:#d2eff9;}.cls-6{clip-path:url(#clip-path);}.cls-7{clip-path:url(#clip-path-2);}.cls-8{fill:#005775;}.cls-9{fill:#ffeecf;}</style><radialGradient id="radial-gradient" cx="1107.44" cy="951.62" r="1617.21" gradientUnits="userSpaceOnUse"><stop offset="0.49" stop-color="#d2eff9"/><stop offset="0.66" stop-color="#e3d0a6"/><stop offset="0.82" stop-color="#f2b45a"/><stop offset="0.94" stop-color="#fba229"/><stop offset="1" stop-color="#ff9b17"/></radialGradient><clipPath id="clip-path"><rect class="cls-1" x="830.22" y="900.2" width="78.43" height="166.93"/></clipPath><clipPath id="clip-path-2"><rect class="cls-1" x="965.83" y="899.53" width="78.43" height="166.93"/></clipPath></defs><rect class="cls-2" x="-627.19" y="-538.94" width="3469.28" height="2981.1"/><rect class="cls-3" x="-627.19" y="-538.94" width="3469.28" height="2981.1"/><rect class="cls-4" x="786.27" y="820.04" width="301.83" height="551.71"/><rect class="cls-5" x="814.56" y="837.19" width="109.65" height="292.25"/><g class="cls-6"><polygon points="840.19 925.61 830.73 914.78 840.19 903.95 849.65 914.78 840.19 925.61"/><polygon points="859.7 925.61 850.24 914.78 859.7 903.95 869.16 914.78 859.7 925.61"/><polygon points="879.12 925.61 869.66 914.78 879.12 903.95 888.58 914.78 879.12 925.61"/><polygon points="898.56 925.61 889.1 914.78 898.56 903.95 908.02 914.78 898.56 925.61"/><polygon points="830.42 939.36 820.96 928.52 830.42 917.69 839.88 928.52 830.42 939.36"/><polygon points="849.92 939.36 840.46 928.52 849.92 917.69 859.38 928.52 849.92 939.36"/><polygon points="869.34 939.36 859.88 928.52 869.34 917.69 878.8 928.52 869.34 939.36"/><polygon points="888.78 939.36 879.32 928.52 888.78 917.69 898.25 928.52 888.78 939.36"/><polygon points="908.46 939.36 899 928.52 908.46 917.69 917.92 928.52 908.46 939.36"/><polygon points="839.87 953.41 830.41 942.58 839.87 931.74 849.33 942.58 839.87 953.41"/><polygon points="859.38 953.41 849.92 942.58 859.38 931.74 868.84 942.58 859.38 953.41"/><polygon points="878.8 953.41 869.34 942.58 878.8 931.74 888.26 942.58 878.8 953.41"/><polygon points="898.24 953.41 888.78 942.58 898.24 931.74 907.7 942.58 898.24 953.41"/><polygon points="830.48 966.98 821.02 956.15 830.48 945.32 839.94 956.15 830.48 966.98"/><polygon points="849.99 966.98 840.52 956.15 849.99 945.32 859.45 956.15 849.99 966.98"/><polygon points="869.4 966.98 859.94 956.15 869.4 945.32 878.86 956.15 869.4 966.98"/><polygon points="888.85 966.98 879.39 956.15 888.85 945.32 898.31 956.15 888.85 966.98"/><polygon points="908.52 966.98 899.06 956.15 908.52 945.32 917.98 956.15 908.52 966.98"/><polygon points="840.33 981.2 830.87 970.37 840.33 959.54 849.79 970.37 840.33 981.2"/><polygon points="859.84 981.2 850.38 970.37 859.84 959.54 869.3 970.37 859.84 981.2"/><polygon points="879.25 981.2 869.79 970.37 879.25 959.54 888.71 970.37 879.25 981.2"/><polygon points="898.7 981.2 889.24 970.37 898.7 959.54 908.16 970.37 898.7 981.2"/><polygon points="830.6 995.45 821.14 984.62 830.6 973.79 840.06 984.62 830.6 995.45"/><polygon points="850.11 995.45 840.65 984.62 850.11 973.79 859.57 984.62 850.11 995.45"/><polygon points="869.53 995.45 860.07 984.62 869.53 973.79 878.99 984.62 869.53 995.45"/><polygon points="888.97 995.45 879.51 984.62 888.97 973.79 898.43 984.62 888.97 995.45"/><polygon points="908.65 995.45 899.19 984.62 908.65 973.79 918.11 984.62 908.65 995.45"/><polygon points="840.35 1009 830.89 998.17 840.35 987.34 849.82 998.17 840.35 1009"/><polygon points="859.86 1009 850.4 998.17 859.86 987.34 869.32 998.17 859.86 1009"/><polygon points="879.28 1009 869.82 998.17 879.28 987.34 888.74 998.17 879.28 1009"/><polygon points="898.72 1009 889.26 998.17 898.72 987.34 908.18 998.17 898.72 1009"/><polygon points="830.58 1022.96 821.12 1012.13 830.58 1001.29 840.04 1012.13 830.58 1022.96"/><polygon points="850.08 1022.96 840.62 1012.13 850.08 1001.29 859.54 1012.13 850.08 1022.96"/><polygon points="869.5 1022.96 860.04 1012.13 869.5 1001.29 878.96 1012.13 869.5 1022.96"/><polygon points="888.95 1022.96 879.49 1012.13 888.95 1001.29 898.41 1012.13 888.95 1022.96"/><polygon points="908.62 1022.96 899.16 1012.13 908.62 1001.29 918.08 1012.13 908.62 1022.96"/><polygon points="840.3 1036.8 830.84 1025.96 840.3 1015.13 849.77 1025.96 840.3 1036.8"/><polygon points="859.81 1036.8 850.35 1025.96 859.81 1015.13 869.27 1025.96 859.81 1036.8"/><polygon points="879.23 1036.8 869.77 1025.96 879.23 1015.13 888.69 1025.96 879.23 1036.8"/><polygon points="898.67 1036.8 889.21 1025.96 898.67 1015.13 908.13 1025.96 898.67 1036.8"/><polygon points="830.55 1050.46 821.09 1039.63 830.55 1028.8 840.01 1039.63 830.55 1050.46"/><polygon points="850.06 1050.46 840.6 1039.63 850.06 1028.8 859.52 1039.63 850.06 1050.46"/><polygon points="869.48 1050.46 860.02 1039.63 869.48 1028.8 878.94 1039.63 869.48 1050.46"/><polygon points="888.92 1050.46 879.46 1039.63 888.92 1028.8 898.38 1039.63 888.92 1050.46"/><polygon points="908.6 1050.46 899.14 1039.63 908.6 1028.8 918.06 1039.63 908.6 1050.46"/><polygon points="840.23 1064.59 830.77 1053.76 840.23 1042.93 849.69 1053.76 840.23 1064.59"/><polygon points="859.74 1064.59 850.28 1053.76 859.74 1042.93 869.2 1053.76 859.74 1064.59"/><polygon points="879.15 1064.59 869.7 1053.76 879.15 1042.93 888.62 1053.76 879.15 1064.59"/><polygon points="898.6 1064.59 889.14 1053.76 898.6 1042.93 908.06 1053.76 898.6 1064.59"/><polygon points="830.22 1077.96 820.76 1067.13 830.22 1056.3 839.68 1067.13 830.22 1077.96"/><polygon points="849.73 1077.96 840.26 1067.13 849.73 1056.3 859.18 1067.13 849.73 1077.96"/><polygon points="869.14 1077.96 859.68 1067.13 869.14 1056.3 878.6 1067.13 869.14 1077.96"/><polygon points="888.59 1077.96 879.13 1067.13 888.59 1056.3 898.05 1067.13 888.59 1077.96"/><polygon points="908.26 1077.96 898.8 1067.13 908.26 1056.3 917.72 1067.13 908.26 1077.96"/><polygon points="830.32 912.27 820.86 901.44 830.32 890.61 839.78 901.44 830.32 912.27"/><polygon points="849.82 912.27 840.36 901.44 849.82 890.61 859.28 901.44 849.82 912.27"/><polygon points="869.24 912.27 859.78 901.44 869.24 890.61 878.7 901.44 869.24 912.27"/><polygon points="888.69 912.27 879.23 901.44 888.69 890.61 898.15 901.44 888.69 912.27"/><polygon points="908.36 912.27 898.9 901.44 908.36 890.61 917.82 901.44 908.36 912.27"/></g><path d="M908.65,897.42V875.61H893.36c-.1,1.19-.22,1.91-.22,1.91a34,34,0,0,1-9.91-1.91h-5.32c-2.45,7.15-8.48,12.3-8.48,12.3s-6-5.15-8.48-12.3h-5.09a33.94,33.94,0,0,1-9.9,1.91s-.12-.72-.22-1.91H830.22v21.81Z"/><path d="M903.31,853.16s-5.23,6.12-12.46,8.54a28,28,0,0,1,2.39,12.61h15.41V849.88H899.9A31.12,31.12,0,0,1,903.31,853.16Z"/><path d="M835.56,853.16s5.22,6.12,12.46,8.54a27.88,27.88,0,0,0-2.39,12.61H830.22V849.88H839A31.12,31.12,0,0,0,835.56,853.16Z"/><path d="M873.73,868c-3.44-4.14-4.16-9.73-4.19-13.63l-.11-.1-.11.1c0,3.9-.74,9.49-4.18,13.63A16.26,16.26,0,0,1,861,871.5c1.67,7.51,8.3,13.16,8.3,13.16s6.69-5.7,8.32-13.27A15.8,15.8,0,0,1,873.73,868Z"/><path d="M849.8,859.87a15.58,15.58,0,0,1,2-3.13c5.55-6.68,16.14-7.12,17.12-7.15-2.92-2.57-8.08-6.19-14-6.19-9.12,0-16.51,8.68-16.51,8.68S843.19,857.67,849.8,859.87Z"/><path d="M887.08,856.94a15,15,0,0,1,2,3.13c6.6-2.21,11.38-7.8,11.38-7.8s-7.4-8.68-16.52-8.68c-5.9,0-11.06,3.63-14,6.19C870.93,849.81,881.53,850.25,887.08,856.94Z"/><path d="M863.67,858.47a18.26,18.26,0,0,1-8.74,2.48,16.15,16.15,0,0,1-5.13-.88c-3.32,6.79-1.89,15.12-1.89,15.12A29.43,29.43,0,0,0,861,871.5a15.42,15.42,0,0,1-.38-3.35A18.93,18.93,0,0,1,863.67,858.47Z"/><path d="M874.88,858.3a19,19,0,0,1,3.13,9.85,15.77,15.77,0,0,1-.36,3.24c5.92,3.7,13.3,3.8,13.3,3.8s1.44-8.33-1.88-15.12a16.21,16.21,0,0,1-5.14.88A18.5,18.5,0,0,1,874.88,858.3Z"/><path d="M830.12,1069.22V1091h15.29c.1-1.2.23-1.92.23-1.92a34.22,34.22,0,0,1,9.9,1.92h5.32c2.45-7.15,8.48-12.3,8.48-12.3s6,5.15,8.48,12.3h5.09a34.17,34.17,0,0,1,9.9-1.92s.12.72.22,1.92h15.52v-21.81Z"/><path d="M835.46,1113.48s5.23-6.12,12.46-8.54a28,28,0,0,1-2.39-12.61H830.12v24.43h8.75A32.31,32.31,0,0,1,835.46,1113.48Z"/><path d="M903.21,1113.48s-5.22-6.12-12.46-8.54a27.88,27.88,0,0,0,2.39-12.61h15.41v24.43H899.8A31.12,31.12,0,0,0,903.21,1113.48Z"/><path d="M865,1098.61c3.44,4.14,4.17,9.73,4.19,13.63l.11.1.11-.1c0-3.9.74-9.49,4.18-13.63a16.26,16.26,0,0,1,4.11-3.47c-1.67-7.52-8.3-13.16-8.3-13.16s-6.69,5.7-8.32,13.27A15.8,15.8,0,0,1,865,1098.61Z"/><path d="M889,1106.77a16.14,16.14,0,0,1-2,3.12c-5.56,6.69-16.15,7.13-17.13,7.16,2.92,2.56,8.08,6.19,14,6.19,9.12,0,16.51-8.68,16.51-8.68S895.58,1109,889,1106.77Z"/><path d="M851.69,1109.7a15,15,0,0,1-2-3.13c-6.6,2.21-11.38,7.8-11.38,7.8s7.4,8.68,16.52,8.68c5.9,0,11.06-3.63,14-6.19C867.84,1116.83,857.24,1116.39,851.69,1109.7Z"/><path d="M875.1,1108.17a18.26,18.26,0,0,1,8.74-2.48,16.26,16.26,0,0,1,5.14.88c3.31-6.79,1.88-15.12,1.88-15.12a29.28,29.28,0,0,0-13.12,3.69,15.42,15.42,0,0,1,.38,3.35A18.93,18.93,0,0,1,875.1,1108.17Z"/><path d="M863.89,1108.34a19,19,0,0,1-3.13-9.85,15.77,15.77,0,0,1,.36-3.24c-5.92-3.7-13.3-3.8-13.3-3.8s-1.44,8.33,1.88,15.12a16.21,16.21,0,0,1,5.14-.88A18.5,18.5,0,0,1,863.89,1108.34Z"/><rect class="cls-5" x="950.17" y="836.52" width="109.65" height="292.25" transform="translate(2009.99 1965.29) rotate(180)"/><g class="cls-7"><polygon points="975.8 924.94 966.34 914.11 975.8 903.27 985.26 914.11 975.8 924.94"/><polygon points="995.31 924.94 985.85 914.11 995.31 903.27 1004.77 914.11 995.31 924.94"/><polygon points="1014.73 924.94 1005.27 914.11 1014.73 903.27 1024.19 914.11 1014.73 924.94"/><polygon points="1034.17 924.94 1024.71 914.11 1034.17 903.27 1043.63 914.11 1034.17 924.94"/><polygon points="966.03 938.68 956.57 927.85 966.03 917.02 975.49 927.85 966.03 938.68"/><polygon points="985.53 938.68 976.07 927.85 985.53 917.02 994.99 927.85 985.53 938.68"/><polygon points="1004.95 938.68 995.49 927.85 1004.95 917.02 1014.41 927.85 1004.95 938.68"/><polygon points="1024.39 938.68 1014.93 927.85 1024.39 917.02 1033.86 927.85 1024.39 938.68"/><polygon points="1044.07 938.68 1034.61 927.85 1044.07 917.02 1053.53 927.85 1044.07 938.68"/><polygon points="975.48 952.73 966.02 941.9 975.48 931.07 984.95 941.9 975.48 952.73"/><polygon points="994.99 952.73 985.53 941.9 994.99 931.07 1004.45 941.9 994.99 952.73"/><polygon points="1014.41 952.73 1004.95 941.9 1014.41 931.07 1023.87 941.9 1014.41 952.73"/><polygon points="1033.85 952.73 1024.39 941.9 1033.85 931.07 1043.31 941.9 1033.85 952.73"/><polygon points="966.09 966.31 956.63 955.48 966.09 944.65 975.55 955.48 966.09 966.31"/><polygon points="985.6 966.31 976.13 955.48 985.6 944.65 995.06 955.48 985.6 966.31"/><polygon points="1005.01 966.31 995.55 955.48 1005.01 944.65 1014.48 955.48 1005.01 966.31"/><polygon points="1024.46 966.31 1015 955.48 1024.46 944.65 1033.92 955.48 1024.46 966.31"/><polygon points="1044.13 966.31 1034.67 955.48 1044.13 944.65 1053.6 955.48 1044.13 966.31"/><polygon points="975.94 980.53 966.48 969.7 975.94 958.87 985.4 969.7 975.94 980.53"/><polygon points="995.45 980.53 985.99 969.7 995.45 958.87 1004.91 969.7 995.45 980.53"/><polygon points="1014.87 980.53 1005.4 969.7 1014.87 958.87 1024.33 969.7 1014.87 980.53"/><polygon points="1034.31 980.53 1024.85 969.7 1034.31 958.87 1043.77 969.7 1034.31 980.53"/><polygon points="966.21 994.78 956.75 983.95 966.21 973.12 975.67 983.95 966.21 994.78"/><polygon points="985.72 994.78 976.26 983.95 985.72 973.12 995.18 983.95 985.72 994.78"/><polygon points="1005.14 994.78 995.68 983.95 1005.14 973.12 1014.6 983.95 1005.14 994.78"/><polygon points="1024.58 994.78 1015.12 983.95 1024.58 973.12 1034.04 983.95 1024.58 994.78"/><polygon points="1044.26 994.78 1034.8 983.95 1044.26 973.12 1053.72 983.95 1044.26 994.78"/><polygon points="975.97 1008.33 966.5 997.5 975.97 986.66 985.43 997.5 975.97 1008.33"/><polygon points="995.47 1008.33 986.01 997.5 995.47 986.66 1004.93 997.5 995.47 1008.33"/><polygon points="1014.89 1008.33 1005.43 997.5 1014.89 986.66 1024.35 997.5 1014.89 1008.33"/><polygon points="1034.33 1008.33 1024.87 997.5 1034.33 986.66 1043.79 997.5 1034.33 1008.33"/><polygon points="966.19 1022.28 956.73 1011.45 966.19 1000.62 975.65 1011.45 966.19 1022.28"/><polygon points="985.69 1022.28 976.23 1011.45 985.69 1000.62 995.15 1011.45 985.69 1022.28"/><polygon points="1005.11 1022.28 995.65 1011.45 1005.11 1000.62 1014.57 1011.45 1005.11 1022.28"/><polygon points="1024.56 1022.28 1015.1 1011.45 1024.56 1000.62 1034.02 1011.45 1024.56 1022.28"/><polygon points="1044.23 1022.28 1034.77 1011.45 1044.23 1000.62 1053.69 1011.45 1044.23 1022.28"/><polygon points="975.92 1036.12 966.46 1025.29 975.92 1014.46 985.38 1025.29 975.92 1036.12"/><polygon points="995.42 1036.12 985.96 1025.29 995.42 1014.46 1004.88 1025.29 995.42 1036.12"/><polygon points="1014.84 1036.12 1005.38 1025.29 1014.84 1014.46 1024.3 1025.29 1014.84 1036.12"/><polygon points="1034.28 1036.12 1024.82 1025.29 1034.28 1014.46 1043.74 1025.29 1034.28 1036.12"/><polygon points="966.16 1049.79 956.7 1038.96 966.16 1028.13 975.63 1038.96 966.16 1049.79"/><polygon points="985.67 1049.79 976.21 1038.96 985.67 1028.13 995.13 1038.96 985.67 1049.79"/><polygon points="1005.09 1049.79 995.63 1038.96 1005.09 1028.13 1014.55 1038.96 1005.09 1049.79"/><polygon points="1024.53 1049.79 1015.07 1038.96 1024.53 1028.13 1033.99 1038.96 1024.53 1049.79"/><polygon points="1044.21 1049.79 1034.75 1038.96 1044.21 1028.13 1053.67 1038.96 1044.21 1049.79"/><polygon points="975.84 1063.92 966.38 1053.09 975.84 1042.26 985.3 1053.09 975.84 1063.92"/><polygon points="995.35 1063.92 985.89 1053.09 995.35 1042.26 1004.81 1053.09 995.35 1063.92"/><polygon points="1014.77 1063.92 1005.31 1053.09 1014.77 1042.26 1024.23 1053.09 1014.77 1063.92"/><polygon points="1034.21 1063.92 1024.75 1053.09 1034.21 1042.26 1043.67 1053.09 1034.21 1063.92"/><polygon points="965.83 1077.29 956.37 1066.46 965.83 1055.63 975.29 1066.46 965.83 1077.29"/><polygon points="985.34 1077.29 975.88 1066.46 985.34 1055.63 994.8 1066.46 985.34 1077.29"/><polygon points="1004.75 1077.29 995.29 1066.46 1004.75 1055.63 1014.22 1066.46 1004.75 1077.29"/><polygon points="1024.2 1077.29 1014.74 1066.46 1024.2 1055.63 1033.66 1066.46 1024.2 1077.29"/><polygon points="1043.88 1077.29 1034.41 1066.46 1043.88 1055.63 1053.34 1066.46 1043.88 1077.29"/><polygon points="965.93 911.6 956.47 900.77 965.93 889.94 975.39 900.77 965.93 911.6"/><polygon points="985.43 911.6 975.97 900.77 985.43 889.94 994.89 900.77 985.43 911.6"/><polygon points="1004.85 911.6 995.39 900.77 1004.85 889.94 1014.31 900.77 1004.85 911.6"/><polygon points="1024.3 911.6 1014.84 900.77 1024.3 889.94 1033.76 900.77 1024.3 911.6"/><polygon points="1043.97 911.6 1034.51 900.77 1043.97 889.94 1053.43 900.77 1043.97 911.6"/></g><path d="M1044.26,896.75V874.94H1029c-.1,1.19-.22,1.91-.22,1.91a34,34,0,0,1-9.91-1.91h-5.31c-2.46,7.15-8.49,12.3-8.49,12.3s-6-5.15-8.48-12.3h-5.09a33.94,33.94,0,0,1-9.9,1.91s-.12-.72-.22-1.91H965.83v21.81Z"/><path d="M1038.92,852.48s-5.23,6.13-12.46,8.54a27.94,27.94,0,0,1,2.39,12.62h15.41V849.21h-8.75A31.7,31.7,0,0,1,1038.92,852.48Z"/><path d="M971.17,852.48s5.23,6.13,12.46,8.54a27.94,27.94,0,0,0-2.39,12.62H965.83V849.21h8.75A31.7,31.7,0,0,0,971.17,852.48Z"/><path d="M1009.34,867.36c-3.44-4.14-4.16-9.73-4.18-13.63l-.12-.1-.11.1c0,3.9-.74,9.49-4.18,13.63a16.46,16.46,0,0,1-4.11,3.47c1.67,7.51,8.3,13.16,8.3,13.16s6.69-5.7,8.32-13.27A16.23,16.23,0,0,1,1009.34,867.36Z"/><path d="M985.41,859.2a15.58,15.58,0,0,1,2-3.13c5.55-6.69,16.14-7.13,17.13-7.15-2.92-2.57-8.09-6.2-14-6.2-9.12,0-16.51,8.68-16.51,8.68S978.8,857,985.41,859.2Z"/><path d="M1022.69,856.27a15.24,15.24,0,0,1,2,3.12c6.6-2.2,11.38-7.79,11.38-7.79s-7.39-8.68-16.51-8.68c-5.91,0-11.07,3.62-14,6.19C1006.54,849.14,1017.14,849.58,1022.69,856.27Z"/><path d="M999.28,857.8a18.38,18.38,0,0,1-8.74,2.48,16.16,16.16,0,0,1-5.13-.89c-3.32,6.8-1.89,15.12-1.89,15.12a29.35,29.35,0,0,0,13.12-3.68,15.5,15.5,0,0,1-.38-3.35A18.93,18.93,0,0,1,999.28,857.8Z"/><path d="M1010.49,857.63a19,19,0,0,1,3.13,9.85,15.77,15.77,0,0,1-.36,3.24c5.92,3.69,13.3,3.79,13.3,3.79s1.44-8.32-1.88-15.12a16.21,16.21,0,0,1-5.13.89A18.51,18.51,0,0,1,1010.49,857.63Z"/><path d="M965.74,1068.54v21.82H981c.1-1.2.23-1.92.23-1.92a33.82,33.82,0,0,1,9.9,1.92h5.32c2.45-7.15,8.48-12.3,8.48-12.3s6,5.15,8.48,12.3h5.09a33.77,33.77,0,0,1,9.9-1.92s.12.72.22,1.92h15.52v-21.82Z"/><path d="M971.07,1112.81s5.23-6.12,12.46-8.54a27.87,27.87,0,0,1-2.38-12.62H965.74v24.44h8.75A33.13,33.13,0,0,1,971.07,1112.81Z"/><path d="M1038.83,1112.81s-5.23-6.12-12.46-8.54a27.87,27.87,0,0,0,2.38-12.62h15.41v24.44h-8.75A33.13,33.13,0,0,0,1038.83,1112.81Z"/><path d="M1000.66,1097.94c3.43,4.14,4.16,9.73,4.18,13.63l.11.1.11-.1c0-3.9.75-9.49,4.18-13.63a16.51,16.51,0,0,1,4.11-3.48c-1.67-7.51-8.3-13.15-8.3-13.15s-6.69,5.7-8.32,13.26A16.28,16.28,0,0,1,1000.66,1097.94Z"/><path d="M1024.59,1106.09a15.46,15.46,0,0,1-2,3.13c-5.56,6.69-16.15,7.13-17.13,7.16,2.92,2.56,8.08,6.19,14,6.19,9.12,0,16.51-8.68,16.51-8.68S1031.19,1108.3,1024.59,1106.09Z"/><path d="M987.3,1109a15.75,15.75,0,0,1-2-3.13c-6.6,2.2-11.38,7.8-11.38,7.8s7.4,8.68,16.52,8.68c5.9,0,11.06-3.63,14-6.2C1003.45,1116.16,992.85,1115.72,987.3,1109Z"/><path d="M1010.71,1107.5a18.26,18.26,0,0,1,8.74-2.48,16.21,16.21,0,0,1,5.14.88c3.32-6.79,1.88-15.12,1.88-15.12a29.35,29.35,0,0,0-13.12,3.68,15,15,0,0,1,.38,3.36A19,19,0,0,1,1010.71,1107.5Z"/><path d="M999.5,1107.67a19.16,19.16,0,0,1-3.13-9.85,15.86,15.86,0,0,1,.36-3.25c-5.92-3.69-13.3-3.79-13.3-3.79s-1.44,8.33,1.88,15.12a16.21,16.21,0,0,1,5.14-.88A18.5,18.5,0,0,1,999.5,1107.67Z"/><rect class="cls-8" x="1126.52" y="819.79" width="302.1" height="552.2"/><rect class="cls-9" x="1154.96" y="836.78" width="109.65" height="292.25"/><rect x="1170.54" y="954.98" width="17.27" height="17.27"/><rect x="1190.91" y="954.98" width="17.27" height="17.27"/><rect x="1211.29" y="954.98" width="17.27" height="17.27"/><rect x="1231.66" y="954.98" width="17.27" height="17.27"/><rect x="1170.54" y="934.68" width="17.27" height="17.27"/><rect x="1190.91" y="934.68" width="17.27" height="17.27"/><rect x="1211.29" y="934.68" width="17.27" height="17.27"/><rect x="1231.66" y="934.68" width="17.27" height="17.27"/><rect x="1170.54" y="914.15" width="17.27" height="17.27"/><rect x="1190.91" y="914.15" width="17.27" height="17.27"/><rect x="1211.29" y="914.15" width="17.27" height="17.27"/><rect x="1231.66" y="914.15" width="17.27" height="17.27"/><rect x="1170.54" y="975.27" width="17.27" height="17.27"/><rect x="1190.91" y="975.27" width="17.27" height="17.27"/><rect x="1211.29" y="975.27" width="17.27" height="17.27"/><rect x="1231.66" y="975.27" width="17.27" height="17.27"/><rect x="1170.54" y="995.49" width="17.27" height="17.27"/><rect x="1190.91" y="995.49" width="17.27" height="17.27"/><rect x="1211.29" y="995.49" width="17.27" height="17.27"/><rect x="1231.66" y="995.49" width="17.27" height="17.27"/><rect x="1170.54" y="1015.55" width="17.27" height="17.27"/><rect x="1190.91" y="1015.55" width="17.27" height="17.27"/><rect x="1211.29" y="1015.55" width="17.27" height="17.27"/><rect x="1231.66" y="1015.55" width="17.27" height="17.27"/><rect x="1170.54" y="1035.61" width="17.27" height="17.27"/><rect x="1190.91" y="1035.61" width="17.27" height="17.27"/><rect x="1211.29" y="1035.61" width="17.27" height="17.27"/><rect x="1231.66" y="1035.61" width="17.27" height="17.27"/><rect x="1170.52" y="1054.98" width="11.35" height="11.35"/><rect x="1183.9" y="1054.98" width="11.35" height="11.35"/><rect x="1197.29" y="1054.98" width="11.35" height="11.35"/><rect x="1210.67" y="1054.98" width="11.35" height="11.35"/><rect x="1224.22" y="1054.98" width="11.35" height="11.35"/><rect x="1237.6" y="1054.98" width="11.35" height="11.35"/><rect x="1170.52" y="900.04" width="11.35" height="11.35"/><rect x="1183.9" y="900.04" width="11.35" height="11.35"/><rect x="1197.29" y="900.04" width="11.35" height="11.35"/><rect x="1210.67" y="900.04" width="11.35" height="11.35"/><rect x="1224.22" y="900.04" width="11.35" height="11.35"/><rect x="1237.6" y="900.04" width="11.35" height="11.35"/><path d="M1170.52,1068.54v21.81h15.29c.1-1.2.22-1.92.22-1.92a34.17,34.17,0,0,1,9.9,1.92h5.32c2.46-7.15,8.48-12.3,8.48-12.3s6,5.15,8.49,12.3h5.08a34.22,34.22,0,0,1,9.9-1.92s.13.72.23,1.92H1249v-21.81Z"/><path d="M1175.86,1112.8s5.22-6.12,12.46-8.54a27.88,27.88,0,0,1-2.39-12.61h-15.41v24.43h8.75A31.12,31.12,0,0,1,1175.86,1112.8Z"/><path d="M1243.61,1112.8s-5.23-6.12-12.46-8.54a27.88,27.88,0,0,0,2.39-12.61H1249v24.43h-8.75A31.12,31.12,0,0,0,1243.61,1112.8Z"/><path d="M1205.44,1097.93c3.44,4.14,4.16,9.73,4.18,13.63l.11.1.12-.1c0-3.9.74-9.49,4.18-13.63a15.92,15.92,0,0,1,4.11-3.47c-1.67-7.51-8.3-13.16-8.3-13.16s-6.69,5.7-8.32,13.27A16.16,16.16,0,0,1,1205.44,1097.93Z"/><path d="M1229.37,1106.09a15.24,15.24,0,0,1-2,3.12c-5.55,6.69-16.15,7.13-17.13,7.16,2.92,2.57,8.08,6.19,14,6.19,9.12,0,16.52-8.68,16.52-8.68S1236,1108.29,1229.37,1106.09Z"/><path d="M1192.09,1109a15,15,0,0,1-2-3.13c-6.61,2.21-11.38,7.8-11.38,7.8s7.39,8.68,16.51,8.68c5.9,0,11.07-3.63,14-6.19C1208.23,1116.15,1197.64,1115.71,1192.09,1109Z"/><path d="M1215.5,1107.49a18.19,18.19,0,0,1,8.73-2.48,16.21,16.21,0,0,1,5.14.88c3.32-6.79,1.88-15.12,1.88-15.12a29.25,29.25,0,0,0-13.11,3.69,15.42,15.42,0,0,1,.38,3.35A18.93,18.93,0,0,1,1215.5,1107.49Z"/><path d="M1204.29,1107.66a19,19,0,0,1-3.13-9.85,15.1,15.1,0,0,1,.36-3.24c-5.92-3.7-13.31-3.8-13.31-3.8s-1.43,8.33,1.89,15.12a16.15,16.15,0,0,1,5.13-.88A18.54,18.54,0,0,1,1204.29,1107.66Z"/><path d="M1249,897.28V875.47h-15.29c-.1,1.19-.22,1.91-.22,1.91a33.94,33.94,0,0,1-9.9-1.91h-5.32c-2.45,7.14-8.48,12.29-8.48,12.29s-6-5.15-8.48-12.29h-5.09a33.94,33.94,0,0,1-9.9,1.91s-.13-.72-.23-1.91h-15.52v21.81Z"/><path d="M1243.7,853s-5.22,6.13-12.46,8.54a27.76,27.76,0,0,1,2.39,12.62H1249V849.74h-8.75A31.7,31.7,0,0,1,1243.7,853Z"/><path d="M1176,853s5.23,6.13,12.46,8.54a27.87,27.87,0,0,0-2.38,12.62h-15.42V849.74h8.76A32.52,32.52,0,0,0,1176,853Z"/><path d="M1214.12,867.88c-3.43-4.13-4.16-9.72-4.18-13.63l-.11-.09-.11.09c0,3.91-.75,9.5-4.18,13.63a16.37,16.37,0,0,1-4.12,3.48c1.67,7.51,8.3,13.16,8.3,13.16s6.69-5.71,8.32-13.27A16.43,16.43,0,0,1,1214.12,867.88Z"/><path d="M1190.19,859.73a15.46,15.46,0,0,1,2-3.13c5.55-6.69,16.15-7.13,17.13-7.16-2.92-2.56-8.08-6.19-14-6.19-9.12,0-16.52,8.68-16.52,8.68S1183.59,857.52,1190.19,859.73Z"/><path d="M1227.48,856.79a16.52,16.52,0,0,1,2,3.13c6.6-2.2,11.37-7.79,11.37-7.79s-7.39-8.68-16.51-8.68c-5.9,0-11.06,3.62-14,6.19C1211.33,849.66,1221.92,850.11,1227.48,856.79Z"/><path d="M1204.06,858.33a18.3,18.3,0,0,1-8.73,2.48,16.22,16.22,0,0,1-5.14-.89c-3.32,6.8-1.88,15.12-1.88,15.12a29.29,29.29,0,0,0,13.11-3.68A15.52,15.52,0,0,1,1201,868,18.89,18.89,0,0,1,1204.06,858.33Z"/><path d="M1215.28,858.16a19.08,19.08,0,0,1,3.12,9.84,15.2,15.2,0,0,1-.36,3.25c5.92,3.69,13.31,3.79,13.31,3.79s1.43-8.32-1.88-15.12a16.27,16.27,0,0,1-5.14.89A18.57,18.57,0,0,1,1215.28,858.16Z"/><rect class="cls-9" x="1290.52" y="836.96" width="109.65" height="292.25" transform="translate(2690.7 1966.16) rotate(180)"/><rect x="1306.1" y="955.15" width="17.27" height="17.27"/><rect x="1326.48" y="955.15" width="17.27" height="17.27"/><rect x="1346.85" y="955.15" width="17.27" height="17.27"/><rect x="1367.23" y="955.15" width="17.27" height="17.27"/><rect x="1306.1" y="934.86" width="17.27" height="17.27"/><rect x="1326.48" y="934.86" width="17.27" height="17.27"/><rect x="1346.85" y="934.86" width="17.27" height="17.27"/><rect x="1367.23" y="934.86" width="17.27" height="17.27"/><rect x="1306.1" y="914.32" width="17.27" height="17.27"/><rect x="1326.48" y="914.32" width="17.27" height="17.27"/><rect x="1346.85" y="914.32" width="17.27" height="17.27"/><rect x="1367.23" y="914.32" width="17.27" height="17.27"/><rect x="1306.1" y="975.44" width="17.27" height="17.27"/><rect x="1326.48" y="975.44" width="17.27" height="17.27"/><rect x="1346.85" y="975.44" width="17.27" height="17.27"/><rect x="1367.23" y="975.44" width="17.27" height="17.27"/><rect x="1306.1" y="995.66" width="17.27" height="17.27"/><rect x="1326.48" y="995.66" width="17.27" height="17.27"/><rect x="1346.85" y="995.66" width="17.27" height="17.27"/><rect x="1367.23" y="995.66" width="17.27" height="17.27"/><rect x="1306.1" y="1015.72" width="17.27" height="17.27"/><rect x="1326.48" y="1015.72" width="17.27" height="17.27"/><rect x="1346.85" y="1015.72" width="17.27" height="17.27"/><rect x="1367.23" y="1015.72" width="17.27" height="17.27"/><rect x="1306.1" y="1035.78" width="17.27" height="17.27"/><rect x="1326.48" y="1035.78" width="17.27" height="17.27"/><rect x="1346.85" y="1035.78" width="17.27" height="17.27"/><rect x="1367.23" y="1035.78" width="17.27" height="17.27"/><rect x="1306.09" y="1055.15" width="11.35" height="11.35"/><rect x="1319.47" y="1055.15" width="11.35" height="11.35"/><rect x="1332.86" y="1055.15" width="11.35" height="11.35"/><rect x="1346.24" y="1055.15" width="11.35" height="11.35"/><rect x="1359.79" y="1055.15" width="11.35" height="11.35"/><rect x="1373.17" y="1055.15" width="11.35" height="11.35"/><rect x="1306.09" y="900.21" width="11.35" height="11.35"/><rect x="1319.47" y="900.21" width="11.35" height="11.35"/><rect x="1332.86" y="900.21" width="11.35" height="11.35"/><rect x="1346.24" y="900.21" width="11.35" height="11.35"/><rect x="1359.79" y="900.21" width="11.35" height="11.35"/><rect x="1373.17" y="900.21" width="11.35" height="11.35"/><path d="M1306.09,1068.71v21.81h15.29c.1-1.19.22-1.91.22-1.91a33.94,33.94,0,0,1,9.9,1.91h5.32c2.46-7.15,8.48-12.3,8.48-12.3s6,5.15,8.48,12.3h5.09a34,34,0,0,1,9.9-1.91s.13.72.23,1.91h15.52v-21.81Z"/><path d="M1311.43,1113s5.22-6.13,12.46-8.54a27.94,27.94,0,0,1-2.39-12.62h-15.41v24.43h8.75A31.7,31.7,0,0,1,1311.43,1113Z"/><path d="M1379.18,1113s-5.23-6.13-12.46-8.54a28.07,28.07,0,0,0,2.39-12.62h15.41v24.43h-8.75A32.94,32.94,0,0,0,1379.18,1113Z"/><path d="M1341,1098.1c3.44,4.14,4.16,9.73,4.18,13.63l.11.1a.52.52,0,0,0,.11-.1c0-3.9.75-9.49,4.19-13.63a16.12,16.12,0,0,1,4.11-3.47c-1.67-7.51-8.3-13.16-8.3-13.16s-6.69,5.7-8.32,13.27A16.61,16.61,0,0,1,1341,1098.1Z"/><path d="M1364.94,1106.26a15.58,15.58,0,0,1-2,3.13c-5.55,6.69-16.15,7.13-17.13,7.15,2.92,2.57,8.08,6.2,14,6.2,9.12,0,16.52-8.68,16.52-8.68S1371.54,1108.46,1364.94,1106.26Z"/><path d="M1327.65,1109.19a16.14,16.14,0,0,1-2-3.12c-6.6,2.2-11.37,7.79-11.37,7.79s7.39,8.68,16.51,8.68c5.9,0,11.06-3.62,14-6.19C1343.8,1116.32,1333.21,1115.88,1327.65,1109.19Z"/><path d="M1351.07,1107.66a18.3,18.3,0,0,1,8.73-2.48,16.22,16.22,0,0,1,5.14.89c3.32-6.8,1.88-15.12,1.88-15.12a29.32,29.32,0,0,0-13.11,3.68,15.42,15.42,0,0,1,.38,3.35A18.93,18.93,0,0,1,1351.07,1107.66Z"/><path d="M1339.85,1107.83a19.09,19.09,0,0,1-3.12-9.85,15.1,15.1,0,0,1,.36-3.24c-5.92-3.69-13.31-3.79-13.31-3.79s-1.43,8.32,1.88,15.12a16.27,16.27,0,0,1,5.14-.89A18.47,18.47,0,0,1,1339.85,1107.83Z"/><path d="M1384.61,897.45V875.64h-15.29c-.1,1.19-.22,1.91-.22,1.91a33.94,33.94,0,0,1-9.9-1.91h-5.32c-2.46,7.15-8.48,12.3-8.48,12.3s-6-5.15-8.48-12.3h-5.09a34,34,0,0,1-9.9,1.91s-.13-.72-.23-1.91h-15.52v21.81Z"/><path d="M1379.27,853.19s-5.22,6.12-12.46,8.54a27.88,27.88,0,0,1,2.39,12.61h15.41V849.91h-8.75A31.12,31.12,0,0,1,1379.27,853.19Z"/><path d="M1311.52,853.19s5.23,6.12,12.46,8.54a28,28,0,0,0-2.39,12.61h-15.41V849.91h8.75A31.12,31.12,0,0,0,1311.52,853.19Z"/><path d="M1349.69,868.06c-3.44-4.14-4.16-9.73-4.18-13.63l-.11-.1-.11.1c0,3.9-.75,9.49-4.19,13.63a15.92,15.92,0,0,1-4.11,3.47c1.67,7.51,8.3,13.16,8.3,13.16s6.69-5.7,8.32-13.27A16.16,16.16,0,0,1,1349.69,868.06Z"/><path d="M1325.76,859.9a15.58,15.58,0,0,1,2-3.13c5.55-6.68,16.15-7.13,17.13-7.15-2.92-2.57-8.08-6.19-14-6.19-9.12,0-16.52,8.68-16.52,8.68S1319.16,857.7,1325.76,859.9Z"/><path d="M1363.05,857a15.91,15.91,0,0,1,2,3.13c6.6-2.21,11.37-7.8,11.37-7.8s-7.39-8.68-16.51-8.68c-5.9,0-11.06,3.63-14,6.19C1346.9,849.84,1357.49,850.28,1363.05,857Z"/><path d="M1339.63,858.5a18.19,18.19,0,0,1-8.73,2.48,16.21,16.21,0,0,1-5.14-.88c-3.32,6.79-1.88,15.12-1.88,15.12a29.4,29.4,0,0,0,13.11-3.69,15.42,15.42,0,0,1-.38-3.35A18.93,18.93,0,0,1,1339.63,858.5Z"/><path d="M1350.85,858.33a19.09,19.09,0,0,1,3.12,9.85,15.1,15.1,0,0,1-.36,3.24c5.92,3.7,13.31,3.8,13.31,3.8s1.43-8.33-1.88-15.12a16.26,16.26,0,0,1-5.14.88A18.47,18.47,0,0,1,1350.85,858.33Z"/><rect class="cls-3" x="-294.18" y="-252.78" width="2803.26" height="2408.8"/><rect class="cls-3" x="-5.05" y="-4.33" width="2224.98" height="1911.9"/><rect class="cls-3" x="210.6" y="180.97" width="1793.7" height="1541.3"/><rect class="cls-3" x="433.74" y="372.71" width="1347.41" height="1157.81"/><rect class="cls-3" x="615.82" y="529.17" width="983.25" height="844.89"/><line class="cls-3" x1="1599.07" y1="529.17" x2="2842.08" y2="-538.94"/><line class="cls-3" x1="1599.07" y1="1374.06" x2="2842.08" y2="2442.17"/><line class="cls-3" x1="615.82" y1="1374.06" x2="-627.19" y2="2442.17"/><line class="cls-3" x1="615.82" y1="529.17" x2="-627.19" y2="-538.94"/></svg>