<svg id="Layer_1" data-name="Layer 1" xmlns="http://www.w3.org/2000/svg" xmlns:xlink="http://www.w3.org/1999/xlink" viewBox="0 0 2214.89 1903.23"><defs><style>.cls-1,.cls-3{fill:none;}.cls-2{fill:url(#radial-gradient);}.cls-3{stroke:#005775;stroke-miterlimit:10;stroke-width:6px;}.cls-4{fill:#ff9b17;}.cls-5{fill:#d2eff9;}.cls-6{clip-path:url(#clip-path);}.cls-7{clip-path:url(#clip-path-2);}.cls-8{fill:#005775;}.cls-9{fill:#ffeecf;}</style><radialGradient id="radial-gradient" cx="1107.44" cy="951.62" r="1032.47" gradientUnits="userSpaceOnUse"><stop offset="0.31" stop-color="#d2eff9"/><stop offset="0.53" stop-color="#e3d0a6"/><stop offset="0.76" stop-color="#f2b45a"/><stop offset="0.92" stop-color="#fba229"/><stop offset="1" stop-color="#ff9b17"/></radialGradient><clipPath id="clip-path"><rect class="cls-1" x="1013.59" y="933.18" width="26.55" height="56.52"/></clipPath><clipPath id="clip-path-2"><rect class="cls-1" x="1059.5" y="932.96" width="26.55" height="56.52"/></clipPath></defs><rect class="cls-2" width="2214.89" height="1903.23"/><rect class="cls-3" x="520.17" y="446.98" width="1174.55" height="1009.27"/><rect class="cls-3" x="632.91" y="543.86" width="949.06" height="815.51"/><rect class="cls-3" x="730.8" y="627.97" width="753.28" height="647.29"/><rect class="cls-3" x="809.82" y="695.87" width="595.26" height="511.5"/><rect class="cls-3" x="883.92" y="759.54" width="447.06" height="384.15"/><rect class="cls-3" x="941" y="808.59" width="332.89" height="286.04"/><line class="cls-3" x1="1273.89" y1="808.59" x2="2209.53"/><line class="cls-3" x1="1273.89" y1="1094.64" x2="2214.95" y2="1903.23"/><line class="cls-3" x1="941" y1="1094.64" x2="-5.36" y2="1903.23"/><line class="cls-3" x1="941" y1="808.59" x2="-5.36"/><rect class="cls-4" x="998.71" y="906.04" width="102.19" height="186.78"/><rect class="cls-5" x="1008.29" y="911.85" width="37.12" height="98.94"/><g class="cls-6"><polygon points="1016.97 941.79 1013.76 938.12 1016.97 934.45 1020.17 938.12 1016.97 941.79"/><polygon points="1023.57 941.79 1020.37 938.12 1023.57 934.45 1026.77 938.12 1023.57 941.79"/><polygon points="1030.14 941.79 1026.94 938.12 1030.14 934.45 1033.35 938.12 1030.14 941.79"/><polygon points="1036.73 941.79 1033.52 938.12 1036.73 934.45 1039.93 938.12 1036.73 941.79"/><polygon points="1013.65 946.44 1010.45 942.77 1013.65 939.11 1016.86 942.77 1013.65 946.44"/><polygon points="1020.26 946.44 1017.06 942.77 1020.26 939.11 1023.46 942.77 1020.26 946.44"/><polygon points="1026.83 946.44 1023.63 942.77 1026.83 939.11 1030.04 942.77 1026.83 946.44"/><polygon points="1033.42 946.44 1030.21 942.77 1033.42 939.11 1036.62 942.77 1033.42 946.44"/><polygon points="1040.08 946.44 1036.87 942.77 1040.08 939.11 1043.28 942.77 1040.08 946.44"/><polygon points="1016.86 951.2 1013.65 947.53 1016.86 943.86 1020.06 947.53 1016.86 951.2"/><polygon points="1023.46 951.2 1020.26 947.53 1023.46 943.86 1026.66 947.53 1023.46 951.2"/><polygon points="1030.04 951.2 1026.83 947.53 1030.04 943.86 1033.24 947.53 1030.04 951.2"/><polygon points="1036.62 951.2 1033.41 947.53 1036.62 943.86 1039.82 947.53 1036.62 951.2"/><polygon points="1013.68 955.79 1010.47 952.13 1013.68 948.46 1016.88 952.13 1013.68 955.79"/><polygon points="1020.28 955.79 1017.08 952.13 1020.28 948.46 1023.48 952.13 1020.28 955.79"/><polygon points="1026.85 955.79 1023.65 952.13 1026.85 948.46 1030.06 952.13 1026.85 955.79"/><polygon points="1033.44 955.79 1030.23 952.13 1033.44 948.46 1036.64 952.13 1033.44 955.79"/><polygon points="1040.1 955.79 1036.9 952.13 1040.1 948.46 1043.3 952.13 1040.1 955.79"/><polygon points="1017.01 960.61 1013.81 956.94 1017.01 953.27 1020.21 956.94 1017.01 960.61"/><polygon points="1023.62 960.61 1020.41 956.94 1023.62 953.27 1026.82 956.94 1023.62 960.61"/><polygon points="1030.19 960.61 1026.99 956.94 1030.19 953.27 1033.39 956.94 1030.19 960.61"/><polygon points="1036.77 960.61 1033.57 956.94 1036.77 953.27 1039.97 956.94 1036.77 960.61"/><polygon points="1013.72 965.43 1010.51 961.77 1013.72 958.1 1016.92 961.77 1013.72 965.43"/><polygon points="1020.32 965.43 1017.12 961.77 1020.32 958.1 1023.52 961.77 1020.32 965.43"/><polygon points="1026.9 965.43 1023.69 961.77 1026.9 958.1 1030.1 961.77 1026.9 965.43"/><polygon points="1033.48 965.43 1030.28 961.77 1033.48 958.1 1036.68 961.77 1033.48 965.43"/><polygon points="1040.14 965.43 1036.94 961.77 1040.14 958.1 1043.34 961.77 1040.14 965.43"/><polygon points="1017.02 970.02 1013.82 966.35 1017.02 962.68 1020.22 966.35 1017.02 970.02"/><polygon points="1023.62 970.02 1020.42 966.35 1023.62 962.68 1026.83 966.35 1023.62 970.02"/><polygon points="1030.2 970.02 1026.99 966.35 1030.2 962.68 1033.4 966.35 1030.2 970.02"/><polygon points="1036.78 970.02 1033.58 966.35 1036.78 962.68 1039.98 966.35 1036.78 970.02"/><polygon points="1013.71 974.74 1010.51 971.08 1013.71 967.41 1016.91 971.08 1013.71 974.74"/><polygon points="1020.31 974.74 1017.11 971.08 1020.31 967.41 1023.52 971.08 1020.31 974.74"/><polygon points="1026.89 974.74 1023.68 971.08 1026.89 967.41 1030.09 971.08 1026.89 974.74"/><polygon points="1033.47 974.74 1030.27 971.08 1033.47 967.41 1036.67 971.08 1033.47 974.74"/><polygon points="1040.13 974.74 1036.93 971.08 1040.13 967.41 1043.34 971.08 1040.13 974.74"/><polygon points="1017 979.43 1013.8 975.76 1017 972.1 1020.21 975.76 1017 979.43"/><polygon points="1023.61 979.43 1020.4 975.76 1023.61 972.1 1026.81 975.76 1023.61 979.43"/><polygon points="1030.18 979.43 1026.98 975.76 1030.18 972.1 1033.38 975.76 1030.18 979.43"/><polygon points="1036.76 979.43 1033.56 975.76 1036.76 972.1 1039.97 975.76 1036.76 979.43"/><polygon points="1013.7 984.05 1010.5 980.39 1013.7 976.72 1016.9 980.39 1013.7 984.05"/><polygon points="1020.3 984.05 1017.1 980.39 1020.3 976.72 1023.51 980.39 1020.3 984.05"/><polygon points="1026.88 984.05 1023.68 980.39 1026.88 976.72 1030.08 980.39 1026.88 984.05"/><polygon points="1033.46 984.05 1030.26 980.39 1033.46 976.72 1036.66 980.39 1033.46 984.05"/><polygon points="1040.12 984.05 1036.92 980.39 1040.12 976.72 1043.33 980.39 1040.12 984.05"/><polygon points="1016.98 988.84 1013.77 985.17 1016.98 981.51 1020.18 985.17 1016.98 988.84"/><polygon points="1023.58 988.84 1020.38 985.17 1023.58 981.51 1026.79 985.17 1023.58 988.84"/><polygon points="1030.16 988.84 1026.95 985.17 1030.16 981.51 1033.36 985.17 1030.16 988.84"/><polygon points="1036.74 988.84 1033.54 985.17 1036.74 981.51 1039.94 985.17 1036.74 988.84"/><polygon points="1013.59 993.37 1010.38 989.7 1013.59 986.03 1016.79 989.7 1013.59 993.37"/><polygon points="1020.19 993.37 1016.99 989.7 1020.19 986.03 1023.39 989.7 1020.19 993.37"/><polygon points="1026.77 993.37 1023.56 989.7 1026.77 986.03 1029.97 989.7 1026.77 993.37"/><polygon points="1033.35 993.37 1030.15 989.7 1033.35 986.03 1036.55 989.7 1033.35 993.37"/><polygon points="1040.01 993.37 1036.81 989.7 1040.01 986.03 1043.21 989.7 1040.01 993.37"/><polygon points="1013.62 937.27 1010.42 933.6 1013.62 929.94 1016.83 933.6 1013.62 937.27"/><polygon points="1020.23 937.27 1017.02 933.6 1020.23 929.94 1023.43 933.6 1020.23 937.27"/><polygon points="1026.8 937.27 1023.6 933.6 1026.8 929.94 1030 933.6 1026.8 937.27"/><polygon points="1033.38 937.27 1030.18 933.6 1033.38 929.94 1036.59 933.6 1033.38 937.27"/><polygon points="1040.04 937.27 1036.84 933.6 1040.04 929.94 1043.25 933.6 1040.04 937.27"/></g><path d="M1040.14,932.24v-7.38H1035c0,.4-.07.65-.07.65a11.41,11.41,0,0,1-3.35-.65h-1.8a10.93,10.93,0,0,1-2.88,4.16,10.84,10.84,0,0,1-2.87-4.16h-1.72a11.41,11.41,0,0,1-3.35.65s0-.25-.08-.65h-5.25v7.38Z"/><path d="M1038.33,917.26a10.87,10.87,0,0,1-4.21,2.89,9.53,9.53,0,0,1,.8,4.27h5.22v-8.27h-3A10.08,10.08,0,0,1,1038.33,917.26Z"/><path d="M1015.4,917.26a10.87,10.87,0,0,0,4.21,2.89,9.39,9.39,0,0,0-.8,4.27h-5.22v-8.27h3A10.08,10.08,0,0,0,1015.4,917.26Z"/><path d="M1028.32,922.29a7.32,7.32,0,0,1-1.42-4.61l0,0,0,0a7.39,7.39,0,0,1-1.42,4.61,5.36,5.36,0,0,1-1.39,1.18,9.4,9.4,0,0,0,2.81,4.45,9.49,9.49,0,0,0,2.82-4.49A5.13,5.13,0,0,1,1028.32,922.29Z"/><path d="M1020.22,919.53a5.4,5.4,0,0,1,.67-1.06c1.88-2.26,5.47-2.41,5.8-2.42A7.62,7.62,0,0,0,1022,914c-3.08,0-5.59,2.94-5.59,2.94A10,10,0,0,0,1020.22,919.53Z"/><path d="M1032.84,918.54a5.4,5.4,0,0,1,.67,1.06,9.87,9.87,0,0,0,3.85-2.64s-2.5-2.94-5.59-2.94a7.66,7.66,0,0,0-4.73,2.09C1027.37,916.12,1031,916.27,1032.84,918.54Z"/><path d="M1024.91,919.06a6.22,6.22,0,0,1-3,.84,5.51,5.51,0,0,1-1.73-.3,9.5,9.5,0,0,0-.64,5.12,10,10,0,0,0,4.44-1.25,5.38,5.38,0,0,1-.13-1.14A6.38,6.38,0,0,1,1024.91,919.06Z"/><path d="M1028.71,919a6.47,6.47,0,0,1,1.06,3.33,5.62,5.62,0,0,1-.12,1.1,9.91,9.91,0,0,0,4.5,1.29,9.5,9.5,0,0,0-.64-5.12,5.52,5.52,0,0,1-1.74.3A6.26,6.26,0,0,1,1028.71,919Z"/><path d="M1013.56,990.41v7.38h5.17c0-.4.08-.65.08-.65a11.41,11.41,0,0,1,3.35.65h1.8a10.84,10.84,0,0,1,2.87-4.16,10.84,10.84,0,0,1,2.87,4.16h1.73a11.41,11.41,0,0,1,3.35-.65s0,.25.07.65h5.26v-7.38Z"/><path d="M1015.36,1005.39a10.86,10.86,0,0,1,4.22-2.89,9.55,9.55,0,0,1-.81-4.27h-5.21v8.27h3A10.81,10.81,0,0,1,1015.36,1005.39Z"/><path d="M1038.3,1005.39a10.86,10.86,0,0,0-4.22-2.89,9.41,9.41,0,0,0,.81-4.27h5.22v8.27h-3A11.23,11.23,0,0,0,1038.3,1005.39Z"/><path d="M1025.38,1000.36a7.31,7.31,0,0,1,1.41,4.61l0,0,0,0a7.32,7.32,0,0,1,1.42-4.61,5.36,5.36,0,0,1,1.39-1.18,9.48,9.48,0,0,0-2.81-4.45,9.41,9.41,0,0,0-2.82,4.49A5.3,5.3,0,0,1,1025.38,1000.36Z"/><path d="M1033.48,1003.12a5.4,5.4,0,0,1-.67,1.06c-1.88,2.26-5.47,2.41-5.8,2.42a7.59,7.59,0,0,0,4.73,2.1c3.09,0,5.59-2.94,5.59-2.94A9.76,9.76,0,0,0,1033.48,1003.12Z"/><path d="M1020.86,1004.11a5,5,0,0,1-.68-1.06,10,10,0,0,0-3.85,2.64s2.51,2.94,5.59,2.94a7.62,7.62,0,0,0,4.74-2.1C1026.32,1006.53,1022.74,1006.38,1020.86,1004.11Z"/><path d="M1028.78,1003.59a6.22,6.22,0,0,1,3-.84,5.57,5.57,0,0,1,1.74.3,9.61,9.61,0,0,0,.64-5.12,10,10,0,0,0-4.44,1.25,5.38,5.38,0,0,1,.13,1.14A6.39,6.39,0,0,1,1028.78,1003.59Z"/><path d="M1025,1003.65a6.38,6.38,0,0,1-1.06-3.33,4.94,4.94,0,0,1,.12-1.1,9.91,9.91,0,0,0-4.5-1.29,9.56,9.56,0,0,0,.63,5.12,5.63,5.63,0,0,1,1.74-.3A6.27,6.27,0,0,1,1025,1003.65Z"/><rect class="cls-5" x="1054.2" y="911.63" width="37.12" height="98.94" transform="translate(2145.52 1922.19) rotate(180)"/><g class="cls-7"><polygon points="1062.88 941.56 1059.67 937.89 1062.88 934.23 1066.08 937.89 1062.88 941.56"/><polygon points="1069.48 941.56 1066.28 937.89 1069.48 934.23 1072.68 937.89 1069.48 941.56"/><polygon points="1076.06 941.56 1072.85 937.89 1076.06 934.23 1079.26 937.89 1076.06 941.56"/><polygon points="1082.64 941.56 1079.43 937.89 1082.64 934.23 1085.84 937.89 1082.64 941.56"/><polygon points="1059.57 946.21 1056.36 942.55 1059.57 938.88 1062.77 942.55 1059.57 946.21"/><polygon points="1066.17 946.21 1062.97 942.55 1066.17 938.88 1069.37 942.55 1066.17 946.21"/><polygon points="1072.74 946.21 1069.54 942.55 1072.74 938.88 1075.95 942.55 1072.74 946.21"/><polygon points="1079.33 946.21 1076.13 942.55 1079.33 938.88 1082.53 942.55 1079.33 946.21"/><polygon points="1085.99 946.21 1082.79 942.55 1085.99 938.88 1089.19 942.55 1085.99 946.21"/><polygon points="1062.77 950.97 1059.57 947.3 1062.77 943.64 1065.97 947.3 1062.77 950.97"/><polygon points="1069.37 950.97 1066.17 947.3 1069.37 943.64 1072.58 947.3 1069.37 950.97"/><polygon points="1075.95 950.97 1072.74 947.3 1075.95 943.64 1079.15 947.3 1075.95 950.97"/><polygon points="1082.53 950.97 1079.33 947.3 1082.53 943.64 1085.73 947.3 1082.53 950.97"/><polygon points="1059.59 955.57 1056.38 951.9 1059.59 948.23 1062.79 951.9 1059.59 955.57"/><polygon points="1066.19 955.57 1062.99 951.9 1066.19 948.23 1069.39 951.9 1066.19 955.57"/><polygon points="1072.77 955.57 1069.56 951.9 1072.77 948.23 1075.97 951.9 1072.77 955.57"/><polygon points="1079.35 955.57 1076.15 951.9 1079.35 948.23 1082.55 951.9 1079.35 955.57"/><polygon points="1086.01 955.57 1082.81 951.9 1086.01 948.23 1089.21 951.9 1086.01 955.57"/><polygon points="1062.92 960.38 1059.72 956.71 1062.92 953.05 1066.13 956.71 1062.92 960.38"/><polygon points="1069.53 960.38 1066.32 956.71 1069.53 953.05 1072.73 956.71 1069.53 960.38"/><polygon points="1076.1 960.38 1072.9 956.71 1076.1 953.05 1079.3 956.71 1076.1 960.38"/><polygon points="1082.68 960.38 1079.48 956.71 1082.68 953.05 1085.89 956.71 1082.68 960.38"/><polygon points="1059.63 965.21 1056.43 961.54 1059.63 957.87 1062.83 961.54 1059.63 965.21"/><polygon points="1066.23 965.21 1063.03 961.54 1066.23 957.87 1069.44 961.54 1066.23 965.21"/><polygon points="1072.81 965.21 1069.61 961.54 1072.81 957.87 1076.01 961.54 1072.81 965.21"/><polygon points="1079.39 965.21 1076.19 961.54 1079.39 957.87 1082.59 961.54 1079.39 965.21"/><polygon points="1086.05 965.21 1082.85 961.54 1086.05 957.87 1089.26 961.54 1086.05 965.21"/><polygon points="1062.93 969.79 1059.73 966.12 1062.93 962.46 1066.13 966.12 1062.93 969.79"/><polygon points="1069.54 969.79 1066.33 966.12 1069.54 962.46 1072.74 966.12 1069.54 969.79"/><polygon points="1076.11 969.79 1072.91 966.12 1076.11 962.46 1079.31 966.12 1076.11 969.79"/><polygon points="1082.69 969.79 1079.49 966.12 1082.69 962.46 1085.9 966.12 1082.69 969.79"/><polygon points="1059.62 974.52 1056.42 970.85 1059.62 967.18 1062.83 970.85 1059.62 974.52"/><polygon points="1066.22 974.52 1063.02 970.85 1066.22 967.18 1069.43 970.85 1066.22 974.52"/><polygon points="1072.8 974.52 1069.6 970.85 1072.8 967.18 1076 970.85 1072.8 974.52"/><polygon points="1079.38 974.52 1076.18 970.85 1079.38 967.18 1082.59 970.85 1079.38 974.52"/><polygon points="1086.04 974.52 1082.84 970.85 1086.04 967.18 1089.25 970.85 1086.04 974.52"/><polygon points="1062.91 979.2 1059.71 975.53 1062.91 971.87 1066.12 975.53 1062.91 979.2"/><polygon points="1069.52 979.2 1066.32 975.53 1069.52 971.87 1072.72 975.53 1069.52 979.2"/><polygon points="1076.09 979.2 1072.89 975.53 1076.09 971.87 1079.3 975.53 1076.09 979.2"/><polygon points="1082.68 979.2 1079.47 975.53 1082.68 971.87 1085.88 975.53 1082.68 979.2"/><polygon points="1059.61 983.83 1056.41 980.16 1059.61 976.49 1062.82 980.16 1059.61 983.83"/><polygon points="1066.22 983.83 1063.01 980.16 1066.22 976.49 1069.42 980.16 1066.22 983.83"/><polygon points="1072.79 983.83 1069.59 980.16 1072.79 976.49 1075.99 980.16 1072.79 983.83"/><polygon points="1079.37 983.83 1076.17 980.16 1079.37 976.49 1082.58 980.16 1079.37 983.83"/><polygon points="1086.04 983.83 1082.83 980.16 1086.04 976.49 1089.24 980.16 1086.04 983.83"/><polygon points="1062.89 988.61 1059.69 984.95 1062.89 981.28 1066.09 984.95 1062.89 988.61"/><polygon points="1069.49 988.61 1066.29 984.95 1069.49 981.28 1072.7 984.95 1069.49 988.61"/><polygon points="1076.07 988.61 1072.87 984.95 1076.07 981.28 1079.27 984.95 1076.07 988.61"/><polygon points="1082.65 988.61 1079.45 984.95 1082.65 981.28 1085.85 984.95 1082.65 988.61"/><polygon points="1059.5 993.14 1056.3 989.47 1059.5 985.8 1062.7 989.47 1059.5 993.14"/><polygon points="1066.1 993.14 1062.9 989.47 1066.1 985.8 1069.31 989.47 1066.1 993.14"/><polygon points="1072.68 993.14 1069.47 989.47 1072.68 985.8 1075.88 989.47 1072.68 993.14"/><polygon points="1079.26 993.14 1076.06 989.47 1079.26 985.8 1082.46 989.47 1079.26 993.14"/><polygon points="1085.92 993.14 1082.72 989.47 1085.92 985.8 1089.13 989.47 1085.92 993.14"/><polygon points="1059.53 937.04 1056.33 933.38 1059.53 929.71 1062.74 933.38 1059.53 937.04"/><polygon points="1066.14 937.04 1062.93 933.38 1066.14 929.71 1069.34 933.38 1066.14 937.04"/><polygon points="1072.71 937.04 1069.51 933.38 1072.71 929.71 1075.91 933.38 1072.71 937.04"/><polygon points="1079.3 937.04 1076.09 933.38 1079.3 929.71 1082.5 933.38 1079.3 937.04"/><polygon points="1085.96 937.04 1082.75 933.38 1085.96 929.71 1089.16 933.38 1085.96 937.04"/></g><path d="M1086.05,932v-7.39h-5.17c0,.41-.08.65-.08.65a11.41,11.41,0,0,1-3.35-.65h-1.8a10.92,10.92,0,0,1-2.87,4.17,11,11,0,0,1-2.88-4.17h-1.72a11.41,11.41,0,0,1-3.35.65s0-.24-.08-.65h-5.25V932Z"/><path d="M1084.25,917a10.86,10.86,0,0,1-4.22,2.89,9.55,9.55,0,0,1,.81,4.27h5.21v-8.27h-3A12.16,12.16,0,0,1,1084.25,917Z"/><path d="M1061.31,917a10.86,10.86,0,0,0,4.22,2.89,9.41,9.41,0,0,0-.81,4.27h-5.22v-8.27h3A11.23,11.23,0,0,0,1061.31,917Z"/><path d="M1074.23,922.06a7.39,7.39,0,0,1-1.42-4.61l0,0,0,0a7.32,7.32,0,0,1-1.42,4.61,5.36,5.36,0,0,1-1.39,1.18,9.54,9.54,0,0,0,2.81,4.46,9.46,9.46,0,0,0,2.82-4.5A5.13,5.13,0,0,1,1074.23,922.06Z"/><path d="M1066.13,919.3a5.4,5.4,0,0,1,.67-1.06c1.88-2.26,5.47-2.41,5.8-2.42a7.61,7.61,0,0,0-4.73-2.09c-3.09,0-5.59,2.93-5.59,2.93A9.76,9.76,0,0,0,1066.13,919.3Z"/><path d="M1078.75,918.31a5.45,5.45,0,0,1,.68,1.06,10,10,0,0,0,3.85-2.64s-2.51-2.94-5.59-2.94a7.62,7.62,0,0,0-4.74,2.1C1073.28,915.9,1076.87,916.05,1078.75,918.31Z"/><path d="M1070.82,918.83a6.18,6.18,0,0,1-3,.84,5.57,5.57,0,0,1-1.74-.3,9.5,9.5,0,0,0-.64,5.12,10,10,0,0,0,4.44-1.25,5.38,5.38,0,0,1-.13-1.14A6.48,6.48,0,0,1,1070.82,918.83Z"/><path d="M1074.62,918.77a6.47,6.47,0,0,1,1.06,3.33,5.62,5.62,0,0,1-.12,1.1,9.91,9.91,0,0,0,4.5,1.29,9.56,9.56,0,0,0-.63-5.12,5.63,5.63,0,0,1-1.74.3A6.27,6.27,0,0,1,1074.62,918.77Z"/><path d="M1059.47,990.18v7.38h5.17c0-.4.08-.65.08-.65a11.82,11.82,0,0,1,3.35.65h1.8a10.84,10.84,0,0,1,2.87-4.16,10.93,10.93,0,0,1,2.88,4.16h1.72a11.82,11.82,0,0,1,3.35-.65s0,.25.08.65H1086v-7.38Z"/><path d="M1061.28,1005.16a10.78,10.78,0,0,1,4.21-2.89,9.39,9.39,0,0,1-.8-4.27h-5.22v8.27h3A10.08,10.08,0,0,1,1061.28,1005.16Z"/><path d="M1084.21,1005.16a10.86,10.86,0,0,0-4.22-2.89,9.41,9.41,0,0,0,.81-4.27H1086v8.27h-3A10.08,10.08,0,0,0,1084.21,1005.16Z"/><path d="M1071.29,1000.13a7.39,7.39,0,0,1,1.42,4.61l0,0,0,0a7.32,7.32,0,0,1,1.42-4.61,5.56,5.56,0,0,1,1.39-1.18,9.48,9.48,0,0,0-2.81-4.45A9.49,9.49,0,0,0,1070,999,5.33,5.33,0,0,1,1071.29,1000.13Z"/><path d="M1079.39,1002.89a5.4,5.4,0,0,1-.67,1.06c-1.88,2.26-5.47,2.41-5.8,2.42a7.61,7.61,0,0,0,4.73,2.1c3.09,0,5.59-2.94,5.59-2.94A9.87,9.87,0,0,0,1079.39,1002.89Z"/><path d="M1066.77,1003.88a5.33,5.33,0,0,1-.67-1,9.87,9.87,0,0,0-3.86,2.63s2.51,2.94,5.59,2.94a7.61,7.61,0,0,0,4.74-2.09C1072.24,1006.3,1068.65,1006.15,1066.77,1003.88Z"/><path d="M1074.7,1003.37a6.07,6.07,0,0,1,3-.84,5.25,5.25,0,0,1,1.74.3,9.5,9.5,0,0,0,.64-5.12,9.9,9.9,0,0,0-4.44,1.24,5.38,5.38,0,0,1,.13,1.14A6.54,6.54,0,0,1,1074.7,1003.37Z"/><path d="M1070.9,1003.42a6.47,6.47,0,0,1-1.06-3.33,5.7,5.7,0,0,1,.12-1.1,9.83,9.83,0,0,0-4.5-1.28,9.5,9.5,0,0,0,.64,5.12,5.24,5.24,0,0,1,1.73-.3A6.26,6.26,0,0,1,1070.9,1003.42Z"/><rect class="cls-8" x="1113.9" y="905.96" width="102.28" height="186.95"/><rect class="cls-9" x="1123.53" y="914.79" width="37.12" height="98.94"/><rect x="1128.8" y="954.81" width="5.85" height="5.85"/><rect x="1135.7" y="954.81" width="5.85" height="5.85"/><rect x="1142.6" y="954.81" width="5.85" height="5.85"/><rect x="1149.5" y="954.81" width="5.85" height="5.85"/><rect x="1128.8" y="947.94" width="5.85" height="5.85"/><rect x="1135.7" y="947.94" width="5.85" height="5.85"/><rect x="1142.6" y="947.94" width="5.85" height="5.85"/><rect x="1149.5" y="947.94" width="5.85" height="5.85"/><rect x="1128.8" y="940.98" width="5.85" height="5.85"/><rect x="1135.7" y="940.98" width="5.85" height="5.85"/><rect x="1142.6" y="940.98" width="5.85" height="5.85"/><rect x="1149.5" y="940.98" width="5.85" height="5.85"/><rect x="1128.8" y="961.68" width="5.85" height="5.85"/><rect x="1135.7" y="961.68" width="5.85" height="5.85"/><rect x="1142.6" y="961.68" width="5.85" height="5.85"/><rect x="1149.5" y="961.68" width="5.85" height="5.85"/><rect x="1128.8" y="968.52" width="5.85" height="5.85"/><rect x="1135.7" y="968.52" width="5.85" height="5.85"/><rect x="1142.6" y="968.52" width="5.85" height="5.85"/><rect x="1149.5" y="968.52" width="5.85" height="5.85"/><rect x="1128.8" y="975.31" width="5.85" height="5.85"/><rect x="1135.7" y="975.31" width="5.85" height="5.85"/><rect x="1142.6" y="975.31" width="5.85" height="5.85"/><rect x="1149.5" y="975.31" width="5.85" height="5.85"/><rect x="1128.8" y="982.11" width="5.85" height="5.85"/><rect x="1135.7" y="982.11" width="5.85" height="5.85"/><rect x="1142.6" y="982.11" width="5.85" height="5.85"/><rect x="1149.5" y="982.11" width="5.85" height="5.85"/><rect x="1128.8" y="988.66" width="3.84" height="3.84"/><rect x="1133.33" y="988.66" width="3.84" height="3.84"/><rect x="1137.86" y="988.66" width="3.84" height="3.84"/><rect x="1142.39" y="988.66" width="3.84" height="3.84"/><rect x="1146.98" y="988.66" width="3.84" height="3.84"/><rect x="1151.51" y="988.66" width="3.84" height="3.84"/><rect x="1128.8" y="936.21" width="3.84" height="3.84"/><rect x="1133.33" y="936.21" width="3.84" height="3.84"/><rect x="1137.86" y="936.21" width="3.84" height="3.84"/><rect x="1142.39" y="936.21" width="3.84" height="3.84"/><rect x="1146.98" y="936.21" width="3.84" height="3.84"/><rect x="1151.51" y="936.21" width="3.84" height="3.84"/><path d="M1128.8,993.25v7.39H1134c0-.41.08-.65.08-.65a11.41,11.41,0,0,1,3.35.65h1.8a10.89,10.89,0,0,1,2.88-4.17,10.92,10.92,0,0,1,2.87,4.17h1.72a11.41,11.41,0,0,1,3.35-.65s0,.24.08.65h5.25v-7.39Z"/><path d="M1130.61,1008.24a10.87,10.87,0,0,1,4.21-2.89,9.53,9.53,0,0,1-.8-4.27h-5.22v8.27h3A11.23,11.23,0,0,1,1130.61,1008.24Z"/><path d="M1153.54,1008.24a10.87,10.87,0,0,0-4.21-2.89,9.39,9.39,0,0,0,.8-4.27h5.22v8.27h-3A11.23,11.23,0,0,0,1153.54,1008.24Z"/><path d="M1140.62,1003.21a7.32,7.32,0,0,1,1.42,4.61l0,0,0,0a7.39,7.39,0,0,1,1.42-4.61,5.36,5.36,0,0,1,1.39-1.18,9.46,9.46,0,0,0-2.81-4.46,9.55,9.55,0,0,0-2.82,4.5A5.13,5.13,0,0,1,1140.62,1003.21Z"/><path d="M1148.72,1006a5.4,5.4,0,0,1-.67,1.06c-1.88,2.26-5.47,2.41-5.8,2.42a7.61,7.61,0,0,0,4.73,2.09c3.09,0,5.6-2.93,5.6-2.93A9.84,9.84,0,0,0,1148.72,1006Z"/><path d="M1136.1,1007a5.4,5.4,0,0,1-.67-1.06,9.87,9.87,0,0,0-3.85,2.64s2.5,2.94,5.59,2.94a7.61,7.61,0,0,0,4.73-2.1C1141.57,1009.37,1138,1009.22,1136.1,1007Z"/><path d="M1144,1006.44a6.22,6.22,0,0,1,3-.84,5.52,5.52,0,0,1,1.74.3,9.5,9.5,0,0,0,.64-5.12,10,10,0,0,0-4.44,1.25,5.38,5.38,0,0,1,.13,1.14A6.38,6.38,0,0,1,1144,1006.44Z"/><path d="M1140.23,1006.5a6.47,6.47,0,0,1-1.06-3.33,5.62,5.62,0,0,1,.12-1.1,9.91,9.91,0,0,0-4.5-1.29,9.5,9.5,0,0,0,.64,5.12,5.52,5.52,0,0,1,1.74-.3A6.26,6.26,0,0,1,1140.23,1006.5Z"/><path d="M1155.38,935.27v-7.38h-5.17c0,.4-.08.65-.08.65a11.41,11.41,0,0,1-3.35-.65H1145a10.84,10.84,0,0,1-2.87,4.16,10.84,10.84,0,0,1-2.87-4.16h-1.73a11.41,11.41,0,0,1-3.35.65s0-.25-.07-.65h-5.26v7.38Z"/><path d="M1153.58,920.29a10.86,10.86,0,0,1-4.22,2.89,9.55,9.55,0,0,1,.81,4.27h5.21v-8.27h-3A9.75,9.75,0,0,1,1153.58,920.29Z"/><path d="M1130.64,920.29a10.86,10.86,0,0,0,4.22,2.89,9.41,9.41,0,0,0-.81,4.27h-5.22v-8.27h3A10.08,10.08,0,0,0,1130.64,920.29Z"/><path d="M1143.56,925.32a7.31,7.31,0,0,1-1.41-4.61l0,0,0,0a7.32,7.32,0,0,1-1.42,4.61,5.36,5.36,0,0,1-1.39,1.18,9.48,9.48,0,0,0,2.81,4.45,9.41,9.41,0,0,0,2.82-4.49A5.3,5.3,0,0,1,1143.56,925.32Z"/><path d="M1135.46,922.56a5.4,5.4,0,0,1,.67-1.06c1.88-2.26,5.47-2.41,5.8-2.42a7.59,7.59,0,0,0-4.73-2.1c-3.09,0-5.59,2.94-5.59,2.94A9.87,9.87,0,0,0,1135.46,922.56Z"/><path d="M1148.08,921.57a5.45,5.45,0,0,1,.68,1.06,10,10,0,0,0,3.85-2.64s-2.51-2.94-5.59-2.94a7.66,7.66,0,0,0-4.74,2.09C1142.62,919.15,1146.2,919.3,1148.08,921.57Z"/><path d="M1140.16,922.09a6.22,6.22,0,0,1-3,.84,5.57,5.57,0,0,1-1.74-.3,9.61,9.61,0,0,0-.64,5.12,10,10,0,0,0,4.44-1.25,5.38,5.38,0,0,1-.13-1.14A6.39,6.39,0,0,1,1140.16,922.09Z"/><path d="M1144,922a6.38,6.38,0,0,1,1.06,3.33,4.94,4.94,0,0,1-.12,1.1,9.91,9.91,0,0,0,4.5,1.29,9.56,9.56,0,0,0-.63-5.12,5.63,5.63,0,0,1-1.74.3A6.27,6.27,0,0,1,1144,922Z"/><rect class="cls-9" x="1169.43" y="914.85" width="37.12" height="98.94" transform="translate(2375.98 1928.65) rotate(180)"/><rect x="1174.7" y="954.87" width="5.85" height="5.85"/><rect x="1181.6" y="954.87" width="5.85" height="5.85"/><rect x="1188.5" y="954.87" width="5.85" height="5.85"/><rect x="1195.4" y="954.87" width="5.85" height="5.85"/><rect x="1174.7" y="948" width="5.85" height="5.85"/><rect x="1181.6" y="948" width="5.85" height="5.85"/><rect x="1188.5" y="948" width="5.85" height="5.85"/><rect x="1195.4" y="948" width="5.85" height="5.85"/><rect x="1174.7" y="941.04" width="5.85" height="5.85"/><rect x="1181.6" y="941.04" width="5.85" height="5.85"/><rect x="1188.5" y="941.04" width="5.85" height="5.85"/><rect x="1195.4" y="941.04" width="5.85" height="5.85"/><rect x="1174.7" y="961.74" width="5.85" height="5.85"/><rect x="1181.6" y="961.74" width="5.85" height="5.85"/><rect x="1188.5" y="961.74" width="5.85" height="5.85"/><rect x="1195.4" y="961.74" width="5.85" height="5.85"/><rect x="1174.7" y="968.58" width="5.85" height="5.85"/><rect x="1181.6" y="968.58" width="5.85" height="5.85"/><rect x="1188.5" y="968.58" width="5.85" height="5.85"/><rect x="1195.4" y="968.58" width="5.85" height="5.85"/><rect x="1174.7" y="975.37" width="5.85" height="5.85"/><rect x="1181.6" y="975.37" width="5.85" height="5.85"/><rect x="1188.5" y="975.37" width="5.85" height="5.85"/><rect x="1195.4" y="975.37" width="5.85" height="5.85"/><rect x="1174.7" y="982.17" width="5.85" height="5.85"/><rect x="1181.6" y="982.17" width="5.85" height="5.85"/><rect x="1188.5" y="982.17" width="5.85" height="5.85"/><rect x="1195.4" y="982.17" width="5.85" height="5.85"/><rect x="1174.7" y="988.72" width="3.84" height="3.84"/><rect x="1179.23" y="988.72" width="3.84" height="3.84"/><rect x="1183.76" y="988.72" width="3.84" height="3.84"/><rect x="1188.29" y="988.72" width="3.84" height="3.84"/><rect x="1192.88" y="988.72" width="3.84" height="3.84"/><rect x="1197.41" y="988.72" width="3.84" height="3.84"/><rect x="1174.7" y="936.27" width="3.84" height="3.84"/><rect x="1179.23" y="936.27" width="3.84" height="3.84"/><rect x="1183.76" y="936.27" width="3.84" height="3.84"/><rect x="1188.29" y="936.27" width="3.84" height="3.84"/><rect x="1192.88" y="936.27" width="3.84" height="3.84"/><rect x="1197.41" y="936.27" width="3.84" height="3.84"/><path d="M1174.7,993.31v7.39h5.17c0-.41.08-.65.08-.65a11.41,11.41,0,0,1,3.35.65h1.8a10.92,10.92,0,0,1,2.87-4.17,10.92,10.92,0,0,1,2.87,4.17h1.73a11.41,11.41,0,0,1,3.35-.65s0,.24.08.65h5.25v-7.39Z"/><path d="M1176.5,1008.3a10.86,10.86,0,0,1,4.22-2.89,9.57,9.57,0,0,1-.81-4.27h-5.21v8.27h3A12.16,12.16,0,0,1,1176.5,1008.3Z"/><path d="M1199.44,1008.3a10.86,10.86,0,0,0-4.22-2.89,9.44,9.44,0,0,0,.81-4.27h5.22v8.27h-3A11.23,11.23,0,0,0,1199.44,1008.3Z"/><path d="M1186.52,1003.26a7.43,7.43,0,0,1,1.42,4.62l0,0,0,0a7.37,7.37,0,0,1,1.42-4.62,5.51,5.51,0,0,1,1.39-1.17,9.54,9.54,0,0,0-2.81-4.46,9.4,9.4,0,0,0-2.82,4.5A5.47,5.47,0,0,1,1186.52,1003.26Z"/><path d="M1194.62,1006a5.33,5.33,0,0,1-.67,1.05c-1.88,2.27-5.47,2.42-5.8,2.43a7.61,7.61,0,0,0,4.73,2.09c3.09,0,5.59-2.94,5.59-2.94A9.79,9.79,0,0,0,1194.62,1006Z"/><path d="M1182,1007a5.45,5.45,0,0,1-.68-1.06,10,10,0,0,0-3.85,2.64s2.51,2.94,5.59,2.94a7.62,7.62,0,0,0,4.74-2.1C1187.47,1009.43,1183.88,1009.28,1182,1007Z"/><path d="M1189.92,1006.5a6.25,6.25,0,0,1,3-.84,5.57,5.57,0,0,1,1.74.3,9.5,9.5,0,0,0,.64-5.12,10,10,0,0,0-4.44,1.25,5.22,5.22,0,0,1,.13,1.13A6.39,6.39,0,0,1,1189.92,1006.5Z"/><path d="M1186.13,1006.56a6.39,6.39,0,0,1-1.06-3.34,5.6,5.6,0,0,1,.12-1.09,9.76,9.76,0,0,0-4.5-1.29,9.56,9.56,0,0,0,.63,5.12,5.63,5.63,0,0,1,1.74-.3A6.27,6.27,0,0,1,1186.13,1006.56Z"/><path d="M1201.28,935.33V928h-5.17c0,.4-.08.65-.08.65a11.82,11.82,0,0,1-3.35-.65h-1.8a10.84,10.84,0,0,1-2.87,4.16,10.81,10.81,0,0,1-2.88-4.16h-1.72a11.82,11.82,0,0,1-3.35.65s0-.25-.08-.65h-5.25v7.38Z"/><path d="M1199.47,920.35a10.87,10.87,0,0,1-4.21,2.89,9.39,9.39,0,0,1,.8,4.27h5.22v-8.27h-3A10.08,10.08,0,0,1,1199.47,920.35Z"/><path d="M1176.54,920.35a10.87,10.87,0,0,0,4.21,2.89,9.53,9.53,0,0,0-.8,4.27h-5.22v-8.27h3A10.08,10.08,0,0,0,1176.54,920.35Z"/><path d="M1189.46,925.38a7.39,7.39,0,0,1-1.42-4.61l0,0,0,0a7.32,7.32,0,0,1-1.42,4.61,5.56,5.56,0,0,1-1.39,1.18A9.48,9.48,0,0,0,1188,931a9.49,9.49,0,0,0,2.82-4.49A5.33,5.33,0,0,1,1189.46,925.38Z"/><path d="M1181.36,922.62a5.4,5.4,0,0,1,.67-1.06c1.88-2.26,5.47-2.41,5.8-2.42a7.61,7.61,0,0,0-4.73-2.1c-3.09,0-5.59,2.94-5.59,2.94A9.87,9.87,0,0,0,1181.36,922.62Z"/><path d="M1194,921.63a5.12,5.12,0,0,1,.67,1.06,10,10,0,0,0,3.86-2.64s-2.51-2.94-5.6-2.94a7.61,7.61,0,0,0-4.73,2.09C1188.51,919.21,1192.1,919.36,1194,921.63Z"/><path d="M1186.05,922.14a6.1,6.1,0,0,1-3,.84,5.52,5.52,0,0,1-1.74-.29,9.47,9.47,0,0,0-.64,5.11,9.9,9.9,0,0,0,4.44-1.24,5.38,5.38,0,0,1-.13-1.14A6.54,6.54,0,0,1,1186.05,922.14Z"/><path d="M1189.85,922.09a6.47,6.47,0,0,1,1.06,3.33,5.7,5.7,0,0,1-.12,1.1,9.83,9.83,0,0,0,4.5,1.28,9.47,9.47,0,0,0-.64-5.11,5.52,5.52,0,0,1-1.74.29A6.26,6.26,0,0,1,1189.85,922.09Z"/><rect class="cls-3" x="391.48" y="336.4" width="1431.92" height="1230.43"/><rect class="cls-3" x="241.93" y="207.89" width="1731.03" height="1487.45"/><rect class="cls-3" x="97.5" y="83.78" width="2019.89" height="1735.66"/></svg>