<svg id="Layer_1" data-name="Layer 1" xmlns="http://www.w3.org/2000/svg" xmlns:xlink="http://www.w3.org/1999/xlink" viewBox="0 0 2214.89 1903.23"><defs><style>.cls-1,.cls-3{fill:none;}.cls-2{fill:url(#radial-gradient);}.cls-3{stroke:#005775;stroke-miterlimit:10;stroke-width:6px;}.cls-4{fill:#ff9b17;}.cls-5{fill:#d2eff9;}.cls-6{clip-path:url(#clip-path);}.cls-7{clip-path:url(#clip-path-2);}.cls-8{fill:#005775;}.cls-9{fill:#ffeecf;}</style><radialGradient id="radial-gradient" cx="1103.06" cy="947.17" r="1032.47" gradientUnits="userSpaceOnUse"><stop offset="0.49" stop-color="#d2eff9"/><stop offset="0.66" stop-color="#e3d0a6"/><stop offset="0.82" stop-color="#f2b45a"/><stop offset="0.94" stop-color="#fba229"/><stop offset="1" stop-color="#ff9b17"/></radialGradient><clipPath id="clip-path"><rect class="cls-1" x="926.07" y="914.35" width="50.07" height="106.57"/></clipPath><clipPath id="clip-path-2"><rect class="cls-1" x="1012.65" y="913.92" width="50.07" height="106.57"/></clipPath></defs><rect class="cls-2" x="-4.38" y="-4.44" width="2214.89" height="1903.23"/><rect class="cls-3" x="-4.38" y="-4.44" width="2214.89" height="1903.23"/><rect class="cls-4" x="898.02" y="863.17" width="192.7" height="352.23"/><rect class="cls-5" x="916.08" y="874.12" width="70" height="186.58"/><g class="cls-6"><polygon points="932.44 930.57 926.4 923.65 932.44 916.74 938.48 923.65 932.44 930.57"/><polygon points="944.89 930.57 938.86 923.65 944.89 916.74 950.93 923.65 944.89 930.57"/><polygon points="957.29 930.57 951.25 923.65 957.29 916.74 963.33 923.65 957.29 930.57"/><polygon points="969.71 930.57 963.67 923.65 969.71 916.74 975.75 923.65 969.71 930.57"/><polygon points="926.2 939.35 920.16 932.43 926.2 925.52 932.24 932.43 926.2 939.35"/><polygon points="938.65 939.35 932.61 932.43 938.65 925.52 944.69 932.43 938.65 939.35"/><polygon points="951.05 939.35 945.01 932.43 951.05 925.52 957.09 932.43 951.05 939.35"/><polygon points="963.46 939.35 957.42 932.43 963.46 925.52 969.5 932.43 963.46 939.35"/><polygon points="976.03 939.35 969.99 932.43 976.03 925.52 982.07 932.43 976.03 939.35"/><polygon points="932.24 948.32 926.2 941.4 932.24 934.49 938.28 941.4 932.24 948.32"/><polygon points="944.69 948.32 938.65 941.4 944.69 934.49 950.73 941.4 944.69 948.32"/><polygon points="957.09 948.32 951.05 941.4 957.09 934.49 963.13 941.4 957.09 948.32"/><polygon points="969.5 948.32 963.46 941.4 969.5 934.49 975.54 941.4 969.5 948.32"/><polygon points="926.24 956.98 920.2 950.07 926.24 943.15 932.28 950.07 926.24 956.98"/><polygon points="938.69 956.98 932.65 950.07 938.69 943.15 944.73 950.07 938.69 956.98"/><polygon points="951.09 956.98 945.05 950.07 951.09 943.15 957.13 950.07 951.09 956.98"/><polygon points="963.5 956.98 957.47 950.07 963.5 943.15 969.54 950.07 963.5 956.98"/><polygon points="976.07 956.98 970.03 950.07 976.07 943.15 982.11 950.07 976.07 956.98"/><polygon points="932.53 966.06 926.49 959.15 932.53 952.23 938.57 959.15 932.53 966.06"/><polygon points="944.98 966.06 938.94 959.15 944.98 952.23 951.02 959.15 944.98 966.06"/><polygon points="957.38 966.06 951.34 959.15 957.38 952.23 963.42 959.15 957.38 966.06"/><polygon points="969.79 966.06 963.75 959.15 969.79 952.23 975.83 959.15 969.79 966.06"/><polygon points="926.32 975.16 920.28 968.24 926.32 961.33 932.36 968.24 926.32 975.16"/><polygon points="938.77 975.16 932.73 968.24 938.77 961.33 944.81 968.24 938.77 975.16"/><polygon points="951.17 975.16 945.13 968.24 951.17 961.33 957.21 968.24 951.17 975.16"/><polygon points="963.58 975.16 957.54 968.24 963.58 961.33 969.62 968.24 963.58 975.16"/><polygon points="976.14 975.16 970.11 968.24 976.14 961.33 982.18 968.24 976.14 975.16"/><polygon points="932.54 983.81 926.5 976.89 932.54 969.98 938.59 976.89 932.54 983.81"/><polygon points="945 983.81 938.96 976.89 945 969.98 951.04 976.89 945 983.81"/><polygon points="957.39 983.81 951.36 976.89 957.39 969.98 963.43 976.89 957.39 983.81"/><polygon points="969.81 983.81 963.77 976.89 969.81 969.98 975.85 976.89 969.81 983.81"/><polygon points="926.3 992.72 920.26 985.8 926.3 978.89 932.34 985.8 926.3 992.72"/><polygon points="938.76 992.72 932.72 985.8 938.76 978.89 944.8 985.8 938.76 992.72"/><polygon points="951.15 992.72 945.11 985.8 951.15 978.89 957.19 985.8 951.15 992.72"/><polygon points="963.57 992.72 957.53 985.8 963.57 978.89 969.61 985.8 963.57 992.72"/><polygon points="976.13 992.72 970.09 985.8 976.13 978.89 982.17 985.8 976.13 992.72"/><polygon points="932.51 1001.55 926.47 994.64 932.51 987.72 938.55 994.64 932.51 1001.55"/><polygon points="944.97 1001.55 938.93 994.64 944.97 987.72 951.01 994.64 944.97 1001.55"/><polygon points="957.36 1001.55 951.32 994.64 957.36 987.72 963.4 994.64 957.36 1001.55"/><polygon points="969.78 1001.55 963.74 994.64 969.78 987.72 975.82 994.64 969.78 1001.55"/><polygon points="926.29 1010.28 920.25 1003.36 926.29 996.45 932.33 1003.36 926.29 1010.28"/><polygon points="938.74 1010.28 932.7 1003.36 938.74 996.45 944.78 1003.36 938.74 1010.28"/><polygon points="951.14 1010.28 945.1 1003.36 951.14 996.45 957.18 1003.36 951.14 1010.28"/><polygon points="963.55 1010.28 957.51 1003.36 963.55 996.45 969.59 1003.36 963.55 1010.28"/><polygon points="976.11 1010.28 970.07 1003.36 976.11 996.45 982.15 1003.36 976.11 1010.28"/><polygon points="932.47 1019.3 926.43 1012.38 932.47 1005.47 938.51 1012.38 932.47 1019.3"/><polygon points="944.92 1019.3 938.88 1012.38 944.92 1005.47 950.96 1012.38 944.92 1019.3"/><polygon points="957.32 1019.3 951.28 1012.38 957.32 1005.47 963.36 1012.38 957.32 1019.3"/><polygon points="969.73 1019.3 963.69 1012.38 969.73 1005.47 975.77 1012.38 969.73 1019.3"/><polygon points="926.08 1027.84 920.03 1020.92 926.08 1014.01 932.12 1020.92 926.08 1027.84"/><polygon points="938.53 1027.84 932.49 1020.92 938.53 1014.01 944.57 1020.92 938.53 1027.84"/><polygon points="950.92 1027.84 944.88 1020.92 950.92 1014.01 956.97 1020.92 950.92 1027.84"/><polygon points="963.34 1027.84 957.3 1020.92 963.34 1014.01 969.38 1020.92 963.34 1027.84"/><polygon points="975.9 1027.84 969.86 1020.92 975.9 1014.01 981.94 1020.92 975.9 1027.84"/><polygon points="926.14 922.05 920.1 915.14 926.14 908.22 932.18 915.14 926.14 922.05"/><polygon points="938.59 922.05 932.55 915.14 938.59 908.22 944.63 915.14 938.59 922.05"/><polygon points="950.99 922.05 944.95 915.14 950.99 908.22 957.03 915.14 950.99 922.05"/><polygon points="963.4 922.05 957.36 915.14 963.4 908.22 969.44 915.14 963.4 922.05"/><polygon points="975.96 922.05 969.92 915.14 975.96 908.22 982 915.14 975.96 922.05"/></g><path d="M976.15,912.57V898.65h-9.76c-.07.76-.15,1.22-.15,1.22a21.72,21.72,0,0,1-6.32-1.22h-3.39a20.56,20.56,0,0,1-5.42,7.85,20.56,20.56,0,0,1-5.42-7.85h-3.24a21.77,21.77,0,0,1-6.32,1.22s-.08-.46-.15-1.22h-9.91v13.92Z"/><path d="M972.74,884.31a20.5,20.5,0,0,1-8,5.46,17.78,17.78,0,0,1,1.53,8.05h9.84v-15.6h-5.59A20.77,20.77,0,0,1,972.74,884.31Z"/><path d="M929.48,884.31a20.5,20.5,0,0,0,8,5.46,17.78,17.78,0,0,0-1.53,8.05h-9.84v-15.6h5.59A20.77,20.77,0,0,0,929.48,884.31Z"/><path d="M953.85,893.81c-2.19-2.64-2.66-6.21-2.67-8.7l-.07-.07-.07.07c0,2.49-.48,6.06-2.67,8.7a10.64,10.64,0,0,1-2.63,2.22c1.07,4.79,5.3,8.4,5.3,8.4s4.27-3.65,5.31-8.48A10.53,10.53,0,0,1,953.85,893.81Z"/><path d="M938.57,888.6a10.37,10.37,0,0,1,1.27-2c3.55-4.27,10.31-4.55,10.94-4.57-1.86-1.63-5.16-3.95-8.93-3.95-5.82,0-10.54,5.54-10.54,5.54A18.69,18.69,0,0,0,938.57,888.6Z"/><path d="M962.38,886.73a10,10,0,0,1,1.27,2,18.61,18.61,0,0,0,7.26-5s-4.72-5.54-10.54-5.54c-3.77,0-7.07,2.31-8.93,3.95C952.07,882.18,958.83,882.46,962.38,886.73Z"/><path d="M947.43,887.71a11.69,11.69,0,0,1-5.58,1.58,10.27,10.27,0,0,1-3.28-.57c-2.12,4.34-1.2,9.66-1.2,9.66a18.81,18.81,0,0,0,8.37-2.35,10.19,10.19,0,0,1-.24-2.15A12.07,12.07,0,0,1,947.43,887.71Z"/><path d="M954.59,887.6a12.14,12.14,0,0,1,2,6.28,9.45,9.45,0,0,1-.23,2.07,18.68,18.68,0,0,0,8.5,2.43s.92-5.32-1.2-9.66a10.27,10.27,0,0,1-3.28.57A11.85,11.85,0,0,1,954.59,887.6Z"/><path d="M926,1022.25v13.93h9.76c.07-.77.15-1.23.15-1.23a21.6,21.6,0,0,1,6.32,1.23h3.39a20.46,20.46,0,0,1,5.42-7.85,20.37,20.37,0,0,1,5.41,7.85h3.25A21.6,21.6,0,0,1,966,1035s.08.46.15,1.23h9.9v-13.93Z"/><path d="M929.42,1050.51a20.42,20.42,0,0,1,8-5.45,17.83,17.83,0,0,1-1.53-8H926v15.59h5.59A19.58,19.58,0,0,1,929.42,1050.51Z"/><path d="M972.68,1050.51a20.42,20.42,0,0,0-8-5.45,17.83,17.83,0,0,0,1.53-8h9.83v15.59H970.5A20.77,20.77,0,0,0,972.68,1050.51Z"/><path d="M948.31,1041c2.19,2.64,2.65,6.21,2.67,8.7l.07.06.07-.06c0-2.49.48-6.06,2.67-8.7a10.26,10.26,0,0,1,2.63-2.22c-1.07-4.8-5.3-8.4-5.3-8.4s-4.27,3.64-5.32,8.47A10.21,10.21,0,0,1,948.31,1041Z"/><path d="M963.59,1046.22a10.55,10.55,0,0,1-1.27,2c-3.55,4.27-10.31,4.55-10.94,4.57,1.86,1.64,5.16,4,8.93,4,5.82,0,10.54-5.54,10.54-5.54A18.69,18.69,0,0,0,963.59,1046.22Z"/><path d="M939.78,1048.1a10.07,10.07,0,0,1-1.27-2,18.69,18.69,0,0,0-7.26,5s4.72,5.54,10.54,5.54c3.77,0,7.06-2.32,8.93-3.95C950.09,1052.65,943.33,1052.37,939.78,1048.1Z"/><path d="M954.73,1047.12a11.69,11.69,0,0,1,5.58-1.58,10.55,10.55,0,0,1,3.28.56c2.12-4.34,1.2-9.65,1.2-9.65a18.63,18.63,0,0,0-8.37,2.35,10.1,10.1,0,0,1,.24,2.14A12.13,12.13,0,0,1,954.73,1047.12Z"/><path d="M947.57,1047.23a12.2,12.2,0,0,1-2-6.29,10.1,10.1,0,0,1,.22-2.07,18.58,18.58,0,0,0-8.49-2.42s-.92,5.31,1.2,9.65a10.5,10.5,0,0,1,3.28-.56A11.74,11.74,0,0,1,947.57,1047.23Z"/><rect class="cls-5" x="1002.66" y="873.69" width="70" height="186.58" transform="translate(2075.32 1933.97) rotate(180)"/><g class="cls-7"><polygon points="1019.02 930.14 1012.98 923.23 1019.02 916.31 1025.06 923.23 1019.02 930.14"/><polygon points="1031.47 930.14 1025.43 923.23 1031.47 916.31 1037.51 923.23 1031.47 930.14"/><polygon points="1043.87 930.14 1037.83 923.23 1043.87 916.31 1049.91 923.23 1043.87 930.14"/><polygon points="1056.28 930.14 1050.24 923.23 1056.28 916.31 1062.32 923.23 1056.28 930.14"/><polygon points="1012.78 938.92 1006.74 932 1012.78 925.09 1018.82 932 1012.78 938.92"/><polygon points="1025.23 938.92 1019.19 932 1025.23 925.09 1031.27 932 1025.23 938.92"/><polygon points="1037.63 938.92 1031.59 932 1037.63 925.09 1043.67 932 1037.63 938.92"/><polygon points="1050.04 938.92 1044 932 1050.04 925.09 1056.08 932 1050.04 938.92"/><polygon points="1062.6 938.92 1056.57 932 1062.6 925.09 1068.64 932 1062.6 938.92"/><polygon points="1018.82 947.89 1012.78 940.97 1018.82 934.06 1024.86 940.97 1018.82 947.89"/><polygon points="1031.27 947.89 1025.23 940.97 1031.27 934.06 1037.31 940.97 1031.27 947.89"/><polygon points="1043.67 947.89 1037.63 940.97 1043.67 934.06 1049.71 940.97 1043.67 947.89"/><polygon points="1056.08 947.89 1050.04 940.97 1056.08 934.06 1062.12 940.97 1056.08 947.89"/><polygon points="1012.82 956.55 1006.78 949.64 1012.82 942.72 1018.86 949.64 1012.82 956.55"/><polygon points="1025.27 956.55 1019.23 949.64 1025.27 942.72 1031.31 949.64 1025.27 956.55"/><polygon points="1037.67 956.55 1031.63 949.64 1037.67 942.72 1043.71 949.64 1037.67 956.55"/><polygon points="1050.08 956.55 1044.04 949.64 1050.08 942.72 1056.12 949.64 1050.08 956.55"/><polygon points="1062.64 956.55 1056.61 949.64 1062.64 942.72 1068.68 949.64 1062.64 956.55"/><polygon points="1019.11 965.63 1013.07 958.72 1019.11 951.8 1025.15 958.72 1019.11 965.63"/><polygon points="1031.56 965.63 1025.52 958.72 1031.56 951.8 1037.6 958.72 1031.56 965.63"/><polygon points="1043.96 965.63 1037.92 958.72 1043.96 951.8 1050 958.72 1043.96 965.63"/><polygon points="1056.37 965.63 1050.33 958.72 1056.37 951.8 1062.41 958.72 1056.37 965.63"/><polygon points="1012.9 974.73 1006.86 967.82 1012.9 960.9 1018.94 967.82 1012.9 974.73"/><polygon points="1025.35 974.73 1019.31 967.82 1025.35 960.9 1031.39 967.82 1025.35 974.73"/><polygon points="1037.75 974.73 1031.71 967.82 1037.75 960.9 1043.79 967.82 1037.75 974.73"/><polygon points="1050.16 974.73 1044.12 967.82 1050.16 960.9 1056.2 967.82 1050.16 974.73"/><polygon points="1062.72 974.73 1056.68 967.82 1062.72 960.9 1068.76 967.82 1062.72 974.73"/><polygon points="1019.12 983.38 1013.08 976.46 1019.12 969.55 1025.16 976.46 1019.12 983.38"/><polygon points="1031.58 983.38 1025.54 976.46 1031.58 969.55 1037.62 976.46 1031.58 983.38"/><polygon points="1043.97 983.38 1037.93 976.46 1043.97 969.55 1050.01 976.46 1043.97 983.38"/><polygon points="1056.39 983.38 1050.35 976.46 1056.39 969.55 1062.43 976.46 1056.39 983.38"/><polygon points="1012.88 992.29 1006.84 985.37 1012.88 978.46 1018.92 985.37 1012.88 992.29"/><polygon points="1025.34 992.29 1019.29 985.37 1025.34 978.46 1031.38 985.37 1025.34 992.29"/><polygon points="1037.73 992.29 1031.69 985.37 1037.73 978.46 1043.77 985.37 1037.73 992.29"/><polygon points="1050.15 992.29 1044.11 985.37 1050.15 978.46 1056.19 985.37 1050.15 992.29"/><polygon points="1062.71 992.29 1056.67 985.37 1062.71 978.46 1068.75 985.37 1062.71 992.29"/><polygon points="1019.09 1001.12 1013.05 994.21 1019.09 987.29 1025.13 994.21 1019.09 1001.12"/><polygon points="1031.55 1001.12 1025.51 994.21 1031.55 987.29 1037.59 994.21 1031.55 1001.12"/><polygon points="1043.94 1001.12 1037.9 994.21 1043.94 987.29 1049.98 994.21 1043.94 1001.12"/><polygon points="1056.36 1001.12 1050.32 994.21 1056.36 987.29 1062.4 994.21 1056.36 1001.12"/><polygon points="1012.87 1009.85 1006.83 1002.93 1012.87 996.02 1018.91 1002.93 1012.87 1009.85"/><polygon points="1025.32 1009.85 1019.28 1002.93 1025.32 996.02 1031.36 1002.93 1025.32 1009.85"/><polygon points="1037.72 1009.85 1031.68 1002.93 1037.72 996.02 1043.76 1002.93 1037.72 1009.85"/><polygon points="1050.13 1009.85 1044.09 1002.93 1050.13 996.02 1056.17 1002.93 1050.13 1009.85"/><polygon points="1062.69 1009.85 1056.65 1002.93 1062.69 996.02 1068.73 1002.93 1062.69 1009.85"/><polygon points="1019.04 1018.87 1013 1011.96 1019.04 1005.04 1025.09 1011.96 1019.04 1018.87"/><polygon points="1031.5 1018.87 1025.46 1011.96 1031.5 1005.04 1037.54 1011.96 1031.5 1018.87"/><polygon points="1043.89 1018.87 1037.86 1011.96 1043.89 1005.04 1049.93 1011.96 1043.89 1018.87"/><polygon points="1056.31 1018.87 1050.27 1011.96 1056.31 1005.04 1062.35 1011.96 1056.31 1018.87"/><polygon points="1012.65 1027.41 1006.61 1020.49 1012.65 1013.58 1018.69 1020.49 1012.65 1027.41"/><polygon points="1025.11 1027.41 1019.07 1020.49 1025.11 1013.58 1031.15 1020.49 1025.11 1027.41"/><polygon points="1037.5 1027.41 1031.46 1020.49 1037.5 1013.58 1043.54 1020.49 1037.5 1027.41"/><polygon points="1049.92 1027.41 1043.88 1020.49 1049.92 1013.58 1055.96 1020.49 1049.92 1027.41"/><polygon points="1062.48 1027.41 1056.44 1020.49 1062.48 1013.58 1068.52 1020.49 1062.48 1027.41"/><polygon points="1012.72 921.63 1006.68 914.71 1012.72 907.79 1018.76 914.71 1012.72 921.63"/><polygon points="1025.17 921.63 1019.13 914.71 1025.17 907.79 1031.21 914.71 1025.17 921.63"/><polygon points="1037.57 921.63 1031.53 914.71 1037.57 907.79 1043.61 914.71 1037.57 921.63"/><polygon points="1049.98 921.63 1043.94 914.71 1049.98 907.79 1056.02 914.71 1049.98 921.63"/><polygon points="1062.54 921.63 1056.5 914.71 1062.54 907.79 1068.58 914.71 1062.54 921.63"/></g><path d="M1062.72,912.14V898.22H1053c-.06.76-.14,1.22-.14,1.22a21.72,21.72,0,0,1-6.32-1.22h-3.4a20.47,20.47,0,0,1-5.41,7.85,20.56,20.56,0,0,1-5.42-7.85H1029a21.81,21.81,0,0,1-6.33,1.22s-.08-.46-.14-1.22h-9.91v13.92Z"/><path d="M1059.32,883.88a20.5,20.5,0,0,1-8,5.46,17.63,17.63,0,0,1,1.52,8h9.84v-15.6h-5.58A22.07,22.07,0,0,1,1059.32,883.88Z"/><path d="M1016.06,883.88a20.5,20.5,0,0,0,8,5.46,17.78,17.78,0,0,0-1.53,8h-9.84v-15.6h5.59A20.74,20.74,0,0,0,1016.06,883.88Z"/><path d="M1040.43,893.38c-2.19-2.64-2.66-6.21-2.67-8.7l-.07-.07-.07.07c0,2.49-.48,6.06-2.67,8.7a10.64,10.64,0,0,1-2.63,2.22c1.07,4.79,5.3,8.4,5.3,8.4s4.27-3.64,5.31-8.47A10.61,10.61,0,0,1,1040.43,893.38Z"/><path d="M1025.15,888.17a9.91,9.91,0,0,1,1.27-2c3.55-4.27,10.31-4.55,10.94-4.56-1.87-1.64-5.16-4-8.93-4-5.82,0-10.54,5.54-10.54,5.54A18.69,18.69,0,0,0,1025.15,888.17Z"/><path d="M1049,886.3a10.8,10.8,0,0,1,1.27,2,18.61,18.61,0,0,0,7.26-5s-4.72-5.54-10.54-5.54c-3.77,0-7.07,2.31-8.93,4C1038.65,881.75,1045.41,882,1049,886.3Z"/><path d="M1034,887.28a11.69,11.69,0,0,1-5.58,1.58,10.18,10.18,0,0,1-3.28-.57c-2.12,4.34-1.2,9.66-1.2,9.66a18.81,18.81,0,0,0,8.37-2.35,10.19,10.19,0,0,1-.24-2.15A12,12,0,0,1,1034,887.28Z"/><path d="M1041.17,887.17a12.14,12.14,0,0,1,2,6.28,9.54,9.54,0,0,1-.23,2.08,18.75,18.75,0,0,0,8.5,2.42s.91-5.32-1.2-9.66a10.27,10.27,0,0,1-3.28.57A11.85,11.85,0,0,1,1041.17,887.17Z"/><path d="M1012.59,1021.82v13.93h9.76c.07-.76.15-1.22.15-1.22a21.77,21.77,0,0,1,6.32,1.22h3.39a20.46,20.46,0,0,1,5.42-7.85,20.37,20.37,0,0,1,5.41,7.85h3.25a21.72,21.72,0,0,1,6.32-1.22s.08.46.14,1.22h9.91v-13.93Z"/><path d="M1016,1050.08a20.43,20.43,0,0,1,8-5.45,17.94,17.94,0,0,1-1.52-8.05h-9.84v15.6h5.59A20.13,20.13,0,0,1,1016,1050.08Z"/><path d="M1059.26,1050.08a20.42,20.42,0,0,0-8-5.45,17.67,17.67,0,0,0,1.52-8.05h9.84v15.6h-5.58A21.38,21.38,0,0,0,1059.26,1050.08Z"/><path d="M1034.89,1040.59c2.19,2.64,2.65,6.21,2.67,8.7l.07.06.07-.06c0-2.49.47-6.06,2.67-8.7a10.39,10.39,0,0,1,2.62-2.22c-1.06-4.79-5.3-8.4-5.3-8.4s-4.27,3.64-5.31,8.47A10.42,10.42,0,0,1,1034.89,1040.59Z"/><path d="M1050.16,1045.8a9.84,9.84,0,0,1-1.27,2c-3.54,4.27-10.31,4.55-10.93,4.57,1.86,1.64,5.16,4,8.93,4,5.82,0,10.54-5.54,10.54-5.54A18.59,18.59,0,0,0,1050.16,1045.8Z"/><path d="M1026.36,1047.67a9.64,9.64,0,0,1-1.27-2,18.6,18.6,0,0,0-7.26,5s4.72,5.54,10.54,5.54c3.77,0,7.06-2.31,8.93-4C1036.67,1052.22,1029.91,1051.94,1026.36,1047.67Z"/><path d="M1041.31,1046.69a11.66,11.66,0,0,1,5.58-1.58,10.44,10.44,0,0,1,3.27.56c2.12-4.34,1.21-9.65,1.21-9.65a18.68,18.68,0,0,0-8.38,2.35,9.49,9.49,0,0,1,.25,2.14A12.13,12.13,0,0,1,1041.31,1046.69Z"/><path d="M1034.15,1046.8a12.21,12.21,0,0,1-2-6.29,10.1,10.1,0,0,1,.23-2.07,18.58,18.58,0,0,0-8.49-2.42s-.92,5.31,1.2,9.65a10.45,10.45,0,0,1,3.28-.56A11.88,11.88,0,0,1,1034.15,1046.8Z"/><rect class="cls-8" x="1115.24" y="863.01" width="192.87" height="352.54"/><rect class="cls-9" x="1133.4" y="879.66" width="70" height="186.58"/><rect x="1143.34" y="955.12" width="11.03" height="11.03"/><rect x="1156.35" y="955.12" width="11.03" height="11.03"/><rect x="1169.36" y="955.12" width="11.03" height="11.03"/><rect x="1182.37" y="955.12" width="11.03" height="11.03"/><rect x="1143.34" y="942.17" width="11.03" height="11.03"/><rect x="1156.35" y="942.17" width="11.03" height="11.03"/><rect x="1169.36" y="942.17" width="11.03" height="11.03"/><rect x="1182.37" y="942.17" width="11.03" height="11.03"/><rect x="1143.34" y="929.06" width="11.03" height="11.03"/><rect x="1156.35" y="929.06" width="11.03" height="11.03"/><rect x="1169.36" y="929.06" width="11.03" height="11.03"/><rect x="1182.37" y="929.06" width="11.03" height="11.03"/><rect x="1143.34" y="968.08" width="11.03" height="11.03"/><rect x="1156.35" y="968.08" width="11.03" height="11.03"/><rect x="1169.36" y="968.08" width="11.03" height="11.03"/><rect x="1182.37" y="968.08" width="11.03" height="11.03"/><rect x="1143.34" y="980.99" width="11.03" height="11.03"/><rect x="1156.35" y="980.99" width="11.03" height="11.03"/><rect x="1169.36" y="980.99" width="11.03" height="11.03"/><rect x="1182.37" y="980.99" width="11.03" height="11.03"/><rect x="1143.34" y="993.79" width="11.03" height="11.03"/><rect x="1156.35" y="993.79" width="11.03" height="11.03"/><rect x="1169.36" y="993.79" width="11.03" height="11.03"/><rect x="1182.37" y="993.79" width="11.03" height="11.03"/><rect x="1143.34" y="1006.6" width="11.03" height="11.03"/><rect x="1156.35" y="1006.6" width="11.03" height="11.03"/><rect x="1169.36" y="1006.6" width="11.03" height="11.03"/><rect x="1182.37" y="1006.6" width="11.03" height="11.03"/><rect x="1143.33" y="1018.97" width="7.24" height="7.24"/><rect x="1151.88" y="1018.97" width="7.24" height="7.24"/><rect x="1160.42" y="1018.97" width="7.24" height="7.24"/><rect x="1168.97" y="1018.97" width="7.24" height="7.24"/><rect x="1177.61" y="1018.97" width="7.24" height="7.24"/><rect x="1186.16" y="1018.97" width="7.24" height="7.24"/><rect x="1143.33" y="920.05" width="7.24" height="7.24"/><rect x="1151.88" y="920.05" width="7.24" height="7.24"/><rect x="1160.42" y="920.05" width="7.24" height="7.24"/><rect x="1168.97" y="920.05" width="7.24" height="7.24"/><rect x="1177.61" y="920.05" width="7.24" height="7.24"/><rect x="1186.16" y="920.05" width="7.24" height="7.24"/><path d="M1143.33,1027.62v13.93h9.76c.07-.76.15-1.22.15-1.22a21.77,21.77,0,0,1,6.32,1.22H1163a20.56,20.56,0,0,1,5.42-7.85,20.47,20.47,0,0,1,5.41,7.85H1177a21.72,21.72,0,0,1,6.32-1.22s.08.46.15,1.22h9.9v-13.93Z"/><path d="M1146.74,1055.88a20.42,20.42,0,0,1,8-5.45,17.83,17.83,0,0,1-1.53-8h-9.84V1058h5.59A20.13,20.13,0,0,1,1146.74,1055.88Z"/><path d="M1190,1055.88a20.42,20.42,0,0,0-8-5.45,17.67,17.67,0,0,0,1.52-8h9.84V1058h-5.58A21.38,21.38,0,0,0,1190,1055.88Z"/><path d="M1165.63,1046.39c2.19,2.64,2.65,6.21,2.67,8.7l.07.06.07-.06c0-2.49.48-6.06,2.67-8.7a10.59,10.59,0,0,1,2.62-2.22c-1.06-4.79-5.29-8.4-5.29-8.4s-4.28,3.64-5.32,8.47A10.42,10.42,0,0,1,1165.63,1046.39Z"/><path d="M1180.91,1051.6a10.05,10.05,0,0,1-1.28,2c-3.54,4.27-10.31,4.55-10.93,4.57,1.86,1.64,5.16,3.95,8.93,3.95,5.82,0,10.54-5.54,10.54-5.54A18.61,18.61,0,0,0,1180.91,1051.6Z"/><path d="M1157.1,1053.47a9.64,9.64,0,0,1-1.27-2,18.69,18.69,0,0,0-7.26,5s4.72,5.54,10.54,5.54c3.77,0,7.06-2.31,8.93-4C1167.41,1058,1160.65,1057.74,1157.1,1053.47Z"/><path d="M1172.05,1052.49a11.69,11.69,0,0,1,5.58-1.58,10.55,10.55,0,0,1,3.28.56c2.11-4.33,1.2-9.65,1.2-9.65a18.68,18.68,0,0,0-8.38,2.35,9.49,9.49,0,0,1,.25,2.14A12.13,12.13,0,0,1,1172.05,1052.49Z"/><path d="M1164.89,1052.6a12.21,12.21,0,0,1-2-6.29,10.1,10.1,0,0,1,.23-2.07,18.58,18.58,0,0,0-8.49-2.42s-.92,5.32,1.2,9.65a10.45,10.45,0,0,1,3.28-.56A11.85,11.85,0,0,1,1164.89,1052.6Z"/><path d="M1193.46,918.29V904.36h-9.76c-.06.76-.14,1.22-.14,1.22a21.72,21.72,0,0,1-6.32-1.22h-3.4a20.47,20.47,0,0,1-5.41,7.85,20.56,20.56,0,0,1-5.42-7.85h-3.24a21.81,21.81,0,0,1-6.33,1.22s-.08-.46-.14-1.22h-9.91v13.93Z"/><path d="M1190.06,890a20.42,20.42,0,0,1-8,5.45,17.83,17.83,0,0,1,1.53,8h9.83v-15.6h-5.58A21.38,21.38,0,0,1,1190.06,890Z"/><path d="M1146.8,890a20.42,20.42,0,0,0,8,5.45,17.83,17.83,0,0,0-1.53,8h-9.84v-15.6H1149A20.13,20.13,0,0,0,1146.8,890Z"/><path d="M1171.17,899.52c-2.19-2.64-2.66-6.21-2.67-8.7l-.07-.06-.07.06c0,2.49-.48,6.06-2.67,8.7a10.64,10.64,0,0,1-2.63,2.22c1.07,4.79,5.3,8.4,5.3,8.4s4.27-3.64,5.31-8.47A10.38,10.38,0,0,1,1171.17,899.52Z"/><path d="M1155.89,894.31a10,10,0,0,1,1.27-2c3.55-4.27,10.31-4.55,10.94-4.57-1.87-1.64-5.16-4-8.93-4-5.82,0-10.54,5.54-10.54,5.54A18.61,18.61,0,0,0,1155.89,894.31Z"/><path d="M1179.7,892.44a10.55,10.55,0,0,1,1.27,2,18.69,18.69,0,0,0,7.26-5s-4.72-5.54-10.54-5.54c-3.77,0-7.07,2.31-8.93,4C1169.39,887.89,1176.15,888.17,1179.7,892.44Z"/><path d="M1164.75,893.42a11.69,11.69,0,0,1-5.58,1.58,10.45,10.45,0,0,1-3.28-.56c-2.12,4.33-1.2,9.65-1.2,9.65a18.66,18.66,0,0,0,8.37-2.35,10.1,10.1,0,0,1-.24-2.14A12.13,12.13,0,0,1,1164.75,893.42Z"/><path d="M1171.91,893.31a12.2,12.2,0,0,1,2,6.29,9.45,9.45,0,0,1-.23,2.07,18.6,18.6,0,0,0,8.5,2.42s.91-5.32-1.2-9.65a10.55,10.55,0,0,1-3.28.56A11.85,11.85,0,0,1,1171.91,893.31Z"/><rect class="cls-9" x="1219.95" y="879.77" width="70" height="186.58" transform="translate(2509.9 1946.13) rotate(180)"/><rect x="1229.89" y="955.23" width="11.03" height="11.03"/><rect x="1242.9" y="955.23" width="11.03" height="11.03"/><rect x="1255.91" y="955.23" width="11.03" height="11.03"/><rect x="1268.92" y="955.23" width="11.03" height="11.03"/><rect x="1229.89" y="942.28" width="11.03" height="11.03"/><rect x="1242.9" y="942.28" width="11.03" height="11.03"/><rect x="1255.91" y="942.28" width="11.03" height="11.03"/><rect x="1268.92" y="942.28" width="11.03" height="11.03"/><rect x="1229.89" y="929.17" width="11.03" height="11.03"/><rect x="1242.9" y="929.17" width="11.03" height="11.03"/><rect x="1255.91" y="929.17" width="11.03" height="11.03"/><rect x="1268.92" y="929.17" width="11.03" height="11.03"/><rect x="1229.89" y="968.19" width="11.03" height="11.03"/><rect x="1242.9" y="968.19" width="11.03" height="11.03"/><rect x="1255.91" y="968.19" width="11.03" height="11.03"/><rect x="1268.92" y="968.19" width="11.03" height="11.03"/><rect x="1229.89" y="981.1" width="11.03" height="11.03"/><rect x="1242.9" y="981.1" width="11.03" height="11.03"/><rect x="1255.91" y="981.1" width="11.03" height="11.03"/><rect x="1268.92" y="981.1" width="11.03" height="11.03"/><rect x="1229.89" y="993.91" width="11.03" height="11.03"/><rect x="1242.9" y="993.91" width="11.03" height="11.03"/><rect x="1255.91" y="993.91" width="11.03" height="11.03"/><rect x="1268.92" y="993.91" width="11.03" height="11.03"/><rect x="1229.89" y="1006.71" width="11.03" height="11.03"/><rect x="1242.9" y="1006.71" width="11.03" height="11.03"/><rect x="1255.91" y="1006.71" width="11.03" height="11.03"/><rect x="1268.92" y="1006.71" width="11.03" height="11.03"/><rect x="1229.88" y="1019.08" width="7.24" height="7.24"/><rect x="1238.43" y="1019.08" width="7.24" height="7.24"/><rect x="1246.97" y="1019.08" width="7.24" height="7.24"/><rect x="1255.52" y="1019.08" width="7.24" height="7.24"/><rect x="1264.17" y="1019.08" width="7.24" height="7.24"/><rect x="1272.71" y="1019.08" width="7.24" height="7.24"/><rect x="1229.88" y="920.16" width="7.24" height="7.24"/><rect x="1238.43" y="920.16" width="7.24" height="7.24"/><rect x="1246.97" y="920.16" width="7.24" height="7.24"/><rect x="1255.52" y="920.16" width="7.24" height="7.24"/><rect x="1264.17" y="920.16" width="7.24" height="7.24"/><rect x="1272.71" y="920.16" width="7.24" height="7.24"/><path d="M1229.88,1027.73v13.93h9.76c.07-.76.15-1.22.15-1.22a21.77,21.77,0,0,1,6.32,1.22h3.39a20.56,20.56,0,0,1,5.42-7.85,20.47,20.47,0,0,1,5.41,7.85h3.25a21.77,21.77,0,0,1,6.32-1.22s.08.46.15,1.22h9.9v-13.93Z"/><path d="M1233.29,1056a20.5,20.5,0,0,1,8-5.46,17.83,17.83,0,0,1-1.53-8h-9.84v15.6h5.59A20.74,20.74,0,0,1,1233.29,1056Z"/><path d="M1276.55,1056a20.5,20.5,0,0,0-8-5.46,17.83,17.83,0,0,0,1.53-8H1280v15.6h-5.58A22.07,22.07,0,0,0,1276.55,1056Z"/><path d="M1252.18,1046.5c2.19,2.64,2.65,6.21,2.67,8.7l.07.06.07-.06c0-2.49.48-6.06,2.67-8.7a10.46,10.46,0,0,1,2.63-2.22c-1.07-4.79-5.3-8.4-5.3-8.4s-4.27,3.64-5.32,8.47A10.42,10.42,0,0,1,1252.18,1046.5Z"/><path d="M1267.46,1051.71a10,10,0,0,1-1.27,2c-3.55,4.27-10.31,4.56-10.94,4.57,1.86,1.64,5.16,4,8.93,4,5.82,0,10.54-5.55,10.54-5.55A18.61,18.61,0,0,0,1267.46,1051.71Z"/><path d="M1243.65,1053.58a10.07,10.07,0,0,1-1.27-2,18.69,18.69,0,0,0-7.26,5s4.72,5.54,10.54,5.54c3.77,0,7.06-2.31,8.93-3.95C1254,1058.13,1247.2,1057.85,1243.65,1053.58Z"/><path d="M1258.6,1052.6a11.69,11.69,0,0,1,5.58-1.58,10.55,10.55,0,0,1,3.28.56c2.12-4.33,1.2-9.65,1.2-9.65a18.78,18.78,0,0,0-8.37,2.35,10.1,10.1,0,0,1,.24,2.14A12.13,12.13,0,0,1,1258.6,1052.6Z"/><path d="M1251.44,1052.71a12.2,12.2,0,0,1-2-6.29,10.1,10.1,0,0,1,.22-2.07,18.58,18.58,0,0,0-8.49-2.42s-.92,5.32,1.2,9.65a10.5,10.5,0,0,1,3.28-.56A11.85,11.85,0,0,1,1251.44,1052.71Z"/><path d="M1280,918.4V904.47h-9.76c-.07.76-.15,1.22-.15,1.22a21.72,21.72,0,0,1-6.32-1.22h-3.39a20.46,20.46,0,0,1-5.42,7.85,20.46,20.46,0,0,1-5.42-7.85h-3.24a21.77,21.77,0,0,1-6.32,1.22s-.08-.46-.15-1.22h-9.91V918.4Z"/><path d="M1276.61,890.14a20.42,20.42,0,0,1-8,5.45,17.83,17.83,0,0,1,1.53,8H1280V888.05h-5.59A20.77,20.77,0,0,1,1276.61,890.14Z"/><path d="M1233.35,890.14a20.42,20.42,0,0,0,8,5.45,17.83,17.83,0,0,0-1.53,8h-9.84V888.05h5.59A20.77,20.77,0,0,0,1233.35,890.14Z"/><path d="M1257.72,899.63c-2.19-2.64-2.66-6.21-2.67-8.7l-.07-.06-.07.06c0,2.49-.48,6.06-2.67,8.7a10.43,10.43,0,0,1-2.63,2.22c1.07,4.79,5.3,8.4,5.3,8.4s4.27-3.64,5.31-8.47A10.35,10.35,0,0,1,1257.72,899.63Z"/><path d="M1242.44,894.42a10.3,10.3,0,0,1,1.27-2c3.55-4.27,10.31-4.55,10.94-4.57-1.86-1.64-5.16-4-8.93-4-5.82,0-10.54,5.54-10.54,5.54A18.61,18.61,0,0,0,1242.44,894.42Z"/><path d="M1266.25,892.55a10.07,10.07,0,0,1,1.27,2,18.69,18.69,0,0,0,7.26-5s-4.72-5.54-10.54-5.54c-3.77,0-7.07,2.31-8.93,4C1255.94,888,1262.7,888.28,1266.25,892.55Z"/><path d="M1251.3,893.53a11.69,11.69,0,0,1-5.58,1.58,10.55,10.55,0,0,1-3.28-.56c-2.12,4.34-1.2,9.65-1.2,9.65a18.63,18.63,0,0,0,8.37-2.35,10.1,10.1,0,0,1-.24-2.14A12.13,12.13,0,0,1,1251.3,893.53Z"/><path d="M1258.46,893.42a12.2,12.2,0,0,1,2,6.29,9.45,9.45,0,0,1-.23,2.07,18.6,18.6,0,0,0,8.5,2.42s.92-5.31-1.2-9.65a10.55,10.55,0,0,1-3.28.56A11.85,11.85,0,0,1,1258.46,893.42Z"/><rect class="cls-3" x="208.22" y="178.25" width="1789.68" height="1537.85"/><rect class="cls-3" x="392.82" y="336.86" width="1420.5" height="1220.61"/><rect class="cls-3" x="530.49" y="455.17" width="1145.15" height="984.01"/><rect class="cls-3" x="672.95" y="577.58" width="860.23" height="739.18"/><rect class="cls-3" x="789.2" y="677.47" width="627.74" height="539.41"/><line class="cls-3" x1="1416.93" y1="677.47" x2="2210.51" y2="-4.44"/><line class="cls-3" x1="1416.93" y1="1216.87" x2="2210.51" y2="1898.78"/><line class="cls-3" x1="789.2" y1="1216.87" x2="-4.38" y2="1898.78"/><line class="cls-3" x1="789.2" y1="677.47" x2="-4.38" y2="-4.44"/></svg>