<svg id="Layer_1" data-name="Layer 1" xmlns="http://www.w3.org/2000/svg" xmlns:xlink="http://www.w3.org/1999/xlink" viewBox="0 0 1920 1080"><defs><style>.cls-1{fill:none;}.cls-2{fill:#cf9;}.cls-3{fill:#390;}.cls-4{clip-path:url(#clip-path);}.cls-5{clip-path:url(#clip-path-2);}</style><clipPath id="clip-path"><rect class="cls-1" x="739.26" y="361.27" width="121.76" height="259.17"/></clipPath><clipPath id="clip-path-2"><rect class="cls-1" x="531.21" y="361" width="121.76" height="259.17"/></clipPath></defs><rect class="cls-2" width="1920" height="1080"/><rect class="cls-3" x="461.37" y="223.07" width="468.61" height="856.55"/><rect class="cls-2" x="714.95" y="263.45" width="170.24" height="453.73" transform="translate(1600.13 980.64) rotate(180)"/><g class="cls-4"><polygon class="cls-3" points="754.74 400.72 740.06 383.91 754.74 367.09 769.43 383.91 754.74 400.72"/><polygon class="cls-3" points="785.03 400.72 770.34 383.91 785.03 367.09 799.72 383.91 785.03 400.72"/><polygon class="cls-3" points="815.17 400.72 800.49 383.91 815.17 367.09 829.86 383.91 815.17 400.72"/><polygon class="cls-3" points="845.36 400.72 830.67 383.91 845.36 367.09 860.05 383.91 845.36 400.72"/><polygon class="cls-3" points="739.57 422.06 724.88 405.25 739.57 388.43 754.25 405.25 739.57 422.06"/><polygon class="cls-3" points="769.85 422.06 755.16 405.25 769.85 388.43 784.54 405.25 769.85 422.06"/><polygon class="cls-3" points="800 422.06 785.31 405.25 800 388.43 814.68 405.25 800 422.06"/><polygon class="cls-3" points="830.18 422.06 815.5 405.25 830.18 388.43 844.87 405.25 830.18 422.06"/><polygon class="cls-3" points="860.73 422.06 846.04 405.25 860.73 388.43 875.42 405.25 860.73 422.06"/><polygon class="cls-3" points="754.25 443.88 739.56 427.06 754.25 410.25 768.94 427.06 754.25 443.88"/><polygon class="cls-3" points="784.53 443.88 769.84 427.06 784.53 410.25 799.22 427.06 784.53 443.88"/><polygon class="cls-3" points="814.68 443.88 799.99 427.06 814.68 410.25 829.37 427.06 814.68 443.88"/><polygon class="cls-3" points="844.87 443.88 830.18 427.06 844.87 410.25 859.55 427.06 844.87 443.88"/><polygon class="cls-3" points="739.66 464.95 724.98 448.14 739.66 431.32 754.35 448.14 739.66 464.95"/><polygon class="cls-3" points="769.95 464.95 755.26 448.14 769.95 431.32 784.63 448.14 769.95 464.95"/><polygon class="cls-3" points="800.09 464.95 785.41 448.14 800.09 431.32 814.78 448.14 800.09 464.95"/><polygon class="cls-3" points="830.28 464.95 815.59 448.14 830.28 431.32 844.97 448.14 830.28 464.95"/><polygon class="cls-3" points="860.83 464.95 846.14 448.14 860.83 431.32 875.52 448.14 860.83 464.95"/><polygon class="cls-3" points="754.96 487.03 740.27 470.22 754.96 453.4 769.64 470.22 754.96 487.03"/><polygon class="cls-3" points="785.24 487.03 770.55 470.22 785.24 453.4 799.93 470.22 785.24 487.03"/><polygon class="cls-3" points="815.39 487.03 800.7 470.22 815.39 453.4 830.08 470.22 815.39 487.03"/><polygon class="cls-3" points="845.58 487.03 830.89 470.22 845.58 453.4 860.26 470.22 845.58 487.03"/><polygon class="cls-3" points="739.85 509.16 725.17 492.34 739.85 475.53 754.54 492.34 739.85 509.16"/><polygon class="cls-3" points="770.14 509.16 755.45 492.34 770.14 475.53 784.83 492.34 770.14 509.16"/><polygon class="cls-3" points="800.28 509.16 785.6 492.34 800.28 475.53 814.97 492.34 800.28 509.16"/><polygon class="cls-3" points="830.47 509.16 815.78 492.34 830.47 475.53 845.16 492.34 830.47 509.16"/><polygon class="cls-3" points="861.02 509.16 846.33 492.34 861.02 475.53 875.71 492.34 861.02 509.16"/><polygon class="cls-3" points="755 530.19 740.31 513.37 755 496.56 769.68 513.37 755 530.19"/><polygon class="cls-3" points="785.28 530.19 770.59 513.37 785.28 496.56 799.97 513.37 785.28 530.19"/><polygon class="cls-3" points="815.43 530.19 800.74 513.37 815.43 496.56 830.11 513.37 815.43 530.19"/><polygon class="cls-3" points="845.61 530.19 830.93 513.37 845.61 496.56 860.3 513.37 845.61 530.19"/><polygon class="cls-3" points="739.82 551.86 725.13 535.04 739.82 518.23 754.5 535.04 739.82 551.86"/><polygon class="cls-3" points="770.1 551.86 755.41 535.04 770.1 518.23 784.79 535.04 770.1 551.86"/><polygon class="cls-3" points="800.25 551.86 785.56 535.04 800.25 518.23 814.93 535.04 800.25 551.86"/><polygon class="cls-3" points="830.43 551.86 815.75 535.04 830.43 518.23 845.12 535.04 830.43 551.86"/><polygon class="cls-3" points="860.98 551.86 846.29 535.04 860.98 518.23 875.67 535.04 860.98 551.86"/><polygon class="cls-3" points="754.92 573.34 740.23 556.53 754.92 539.71 769.61 556.53 754.92 573.34"/><polygon class="cls-3" points="785.2 573.34 770.51 556.53 785.2 539.71 799.89 556.53 785.2 573.34"/><polygon class="cls-3" points="815.35 573.34 800.66 556.53 815.35 539.71 830.04 556.53 815.35 573.34"/><polygon class="cls-3" points="845.54 573.34 830.85 556.53 845.54 539.71 860.23 556.53 845.54 573.34"/><polygon class="cls-3" points="739.78 594.56 725.09 577.74 739.78 560.92 754.47 577.74 739.78 594.56"/><polygon class="cls-3" points="770.06 594.56 755.37 577.74 770.06 560.92 784.75 577.74 770.06 594.56"/><polygon class="cls-3" points="800.21 594.56 785.52 577.74 800.21 560.92 814.9 577.74 800.21 594.56"/><polygon class="cls-3" points="830.4 594.56 815.71 577.74 830.4 560.92 845.09 577.74 830.4 594.56"/><polygon class="cls-3" points="860.95 594.56 846.26 577.74 860.95 560.92 875.63 577.74 860.95 594.56"/><polygon class="cls-3" points="754.8 616.5 740.12 599.68 754.8 582.87 769.49 599.68 754.8 616.5"/><polygon class="cls-3" points="785.09 616.5 770.4 599.68 785.09 582.87 799.77 599.68 785.09 616.5"/><polygon class="cls-3" points="815.24 616.5 800.55 599.68 815.24 582.87 829.92 599.68 815.24 616.5"/><polygon class="cls-3" points="845.42 616.5 830.74 599.68 845.42 582.87 860.11 599.68 845.42 616.5"/><polygon class="cls-3" points="739.26 637.26 724.57 620.44 739.26 603.62 753.95 620.44 739.26 637.26"/><polygon class="cls-3" points="769.54 637.26 754.86 620.44 769.54 603.62 784.23 620.44 769.54 637.26"/><polygon class="cls-3" points="799.69 637.26 785 620.44 799.69 603.62 814.38 620.44 799.69 637.26"/><polygon class="cls-3" points="829.88 637.26 815.19 620.44 829.88 603.62 844.57 620.44 829.88 637.26"/><polygon class="cls-3" points="860.43 637.26 845.74 620.44 860.43 603.62 875.12 620.44 860.43 637.26"/><polygon class="cls-3" points="739.41 380.02 724.73 363.2 739.41 346.38 754.1 363.2 739.41 380.02"/><polygon class="cls-3" points="769.7 380.02 755.01 363.2 769.7 346.38 784.38 363.2 769.7 380.02"/><polygon class="cls-3" points="799.84 380.02 785.16 363.2 799.84 346.38 814.53 363.2 799.84 380.02"/><polygon class="cls-3" points="830.03 380.02 815.34 363.2 830.03 346.38 844.72 363.2 830.03 380.02"/><polygon class="cls-3" points="860.58 380.02 845.89 363.2 860.58 346.38 875.27 363.2 860.58 380.02"/></g><path class="cls-3" d="M861,357V323.1H837.29c-.16,1.85-.35,3-.35,3a52.89,52.89,0,0,1-15.37-3h-8.26c-3.81,11.09-13.17,19.09-13.17,19.09s-9.36-8-13.17-19.09h-7.9a52.89,52.89,0,0,1-15.37,3s-.19-1.12-.35-3H739.26V357Z"/><path class="cls-3" d="M852.74,288.23s-8.12,9.51-19.35,13.27c3.3,6.75,3.84,14.39,3.71,19.58H861V283.15H847.44A49.9,49.9,0,0,1,852.74,288.23Z"/><path class="cls-3" d="M747.55,288.23s8.11,9.51,19.34,13.27c-3.3,6.75-3.83,14.39-3.7,19.58H739.26V283.15h13.59A48.7,48.7,0,0,0,747.55,288.23Z"/><path class="cls-3" d="M806.81,311.32c-5.34-6.42-6.46-15.1-6.5-21.16l-.17-.15-.17.15c0,6.06-1.16,14.74-6.49,21.16a25.33,25.33,0,0,1-6.39,5.4c2.6,11.66,12.89,20.43,12.89,20.43s10.38-8.86,12.91-20.6A25.06,25.06,0,0,1,806.81,311.32Z"/><path class="cls-3" d="M769.65,298.66a24.24,24.24,0,0,1,3.09-4.85c8.62-10.39,25.07-11.07,26.6-11.11-4.54-4-12.55-9.62-21.71-9.62-14.16,0-25.64,13.48-25.64,13.48S759.4,295.24,769.65,298.66Z"/><path class="cls-3" d="M827.54,294.11a23.8,23.8,0,0,1,3.09,4.85c10.25-3.42,17.66-12.1,17.66-12.1s-11.48-13.48-25.64-13.48c-9.16,0-17.17,5.63-21.71,9.62C802.47,283,818.92,283.72,827.54,294.11Z"/><path class="cls-3" d="M791.19,296.49a28.47,28.47,0,0,1-13.56,3.85,25.13,25.13,0,0,1-8-1.38c-5.15,10.55-2.92,23.48-2.92,23.48s11.22-.16,20.36-5.72a24.26,24.26,0,0,1-.59-5.21C786.5,305.89,788.63,300.71,791.19,296.49Z"/><path class="cls-3" d="M808.6,296.22c2.63,4.27,4.85,9.55,4.85,15.29a23.38,23.38,0,0,1-.56,5c9.2,5.73,20.66,5.89,20.66,5.89s2.23-12.93-2.92-23.48a25.13,25.13,0,0,1-8,1.38A28.7,28.7,0,0,1,808.6,296.22Z"/><path class="cls-3" d="M739.11,623.68v33.86h23.74c.15-1.85.34-3,.34-3a52.58,52.58,0,0,1,15.38,3h8.25c3.82-11.1,13.17-19.09,13.17-19.09s9.36,8,13.17,19.09h7.9a52.55,52.55,0,0,1,15.37-3s.19,1.12.35,3h24.09V623.68Z"/><path class="cls-3" d="M747.4,692.4s8.11-9.51,19.34-13.26c-3.3-6.75-3.83-14.39-3.7-19.58H739.11v37.93H752.7A49.3,49.3,0,0,1,747.4,692.4Z"/><path class="cls-3" d="M852.59,692.4s-8.12-9.51-19.35-13.26c3.3-6.75,3.84-14.39,3.71-19.58h23.92v37.93H847.29A49.3,49.3,0,0,0,852.59,692.4Z"/><path class="cls-3" d="M793.33,669.31c5.33,6.43,6.46,15.1,6.49,21.16l.17.16.18-.16c0-6.06,1.15-14.73,6.49-21.16a25.45,25.45,0,0,1,6.38-5.39c-2.59-11.66-12.88-20.43-12.88-20.43s-10.39,8.85-12.92,20.6A25.28,25.28,0,0,1,793.33,669.31Z"/><path class="cls-3" d="M830.48,682a23.87,23.87,0,0,1-3.09,4.86c-8.62,10.38-25.07,11.07-26.59,11.11,4.53,4,12.55,9.61,21.71,9.61,14.16,0,25.63-13.47,25.63-13.47S840.73,685.4,830.48,682Z"/><path class="cls-3" d="M772.59,686.53a24.31,24.31,0,0,1-3.09-4.86c-10.25,3.43-17.66,12.11-17.66,12.11s11.48,13.47,25.64,13.47c9.16,0,17.18-5.63,21.71-9.61C797.67,697.6,781.22,696.91,772.59,686.53Z"/><path class="cls-3" d="M808.94,684.15a28.37,28.37,0,0,1,13.57-3.85,25.4,25.4,0,0,1,8,1.37c5.15-10.54,2.92-23.47,2.92-23.47s-11.22.16-20.36,5.72a23.57,23.57,0,0,1,.59,5.21C813.63,674.75,811.5,679.93,808.94,684.15Z"/><path class="cls-3" d="M791.53,684.42c-2.63-4.28-4.85-9.56-4.85-15.29a24,24,0,0,1,.56-5c-9.19-5.74-20.66-5.89-20.66-5.89s-2.23,12.93,2.92,23.47a25.46,25.46,0,0,1,8-1.37A28.67,28.67,0,0,1,791.53,684.42Z"/><rect class="cls-2" x="506.89" y="263.18" width="170.24" height="453.73" transform="translate(1184.02 980.1) rotate(180)"/><g class="cls-5"><polygon class="cls-3" points="546.69 400.45 532 383.64 546.69 366.82 561.38 383.64 546.69 400.45"/><polygon class="cls-3" points="576.97 400.45 562.28 383.64 576.97 366.82 591.66 383.64 576.97 400.45"/><polygon class="cls-3" points="607.12 400.45 592.43 383.64 607.12 366.82 621.81 383.64 607.12 400.45"/><polygon class="cls-3" points="637.31 400.45 622.62 383.64 637.31 366.82 652 383.64 637.31 400.45"/><polygon class="cls-3" points="531.51 421.8 516.82 404.98 531.51 388.16 546.2 404.98 531.51 421.8"/><polygon class="cls-3" points="561.79 421.8 547.11 404.98 561.79 388.16 576.48 404.98 561.79 421.8"/><polygon class="cls-3" points="591.94 421.8 577.25 404.98 591.94 388.16 606.63 404.98 591.94 421.8"/><polygon class="cls-3" points="622.13 421.8 607.44 404.98 622.13 388.16 636.82 404.98 622.13 421.8"/><polygon class="cls-3" points="652.68 421.8 637.99 404.98 652.68 388.16 667.37 404.98 652.68 421.8"/><polygon class="cls-3" points="546.19 443.61 531.5 426.79 546.19 409.98 560.88 426.79 546.19 443.61"/><polygon class="cls-3" points="576.48 443.61 561.79 426.79 576.48 409.98 591.16 426.79 576.48 443.61"/><polygon class="cls-3" points="606.62 443.61 591.94 426.79 606.62 409.98 621.31 426.79 606.62 443.61"/><polygon class="cls-3" points="636.81 443.61 622.12 426.79 636.81 409.98 651.5 426.79 636.81 443.61"/><polygon class="cls-3" points="531.61 464.69 516.92 447.87 531.61 431.05 546.3 447.87 531.61 464.69"/><polygon class="cls-3" points="561.89 464.69 547.2 447.87 561.89 431.05 576.58 447.87 561.89 464.69"/><polygon class="cls-3" points="592.04 464.69 577.35 447.87 592.04 431.05 606.73 447.87 592.04 464.69"/><polygon class="cls-3" points="622.23 464.69 607.54 447.87 622.23 431.05 636.91 447.87 622.23 464.69"/><polygon class="cls-3" points="652.78 464.69 638.09 447.87 652.78 431.05 667.46 447.87 652.78 464.69"/><polygon class="cls-3" points="546.9 486.76 532.21 469.95 546.9 453.13 561.59 469.95 546.9 486.76"/><polygon class="cls-3" points="577.18 486.76 562.5 469.95 577.18 453.13 591.87 469.95 577.18 486.76"/><polygon class="cls-3" points="607.33 486.76 592.64 469.95 607.33 453.13 622.02 469.95 607.33 486.76"/><polygon class="cls-3" points="637.52 486.76 622.83 469.95 637.52 453.13 652.21 469.95 637.52 486.76"/><polygon class="cls-3" points="531.8 508.89 517.11 492.07 531.8 475.26 546.49 492.07 531.8 508.89"/><polygon class="cls-3" points="562.08 508.89 547.39 492.07 562.08 475.26 576.77 492.07 562.08 508.89"/><polygon class="cls-3" points="592.23 508.89 577.54 492.07 592.23 475.26 606.92 492.07 592.23 508.89"/><polygon class="cls-3" points="622.42 508.89 607.73 492.07 622.42 475.26 637.11 492.07 622.42 508.89"/><polygon class="cls-3" points="652.97 508.89 638.28 492.07 652.97 475.26 667.65 492.07 652.97 508.89"/><polygon class="cls-3" points="546.94 529.92 532.25 513.1 546.94 496.29 561.63 513.1 546.94 529.92"/><polygon class="cls-3" points="577.22 529.92 562.53 513.1 577.22 496.29 591.91 513.1 577.22 529.92"/><polygon class="cls-3" points="607.37 529.92 592.68 513.1 607.37 496.29 622.06 513.1 607.37 529.92"/><polygon class="cls-3" points="637.56 529.92 622.87 513.1 637.56 496.29 652.25 513.1 637.56 529.92"/><polygon class="cls-3" points="531.76 551.59 517.07 534.77 531.76 517.96 546.45 534.77 531.76 551.59"/><polygon class="cls-3" points="562.04 551.59 547.36 534.77 562.04 517.96 576.73 534.77 562.04 551.59"/><polygon class="cls-3" points="592.19 551.59 577.5 534.77 592.19 517.96 606.88 534.77 592.19 551.59"/><polygon class="cls-3" points="622.38 551.59 607.69 534.77 622.38 517.96 637.07 534.77 622.38 551.59"/><polygon class="cls-3" points="652.93 551.59 638.24 534.77 652.93 517.96 667.62 534.77 652.93 551.59"/><polygon class="cls-3" points="546.86 573.07 532.18 556.26 546.86 539.44 561.55 556.26 546.86 573.07"/><polygon class="cls-3" points="577.15 573.07 562.46 556.26 577.15 539.44 591.84 556.26 577.15 573.07"/><polygon class="cls-3" points="607.29 573.07 592.61 556.26 607.29 539.44 621.98 556.26 607.29 573.07"/><polygon class="cls-3" points="637.48 573.07 622.79 556.26 637.48 539.44 652.17 556.26 637.48 573.07"/><polygon class="cls-3" points="531.72 594.29 517.03 577.47 531.72 560.65 546.41 577.47 531.72 594.29"/><polygon class="cls-3" points="562.01 594.29 547.32 577.47 562.01 560.65 576.69 577.47 562.01 594.29"/><polygon class="cls-3" points="592.15 594.29 577.47 577.47 592.15 560.65 606.84 577.47 592.15 594.29"/><polygon class="cls-3" points="622.34 594.29 607.65 577.47 622.34 560.65 637.03 577.47 622.34 594.29"/><polygon class="cls-3" points="652.89 594.29 638.2 577.47 652.89 560.65 667.58 577.47 652.89 594.29"/><polygon class="cls-3" points="546.75 616.23 532.06 599.41 546.75 582.6 561.44 599.41 546.75 616.23"/><polygon class="cls-3" points="577.03 616.23 562.34 599.41 577.03 582.6 591.72 599.41 577.03 616.23"/><polygon class="cls-3" points="607.18 616.23 592.49 599.41 607.18 582.6 621.87 599.41 607.18 616.23"/><polygon class="cls-3" points="637.37 616.23 622.68 599.41 637.37 582.6 652.06 599.41 637.37 616.23"/><polygon class="cls-3" points="531.21 636.99 516.52 620.17 531.21 603.36 545.89 620.17 531.21 636.99"/><polygon class="cls-3" points="561.49 636.99 546.8 620.17 561.49 603.36 576.18 620.17 561.49 636.99"/><polygon class="cls-3" points="591.64 636.99 576.95 620.17 591.64 603.36 606.32 620.17 591.64 636.99"/><polygon class="cls-3" points="621.82 636.99 607.14 620.17 621.82 603.36 636.51 620.17 621.82 636.99"/><polygon class="cls-3" points="652.37 636.99 637.68 620.17 652.37 603.36 667.06 620.17 652.37 636.99"/><polygon class="cls-3" points="531.36 379.75 516.67 362.93 531.36 346.12 546.05 362.93 531.36 379.75"/><polygon class="cls-3" points="561.64 379.75 546.95 362.93 561.64 346.12 576.33 362.93 561.64 379.75"/><polygon class="cls-3" points="591.79 379.75 577.1 362.93 591.79 346.12 606.48 362.93 591.79 379.75"/><polygon class="cls-3" points="621.98 379.75 607.29 362.93 621.98 346.12 636.66 362.93 621.98 379.75"/><polygon class="cls-3" points="652.52 379.75 637.84 362.93 652.52 346.12 667.21 362.93 652.52 379.75"/></g><path class="cls-3" d="M653,356.69V322.83H629.23c-.15,1.85-.35,3-.35,3a52.94,52.94,0,0,1-15.37-3h-8.26c-3.81,11.09-13.16,19.09-13.16,19.09s-9.36-8-13.17-19.09H571a52.94,52.94,0,0,1-15.37,3s-.2-1.12-.35-3H531.21v33.86Z"/><path class="cls-3" d="M644.68,288s-8.12,9.51-19.34,13.27c3.3,6.75,3.83,14.39,3.7,19.58H653V282.88H639.38A49.9,49.9,0,0,1,644.68,288Z"/><path class="cls-3" d="M539.49,288s8.12,9.51,19.35,13.27c-3.3,6.75-3.84,14.39-3.71,19.58H531.21V282.88h13.58A49.9,49.9,0,0,0,539.49,288Z"/><path class="cls-3" d="M598.75,311.05c-5.33-6.42-6.46-15.1-6.49-21.16l-.17-.15-.18.15c0,6.06-1.15,14.74-6.49,21.16a25.29,25.29,0,0,1-6.38,5.4c2.59,11.66,12.88,20.43,12.88,20.43s10.39-8.86,12.92-20.6A25.1,25.1,0,0,1,598.75,311.05Z"/><path class="cls-3" d="M561.6,298.39a23.8,23.8,0,0,1,3.09-4.85c8.62-10.39,25.07-11.07,26.59-11.11-4.53-4-12.55-9.62-21.71-9.62-14.16,0-25.63,13.48-25.63,13.48S551.35,295,561.6,298.39Z"/><path class="cls-3" d="M619.48,293.84a23.8,23.8,0,0,1,3.09,4.85c10.25-3.42,17.67-12.1,17.67-12.1s-11.48-13.48-25.64-13.48c-9.16,0-17.18,5.63-21.71,9.62C594.41,282.77,610.86,283.45,619.48,293.84Z"/><path class="cls-3" d="M583.14,296.22a28.48,28.48,0,0,1-13.57,3.85,25.12,25.12,0,0,1-8-1.38c-5.15,10.55-2.92,23.48-2.92,23.48S569.9,322,579,316.45a23.57,23.57,0,0,1-.59-5.21C578.45,305.62,580.58,300.44,583.14,296.22Z"/><path class="cls-3" d="M600.54,296c2.64,4.27,4.86,9.55,4.86,15.29a24,24,0,0,1-.56,5c9.19,5.73,20.66,5.89,20.66,5.89s2.23-12.93-2.93-23.48a25.07,25.07,0,0,1-8,1.38A28.73,28.73,0,0,1,600.54,296Z"/><path class="cls-3" d="M531.06,623.41v33.86h23.73c.16-1.85.35-3,.35-3a52.89,52.89,0,0,1,15.37,3h8.26c3.81-11.1,13.17-19.09,13.17-19.09s9.36,8,13.17,19.09H613a53,53,0,0,1,15.38-3s.19,1.12.34,3h24.1V623.41Z"/><path class="cls-3" d="M539.34,692.13s8.12-9.5,19.35-13.26c-3.3-6.75-3.84-14.39-3.71-19.58H531.06v37.93h13.58A49.3,49.3,0,0,1,539.34,692.13Z"/><path class="cls-3" d="M644.53,692.13s-8.11-9.5-19.34-13.26c3.3-6.75,3.83-14.39,3.7-19.58h23.93v37.93H639.23A49.3,49.3,0,0,0,644.53,692.13Z"/><path class="cls-3" d="M585.27,669c5.34,6.43,6.46,15.11,6.49,21.16l.18.16.17-.16c0-6.05,1.16-14.73,6.49-21.16a25.32,25.32,0,0,1,6.39-5.39c-2.6-11.66-12.89-20.43-12.89-20.43s-10.38,8.85-12.92,20.6A25.09,25.09,0,0,1,585.27,669Z"/><path class="cls-3" d="M622.43,681.7a24.31,24.31,0,0,1-3.09,4.86c-8.63,10.38-25.07,11.07-26.6,11.11,4.54,4,12.55,9.61,21.71,9.61,14.16,0,25.64-13.47,25.64-13.47S632.68,685.13,622.43,681.7Z"/><path class="cls-3" d="M564.54,686.26a23.87,23.87,0,0,1-3.09-4.86c-10.25,3.43-17.66,12.11-17.66,12.11S555.27,707,569.42,707c9.16,0,17.18-5.63,21.71-9.61C589.61,697.33,573.16,696.64,564.54,686.26Z"/><path class="cls-3" d="M600.89,683.88A28.44,28.44,0,0,1,614.45,680a25.46,25.46,0,0,1,8,1.37c5.15-10.54,2.92-23.47,2.92-23.47s-11.22.16-20.36,5.72a24.18,24.18,0,0,1,.59,5.21C605.58,674.48,603.45,679.66,600.89,683.88Z"/><path class="cls-3" d="M583.48,684.15c-2.63-4.28-4.85-9.55-4.85-15.29a24,24,0,0,1,.55-5c-9.19-5.74-20.65-5.89-20.65-5.89s-2.23,12.93,2.92,23.47a25.4,25.4,0,0,1,8-1.37A28.7,28.7,0,0,1,583.48,684.15Z"/><circle class="cls-2" cx="891.06" cy="778.56" r="15.66"/><rect class="cls-3" x="989.61" y="222.69" width="469.02" height="857.31"/><rect class="cls-2" x="1033.76" y="263.18" width="170.24" height="453.73"/><rect class="cls-3" x="1057.95" y="446.68" width="26.81" height="26.81"/><rect class="cls-3" x="1089.58" y="446.68" width="26.81" height="26.81"/><rect class="cls-3" x="1121.22" y="446.68" width="26.81" height="26.81"/><rect class="cls-3" x="1152.85" y="446.68" width="26.81" height="26.81"/><rect class="cls-3" x="1057.95" y="415.18" width="26.81" height="26.81"/><rect class="cls-3" x="1089.58" y="415.18" width="26.81" height="26.81"/><rect class="cls-3" x="1121.22" y="415.18" width="26.81" height="26.81"/><rect class="cls-3" x="1152.85" y="415.18" width="26.81" height="26.81"/><rect class="cls-3" x="1057.95" y="383.29" width="26.81" height="26.81"/><rect class="cls-3" x="1089.58" y="383.29" width="26.81" height="26.81"/><rect class="cls-3" x="1121.22" y="383.29" width="26.81" height="26.81"/><rect class="cls-3" x="1152.85" y="383.29" width="26.81" height="26.81"/><rect class="cls-3" x="1057.95" y="478.19" width="26.81" height="26.81"/><rect class="cls-3" x="1089.58" y="478.19" width="26.81" height="26.81"/><rect class="cls-3" x="1121.22" y="478.19" width="26.81" height="26.81"/><rect class="cls-3" x="1152.85" y="478.19" width="26.81" height="26.81"/><rect class="cls-3" x="1057.95" y="509.58" width="26.81" height="26.81"/><rect class="cls-3" x="1089.58" y="509.58" width="26.81" height="26.81"/><rect class="cls-3" x="1121.22" y="509.58" width="26.81" height="26.81"/><rect class="cls-3" x="1152.85" y="509.58" width="26.81" height="26.81"/><rect class="cls-3" x="1057.95" y="540.73" width="26.81" height="26.81"/><rect class="cls-3" x="1089.58" y="540.73" width="26.81" height="26.81"/><rect class="cls-3" x="1121.22" y="540.73" width="26.81" height="26.81"/><rect class="cls-3" x="1152.85" y="540.73" width="26.81" height="26.81"/><rect class="cls-3" x="1057.95" y="571.87" width="26.81" height="26.81"/><rect class="cls-3" x="1089.58" y="571.87" width="26.81" height="26.81"/><rect class="cls-3" x="1121.22" y="571.87" width="26.81" height="26.81"/><rect class="cls-3" x="1152.85" y="571.87" width="26.81" height="26.81"/><rect class="cls-3" x="1057.93" y="601.94" width="17.61" height="17.61"/><rect class="cls-3" x="1078.71" y="601.94" width="17.61" height="17.61"/><rect class="cls-3" x="1099.49" y="601.94" width="17.61" height="17.61"/><rect class="cls-3" x="1120.27" y="601.94" width="17.61" height="17.61"/><rect class="cls-3" x="1141.29" y="601.94" width="17.61" height="17.61"/><rect class="cls-3" x="1162.07" y="601.94" width="17.61" height="17.61"/><rect class="cls-3" x="1057.93" y="361.39" width="17.61" height="17.61"/><rect class="cls-3" x="1078.71" y="361.39" width="17.61" height="17.61"/><rect class="cls-3" x="1099.49" y="361.39" width="17.61" height="17.61"/><rect class="cls-3" x="1120.27" y="361.39" width="17.61" height="17.61"/><rect class="cls-3" x="1141.29" y="361.39" width="17.61" height="17.61"/><rect class="cls-3" x="1162.07" y="361.39" width="17.61" height="17.61"/><path class="cls-3" d="M1057.93,623v33.86h23.73c.15-1.85.35-3,.35-3a52.94,52.94,0,0,1,15.37,3h8.26c3.81-11.09,13.17-19.09,13.17-19.09s9.35,8,13.17,19.09h7.89a53,53,0,0,1,15.38-3s.19,1.12.34,3h24.1V623Z"/><path class="cls-3" d="M1066.21,691.72s8.12-9.51,19.35-13.26c-3.3-6.76-3.84-14.4-3.71-19.59h-23.92V696.8h13.58A49.9,49.9,0,0,1,1066.21,691.72Z"/><path class="cls-3" d="M1171.4,691.72s-8.12-9.51-19.34-13.26c3.3-6.76,3.83-14.4,3.7-19.59h23.93V696.8H1166.1A49.9,49.9,0,0,0,1171.4,691.72Z"/><path class="cls-3" d="M1112.14,668.63c5.34,6.42,6.46,15.1,6.49,21.16l.18.15.17-.15c0-6.06,1.16-14.74,6.49-21.16a25.16,25.16,0,0,1,6.39-5.4c-2.6-11.66-12.89-20.42-12.89-20.42s-10.39,8.85-12.92,20.59A24.92,24.92,0,0,1,1112.14,668.63Z"/><path class="cls-3" d="M1149.29,681.29a24.54,24.54,0,0,1-3.08,4.86c-8.63,10.38-25.08,11.06-26.6,11.11,4.53,4,12.55,9.61,21.71,9.61,14.16,0,25.64-13.48,25.64-13.48S1159.55,684.71,1149.29,681.29Z"/><path class="cls-3" d="M1091.41,685.85a24.15,24.15,0,0,1-3.09-4.86c-10.25,3.42-17.66,12.1-17.66,12.1s11.47,13.48,25.63,13.48c9.16,0,17.18-5.63,21.71-9.61C1116.48,696.91,1100,696.23,1091.41,685.85Z"/><path class="cls-3" d="M1127.76,683.47a28.3,28.3,0,0,1,13.56-3.85,25.07,25.07,0,0,1,8,1.37c5.16-10.55,2.93-23.48,2.93-23.48s-11.22.16-20.36,5.72a24.26,24.26,0,0,1,.59,5.21C1132.45,674.06,1130.32,679.24,1127.76,683.47Z"/><path class="cls-3" d="M1110.35,683.73c-2.63-4.27-4.85-9.55-4.85-15.29a24,24,0,0,1,.55-5c-9.19-5.73-20.65-5.89-20.65-5.89s-2.23,12.93,2.92,23.48a25.11,25.11,0,0,1,8-1.37A28.7,28.7,0,0,1,1110.35,683.73Z"/><path class="cls-3" d="M1179.83,357.11V323.24H1156.1c-.15,1.86-.35,3-.35,3a52.55,52.55,0,0,1-15.37-3h-8.26c-3.81,11.1-13.17,19.1-13.17,19.1s-9.35-8-13.16-19.1h-7.9a52.58,52.58,0,0,1-15.38,3s-.19-1.11-.34-3h-24.1v33.87Z"/><path class="cls-3" d="M1171.55,288.38s-8.12,9.51-19.35,13.26c3.3,6.76,3.84,14.39,3.71,19.59h23.92V283.29h-13.58A50.5,50.5,0,0,1,1171.55,288.38Z"/><path class="cls-3" d="M1066.36,288.38s8.12,9.51,19.34,13.26c-3.3,6.76-3.83,14.39-3.7,19.59h-23.93V283.29h13.59A50.5,50.5,0,0,0,1066.36,288.38Z"/><path class="cls-3" d="M1125.62,311.47c-5.34-6.42-6.46-15.1-6.49-21.16l-.18-.15-.17.15c0,6.06-1.16,14.74-6.49,21.16a25.36,25.36,0,0,1-6.39,5.4c2.6,11.66,12.89,20.42,12.89,20.42s10.39-8.85,12.92-20.6A24.87,24.87,0,0,1,1125.62,311.47Z"/><path class="cls-3" d="M1088.47,298.81a23.87,23.87,0,0,1,3.09-4.86c8.62-10.38,25.07-11.07,26.59-11.11-4.53-4-12.55-9.61-21.71-9.61-14.16,0-25.64,13.48-25.64,13.48S1078.21,295.39,1088.47,298.81Z"/><path class="cls-3" d="M1146.35,294.25a23.87,23.87,0,0,1,3.09,4.86c10.25-3.42,17.66-12.1,17.66-12.1s-11.47-13.48-25.63-13.48c-9.16,0-17.18,5.63-21.71,9.61C1121.28,283.18,1137.73,283.87,1146.35,294.25Z"/><path class="cls-3" d="M1110,296.63a28.3,28.3,0,0,1-13.56,3.85,25.07,25.07,0,0,1-8-1.37c-5.16,10.55-2.93,23.47-2.93,23.47s11.22-.16,20.36-5.71a24.33,24.33,0,0,1-.59-5.21C1105.31,306,1107.44,300.86,1110,296.63Z"/><path class="cls-3" d="M1127.41,296.37c2.63,4.27,4.86,9.55,4.86,15.29a23.93,23.93,0,0,1-.56,5c9.19,5.74,20.65,5.89,20.65,5.89s2.23-12.92-2.92-23.47a25.11,25.11,0,0,1-8,1.37A28.83,28.83,0,0,1,1127.41,296.37Z"/><rect class="cls-2" x="1244.24" y="263.45" width="170.24" height="453.73" transform="translate(2658.71 980.64) rotate(180)"/><rect class="cls-3" x="1268.43" y="446.95" width="26.81" height="26.81"/><rect class="cls-3" x="1300.06" y="446.95" width="26.81" height="26.81"/><rect class="cls-3" x="1331.69" y="446.95" width="26.81" height="26.81"/><rect class="cls-3" x="1363.33" y="446.95" width="26.81" height="26.81"/><rect class="cls-3" x="1268.43" y="415.45" width="26.81" height="26.81"/><rect class="cls-3" x="1300.06" y="415.45" width="26.81" height="26.81"/><rect class="cls-3" x="1331.69" y="415.45" width="26.81" height="26.81"/><rect class="cls-3" x="1363.33" y="415.45" width="26.81" height="26.81"/><rect class="cls-3" x="1268.43" y="383.56" width="26.81" height="26.81"/><rect class="cls-3" x="1300.06" y="383.56" width="26.81" height="26.81"/><rect class="cls-3" x="1331.69" y="383.56" width="26.81" height="26.81"/><rect class="cls-3" x="1363.33" y="383.56" width="26.81" height="26.81"/><rect class="cls-3" x="1268.43" y="478.46" width="26.81" height="26.81"/><rect class="cls-3" x="1300.06" y="478.46" width="26.81" height="26.81"/><rect class="cls-3" x="1331.69" y="478.46" width="26.81" height="26.81"/><rect class="cls-3" x="1363.33" y="478.46" width="26.81" height="26.81"/><rect class="cls-3" x="1268.43" y="509.85" width="26.81" height="26.81"/><rect class="cls-3" x="1300.06" y="509.85" width="26.81" height="26.81"/><rect class="cls-3" x="1331.69" y="509.85" width="26.81" height="26.81"/><rect class="cls-3" x="1363.33" y="509.85" width="26.81" height="26.81"/><rect class="cls-3" x="1268.43" y="541" width="26.81" height="26.81"/><rect class="cls-3" x="1300.06" y="541" width="26.81" height="26.81"/><rect class="cls-3" x="1331.69" y="541" width="26.81" height="26.81"/><rect class="cls-3" x="1363.33" y="541" width="26.81" height="26.81"/><rect class="cls-3" x="1268.43" y="572.14" width="26.81" height="26.81"/><rect class="cls-3" x="1300.06" y="572.14" width="26.81" height="26.81"/><rect class="cls-3" x="1331.69" y="572.14" width="26.81" height="26.81"/><rect class="cls-3" x="1363.33" y="572.14" width="26.81" height="26.81"/><rect class="cls-3" x="1268.4" y="602.21" width="17.61" height="17.61"/><rect class="cls-3" x="1289.18" y="602.21" width="17.61" height="17.61"/><rect class="cls-3" x="1309.96" y="602.21" width="17.61" height="17.61"/><rect class="cls-3" x="1330.74" y="602.21" width="17.61" height="17.61"/><rect class="cls-3" x="1351.77" y="602.21" width="17.61" height="17.61"/><rect class="cls-3" x="1372.55" y="602.21" width="17.61" height="17.61"/><rect class="cls-3" x="1268.4" y="361.66" width="17.61" height="17.61"/><rect class="cls-3" x="1289.18" y="361.66" width="17.61" height="17.61"/><rect class="cls-3" x="1309.96" y="361.66" width="17.61" height="17.61"/><rect class="cls-3" x="1330.74" y="361.66" width="17.61" height="17.61"/><rect class="cls-3" x="1351.77" y="361.66" width="17.61" height="17.61"/><rect class="cls-3" x="1372.55" y="361.66" width="17.61" height="17.61"/><path class="cls-3" d="M1268.4,623.26v33.86h23.74c.15-1.85.34-3,.34-3a53,53,0,0,1,15.38,3h8.25c3.82-11.09,13.17-19.09,13.17-19.09s9.36,8,13.17,19.09h7.9a52.94,52.94,0,0,1,15.37-3s.19,1.12.35,3h24.09V623.26Z"/><path class="cls-3" d="M1276.69,692s8.11-9.51,19.34-13.26c-3.3-6.76-3.83-14.4-3.7-19.59H1268.4v37.93H1282A49.9,49.9,0,0,1,1276.69,692Z"/><path class="cls-3" d="M1381.88,692s-8.12-9.51-19.35-13.26c3.3-6.76,3.84-14.4,3.71-19.59h23.92v37.93h-13.58A49.9,49.9,0,0,0,1381.88,692Z"/><path class="cls-3" d="M1322.62,668.9c5.33,6.42,6.46,15.1,6.49,21.16l.17.15.18-.15c0-6.06,1.15-14.74,6.49-21.16a25.29,25.29,0,0,1,6.38-5.4c-2.59-11.66-12.88-20.43-12.88-20.43s-10.39,8.86-12.92,20.6A25.1,25.1,0,0,1,1322.62,668.9Z"/><path class="cls-3" d="M1359.77,681.56a24.15,24.15,0,0,1-3.09,4.86c-8.62,10.38-25.07,11.06-26.59,11.1,4.53,4,12.55,9.62,21.71,9.62,14.16,0,25.63-13.48,25.63-13.48S1370,685,1359.77,681.56Z"/><path class="cls-3" d="M1301.88,686.12a24.6,24.6,0,0,1-3.09-4.86c-10.25,3.42-17.66,12.1-17.66,12.1s11.48,13.48,25.64,13.48c9.16,0,17.18-5.63,21.71-9.62C1327,697.18,1310.51,696.5,1301.88,686.12Z"/><path class="cls-3" d="M1338.23,683.73a28.47,28.47,0,0,1,13.57-3.84,25.11,25.11,0,0,1,8,1.37c5.15-10.55,2.92-23.48,2.92-23.48s-11.22.16-20.36,5.72a23.64,23.64,0,0,1,.59,5.21C1342.92,674.33,1340.79,679.51,1338.23,683.73Z"/><path class="cls-3" d="M1320.82,684c-2.63-4.27-4.85-9.55-4.85-15.29a24,24,0,0,1,.56-5c-9.19-5.73-20.66-5.89-20.66-5.89s-2.23,12.93,2.92,23.48a25.18,25.18,0,0,1,8-1.37A28.66,28.66,0,0,1,1320.82,684Z"/><path class="cls-3" d="M1390.31,357.38V323.51h-23.73c-.16,1.86-.35,3-.35,3a52.49,52.49,0,0,1-15.37-3h-8.26c-3.81,11.1-13.17,19.1-13.17,19.1s-9.36-8-13.17-19.1h-7.9a52.49,52.49,0,0,1-15.37,3s-.19-1.11-.35-3h-24.09v33.87Z"/><path class="cls-3" d="M1382,288.65s-8.12,9.51-19.35,13.26c3.3,6.76,3.84,14.39,3.71,19.59h23.92V283.56h-13.58A50.5,50.5,0,0,1,1382,288.65Z"/><path class="cls-3" d="M1276.84,288.65s8.11,9.51,19.34,13.26c-3.3,6.76-3.83,14.39-3.7,19.59h-23.93V283.56h13.59A49.27,49.27,0,0,0,1276.84,288.65Z"/><path class="cls-3" d="M1336.1,311.74c-5.34-6.42-6.46-15.1-6.5-21.16l-.17-.15-.17.15c0,6.06-1.16,14.74-6.49,21.16a25.29,25.29,0,0,1-6.39,5.39c2.6,11.67,12.89,20.43,12.89,20.43s10.38-8.85,12.91-20.6A25.24,25.24,0,0,1,1336.1,311.74Z"/><path class="cls-3" d="M1298.94,299.08a24.31,24.31,0,0,1,3.09-4.86c8.62-10.38,25.07-11.07,26.6-11.11-4.54-4-12.55-9.61-21.71-9.61-14.16,0-25.64,13.48-25.64,13.48S1288.69,295.66,1298.94,299.08Z"/><path class="cls-3" d="M1356.83,294.52a23.87,23.87,0,0,1,3.09,4.86c10.25-3.42,17.66-12.1,17.66-12.1s-11.48-13.48-25.64-13.48c-9.16,0-17.17,5.63-21.71,9.61C1331.76,283.45,1348.21,284.14,1356.83,294.52Z"/><path class="cls-3" d="M1320.48,296.9a28.36,28.36,0,0,1-13.56,3.85,25.13,25.13,0,0,1-8-1.37c-5.15,10.55-2.92,23.47-2.92,23.47s11.22-.16,20.36-5.72a24.16,24.16,0,0,1-.59-5.2C1315.79,306.31,1317.92,301.13,1320.48,296.9Z"/><path class="cls-3" d="M1337.89,296.64c2.63,4.27,4.85,9.55,4.85,15.29a23.29,23.29,0,0,1-.56,5c9.2,5.74,20.66,5.89,20.66,5.89s2.23-12.92-2.92-23.47a25.13,25.13,0,0,1-8,1.37A28.79,28.79,0,0,1,1337.89,296.64Z"/><circle class="cls-2" cx="1028.87" cy="778.56" r="15.66"/></svg>