<?xml version="1.0" encoding="iso-8859-1"?>
<!-- Generator: Adobe Illustrator 25.4.1, SVG Export Plug-In . SVG Version: 6.00 Build 0)  -->
<svg version="1.1" id="Layer_1" xmlns="http://www.w3.org/2000/svg" xmlns:xlink="http://www.w3.org/1999/xlink" x="0px" y="0px"
	 viewBox="0 0 892 1280" style="enable-background:new 0 0 892 1280;" xml:space="preserve">
<g transform="translate(0.000000,1280.000000) scale(0.100000,-0.100000)">
	<path d="M8470,12787c-15-7-123-154-268-362c-134-193-248-349-255-347s-19,10-28,18c-22,20-30,19-153-28l-111-42l-80-95
		c-44-53-313-431-596-841C4342,7279,3085,5463,1991,3882C1286,2863,677,1977,638,1912C349,1434,173,922,120,407c-9-82-17-111-49-175
		C-5,79-16,20,30,5c30-9,57,9,160,111c75,73,110,100,165,125c260,117,591,352,859,608c95,91,263,278,361,401
		c51,63,726,1031,1500,2150c775,1119,1742,2517,2150,3106l741,1071v-111c-1-84,4-120,17-149c9-21,21-37,26-35
		c22,7,808,1103,2514,3501c113,159,127,184,127,220c0,54-36,113-106,175l-57,50l46,80l47,81v124v125l-75,51c-41,29-75,54-75,56
		c0,3,105,157,233,342c129,186,239,349,246,362c17,31,6,83-22,108c-26,23-303,215-334,232C8525,12803,8501,12803,8470,12787z
		 M8440,11125c0-3-453-676-1007-1495C6432,8148,6426,8139,6372,8110c-29-16-52-25-50-21c9,23,2103,3041,2110,3041
		C8436,11130,8440,11128,8440,11125z"/>
</g>
</svg>
