<svg id="Layer_1" data-name="Layer 1" xmlns="http://www.w3.org/2000/svg" xmlns:xlink="http://www.w3.org/1999/xlink" viewBox="0 0 1920 1080"><defs><style>.cls-1{fill:none;}.cls-2,.cls-6{fill:#fff;}.cls-2{stroke:#fff;stroke-miterlimit:10;stroke-width:6px;}.cls-3{fill:#ffdd50;}.cls-4{clip-path:url(#clip-path);}.cls-5{clip-path:url(#clip-path-2);}</style><clipPath id="clip-path"><rect class="cls-1" x="740.2" y="373.89" width="122.64" height="260.53"/></clipPath><clipPath id="clip-path-2"><rect class="cls-1" x="530.65" y="373.62" width="122.64" height="260.53"/></clipPath></defs><rect class="cls-2" x="2.54" y="6.44" width="1920" height="1077.89"/><rect x="460.31" y="234.96" width="471.99" height="861.05"/><rect class="cls-3" x="715.72" y="275.56" width="171.47" height="456.11" transform="translate(1602.9 1007.23) rotate(180)"/><g class="cls-4"><polygon points="755.8 413.55 741 396.64 755.8 379.74 770.59 396.64 755.8 413.55"/><polygon points="786.3 413.55 771.51 396.64 786.3 379.74 801.1 396.64 786.3 413.55"/><polygon points="816.67 413.55 801.87 396.64 816.67 379.74 831.46 396.64 816.67 413.55"/><polygon points="847.07 413.55 832.28 396.64 847.07 379.74 861.87 396.64 847.07 413.55"/><polygon points="740.51 435 725.72 418.1 740.51 401.19 755.3 418.1 740.51 435"/><polygon points="771.01 435 756.22 418.1 771.01 401.19 785.81 418.1 771.01 435"/><polygon points="801.38 435 786.58 418.1 801.38 401.19 816.17 418.1 801.38 435"/><polygon points="831.78 435 816.99 418.1 831.78 401.19 846.58 418.1 831.78 435"/><polygon points="862.55 435 847.76 418.1 862.55 401.19 877.35 418.1 862.55 435"/><polygon points="755.3 456.93 740.5 440.02 755.3 423.12 770.09 440.02 755.3 456.93"/><polygon points="785.8 456.93 771.01 440.02 785.8 423.12 800.6 440.02 785.8 456.93"/><polygon points="816.17 456.93 801.37 440.02 816.17 423.12 830.96 440.02 816.17 456.93"/><polygon points="846.57 456.93 831.78 440.02 846.57 423.12 861.37 440.02 846.57 456.93"/><polygon points="740.61 478.12 725.82 461.21 740.61 444.31 755.4 461.21 740.61 478.12"/><polygon points="771.11 478.12 756.32 461.21 771.11 444.31 785.9 461.21 771.11 478.12"/><polygon points="801.48 478.12 786.68 461.21 801.48 444.31 816.27 461.21 801.48 478.12"/><polygon points="831.88 478.12 817.09 461.21 831.88 444.31 846.68 461.21 831.88 478.12"/><polygon points="862.65 478.12 847.86 461.21 862.65 444.31 877.45 461.21 862.65 478.12"/><polygon points="756.01 500.31 741.22 483.4 756.01 466.5 770.81 483.4 756.01 500.31"/><polygon points="786.51 500.31 771.72 483.4 786.51 466.5 801.31 483.4 786.51 500.31"/><polygon points="816.88 500.31 802.09 483.4 816.88 466.5 831.67 483.4 816.88 500.31"/><polygon points="847.29 500.31 832.49 483.4 847.29 466.5 862.08 483.4 847.29 500.31"/><polygon points="740.8 522.55 726.01 505.65 740.8 488.74 755.6 505.65 740.8 522.55"/><polygon points="771.3 522.55 756.51 505.65 771.3 488.74 786.1 505.65 771.3 522.55"/><polygon points="801.67 522.55 786.87 505.65 801.67 488.74 816.46 505.65 801.67 522.55"/><polygon points="832.07 522.55 817.28 505.65 832.07 488.74 846.87 505.65 832.07 522.55"/><polygon points="862.84 522.55 848.05 505.65 862.84 488.74 877.64 505.65 862.84 522.55"/><polygon points="756.05 543.69 741.26 526.79 756.05 509.88 770.85 526.79 756.05 543.69"/><polygon points="786.55 543.69 771.76 526.79 786.55 509.88 801.35 526.79 786.55 543.69"/><polygon points="816.92 543.69 802.12 526.79 816.92 509.88 831.71 526.79 816.92 543.69"/><polygon points="847.32 543.69 832.53 526.79 847.32 509.88 862.12 526.79 847.32 543.69"/><polygon points="740.76 565.48 725.97 548.57 740.76 531.67 755.56 548.57 740.76 565.48"/><polygon points="771.26 565.48 756.47 548.57 771.26 531.67 786.06 548.57 771.26 565.48"/><polygon points="801.63 565.48 786.84 548.57 801.63 531.67 816.42 548.57 801.63 565.48"/><polygon points="832.04 565.48 817.24 548.57 832.04 531.67 846.83 548.57 832.04 565.48"/><polygon points="862.8 565.48 848.01 548.57 862.8 531.67 877.6 548.57 862.8 565.48"/><polygon points="755.97 587.07 741.18 570.17 755.97 553.26 770.77 570.17 755.97 587.07"/><polygon points="786.48 587.07 771.68 570.17 786.48 553.26 801.27 570.17 786.48 587.07"/><polygon points="816.84 587.07 802.05 570.17 816.84 553.26 831.64 570.17 816.84 587.07"/><polygon points="847.25 587.07 832.45 570.17 847.25 553.26 862.04 570.17 847.25 587.07"/><polygon points="740.72 608.4 725.93 591.49 740.72 574.59 755.52 591.49 740.72 608.4"/><polygon points="771.23 608.4 756.43 591.49 771.23 574.59 786.02 591.49 771.23 608.4"/><polygon points="801.59 608.4 786.8 591.49 801.59 574.59 816.38 591.49 801.59 608.4"/><polygon points="832 608.4 817.2 591.49 832 574.59 846.79 591.49 832 608.4"/><polygon points="862.77 608.4 847.97 591.49 862.77 574.59 877.56 591.49 862.77 608.4"/><polygon points="755.86 630.45 741.07 613.55 755.86 596.64 770.65 613.55 755.86 630.45"/><polygon points="786.36 630.45 771.57 613.55 786.36 596.64 801.15 613.55 786.36 630.45"/><polygon points="816.73 630.45 801.93 613.55 816.73 596.64 831.52 613.55 816.73 630.45"/><polygon points="847.13 630.45 832.34 613.55 847.13 596.64 861.93 613.55 847.13 630.45"/><polygon points="740.2 651.32 725.41 634.42 740.2 617.51 755 634.42 740.2 651.32"/><polygon points="770.7 651.32 755.91 634.42 770.7 617.51 785.5 634.42 770.7 651.32"/><polygon points="801.07 651.32 786.28 634.42 801.07 617.51 815.86 634.42 801.07 651.32"/><polygon points="831.48 651.32 816.68 634.42 831.48 617.51 846.27 634.42 831.48 651.32"/><polygon points="862.24 651.32 847.45 634.42 862.24 617.51 877.04 634.42 862.24 651.32"/><polygon points="740.36 392.73 725.56 375.83 740.36 358.92 755.15 375.83 740.36 392.73"/><polygon points="770.86 392.73 756.06 375.83 770.86 358.92 785.65 375.83 770.86 392.73"/><polygon points="801.22 392.73 786.43 375.83 801.22 358.92 816.02 375.83 801.22 392.73"/><polygon points="831.63 392.73 816.84 375.83 831.63 358.92 846.42 375.83 831.63 392.73"/><polygon points="862.4 392.73 847.6 375.83 862.4 358.92 877.19 375.83 862.4 392.73"/></g><path d="M862.84,369.55v-34h-23.9c-.16,1.87-.35,3-.35,3a53.37,53.37,0,0,1-15.49-3h-8.31c-3.84,11.16-13.27,19.2-13.27,19.2s-9.42-8-13.26-19.2h-8a53.28,53.28,0,0,1-15.48,3s-.19-1.12-.35-3H740.2v34Z"/><path d="M854.5,300.47S846.32,310,835,313.8c3.33,6.79,3.87,14.47,3.73,19.68h24.1V295.35H849.16A50.68,50.68,0,0,1,854.5,300.47Z"/><path d="M748.55,300.47S756.72,310,768,313.8c-3.32,6.79-3.86,14.47-3.73,19.68H740.2V295.35h13.69A49.47,49.47,0,0,0,748.55,300.47Z"/><path d="M808.24,323.68c-5.38-6.46-6.51-15.18-6.54-21.27l-.18-.16-.17.16c0,6.09-1.17,14.81-6.54,21.27a25.59,25.59,0,0,1-6.43,5.42c2.61,11.72,13,20.54,13,20.54s10.46-8.9,13-20.71A25.4,25.4,0,0,1,808.24,323.68Z"/><path d="M770.81,311a24.15,24.15,0,0,1,3.12-4.88c8.68-10.44,25.25-11.13,26.78-11.17-4.56-4-12.64-9.66-21.86-9.66-14.26,0-25.83,13.54-25.83,13.54S760.49,307.51,770.81,311Z"/><path d="M829.12,306.37a24.55,24.55,0,0,1,3.11,4.88c10.33-3.44,17.79-12.17,17.79-12.17s-11.56-13.54-25.82-13.54c-9.23,0-17.3,5.66-21.87,9.66C803.87,295.24,820.43,295.93,829.12,306.37Z"/><path d="M792.51,308.76a28.62,28.62,0,0,1-13.66,3.87,25.5,25.5,0,0,1-8-1.38c-5.19,10.6-2.94,23.6-2.94,23.6s11.3-.16,20.51-5.75a23.84,23.84,0,0,1-.6-5.24C787.78,318.22,789.93,313,792.51,308.76Z"/><path d="M810,308.5c2.65,4.29,4.89,9.6,4.89,15.36a24.23,24.23,0,0,1-.56,5.07c9.26,5.77,20.8,5.92,20.8,5.92s2.25-13-2.94-23.6a25.44,25.44,0,0,1-8,1.38A29.09,29.09,0,0,1,810,308.5Z"/><path d="M740.05,637.67v34H764c.15-1.86.35-3,.35-3a53.05,53.05,0,0,1,15.48,3h8.32c3.84-11.15,13.26-19.19,13.26-19.19s9.43,8,13.27,19.19h8a53.14,53.14,0,0,1,15.49-3s.19,1.12.35,3h24.26v-34Z"/><path d="M748.4,706.76s8.17-9.56,19.48-13.33c-3.32-6.79-3.86-14.47-3.73-19.69h-24.1v38.13h13.69A50.06,50.06,0,0,1,748.4,706.76Z"/><path d="M854.35,706.76s-8.18-9.56-19.49-13.33c3.33-6.79,3.87-14.47,3.74-19.69h24.09v38.13H849A50.06,50.06,0,0,0,854.35,706.76Z"/><path d="M794.66,683.55c5.37,6.45,6.51,15.18,6.54,21.27l.17.15.18-.15c0-6.09,1.16-14.82,6.54-21.27a25.28,25.28,0,0,1,6.43-5.43c-2.62-11.72-13-20.53-13-20.53s-10.46,8.9-13,20.71A25.15,25.15,0,0,1,794.66,683.55Z"/><path d="M832.08,696.27a23.74,23.74,0,0,1-3.11,4.89c-8.68,10.43-25.25,11.12-26.79,11.17,4.57,4,12.64,9.66,21.87,9.66,14.26,0,25.82-13.55,25.82-13.55S842.41,699.71,832.08,696.27Z"/><path d="M773.78,700.86a23.74,23.74,0,0,1-3.11-4.89c-10.33,3.44-17.79,12.17-17.79,12.17s11.56,13.55,25.82,13.55c9.22,0,17.3-5.66,21.86-9.67C799,712,782.46,711.29,773.78,700.86Z"/><path d="M810.39,698.46a28.7,28.7,0,0,1,13.66-3.87,25.44,25.44,0,0,1,8,1.38c5.19-10.6,2.95-23.59,2.95-23.59s-11.31.16-20.51,5.74a24.61,24.61,0,0,1,.59,5.24C815.11,689,813,694.22,810.39,698.46Z"/><path d="M792.85,698.73c-2.65-4.29-4.88-9.6-4.88-15.37a23.49,23.49,0,0,1,.56-5.06c-9.26-5.77-20.81-5.92-20.81-5.92s-2.24,13,2.95,23.59a25.44,25.44,0,0,1,8-1.38A28.92,28.92,0,0,1,792.85,698.73Z"/><rect class="cls-3" x="506.16" y="275.28" width="171.47" height="456.11" transform="translate(1183.78 1006.68) rotate(180)"/><g class="cls-5"><polygon points="546.24 413.27 531.45 396.37 546.24 379.47 561.04 396.37 546.24 413.27"/><polygon points="576.74 413.27 561.95 396.37 576.74 379.47 591.54 396.37 576.74 413.27"/><polygon points="607.11 413.27 592.32 396.37 607.11 379.47 621.9 396.37 607.11 413.27"/><polygon points="637.51 413.27 622.72 396.37 637.51 379.47 652.31 396.37 637.51 413.27"/><polygon points="530.95 434.73 516.16 417.82 530.95 400.92 545.75 417.82 530.95 434.73"/><polygon points="561.46 434.73 546.66 417.82 561.46 400.92 576.25 417.82 561.46 434.73"/><polygon points="591.82 434.73 577.03 417.82 591.82 400.92 606.61 417.82 591.82 434.73"/><polygon points="622.23 434.73 607.43 417.82 622.23 400.92 637.02 417.82 622.23 434.73"/><polygon points="653 434.73 638.2 417.82 653 400.92 667.79 417.82 653 434.73"/><polygon points="545.74 456.66 530.95 439.75 545.74 422.85 560.54 439.75 545.74 456.66"/><polygon points="576.24 456.66 561.45 439.75 576.24 422.85 591.04 439.75 576.24 456.66"/><polygon points="606.61 456.66 591.82 439.75 606.61 422.85 621.4 439.75 606.61 456.66"/><polygon points="637.01 456.66 622.22 439.75 637.01 422.85 651.81 439.75 637.01 456.66"/><polygon points="531.05 477.85 516.26 460.94 531.05 444.04 545.85 460.94 531.05 477.85"/><polygon points="561.55 477.85 546.76 460.94 561.55 444.04 576.35 460.94 561.55 477.85"/><polygon points="591.92 477.85 577.13 460.94 591.92 444.04 606.71 460.94 591.92 477.85"/><polygon points="622.33 477.85 607.53 460.94 622.33 444.04 637.12 460.94 622.33 477.85"/><polygon points="653.09 477.85 638.3 460.94 653.09 444.04 667.89 460.94 653.09 477.85"/><polygon points="546.46 500.04 531.66 483.13 546.46 466.23 561.25 483.13 546.46 500.04"/><polygon points="576.96 500.04 562.16 483.13 576.96 466.23 591.75 483.13 576.96 500.04"/><polygon points="607.32 500.04 592.53 483.13 607.32 466.23 622.12 483.13 607.32 500.04"/><polygon points="637.73 500.04 622.93 483.13 637.73 466.23 652.52 483.13 637.73 500.04"/><polygon points="531.24 522.28 516.45 505.38 531.24 488.47 546.04 505.38 531.24 522.28"/><polygon points="561.75 522.28 546.95 505.38 561.75 488.47 576.54 505.38 561.75 522.28"/><polygon points="592.11 522.28 577.32 505.38 592.11 488.47 606.9 505.38 592.11 522.28"/><polygon points="622.52 522.28 607.72 505.38 622.52 488.47 637.31 505.38 622.52 522.28"/><polygon points="653.29 522.28 638.49 505.38 653.29 488.47 668.08 505.38 653.29 522.28"/><polygon points="546.49 543.42 531.7 526.51 546.49 509.61 561.29 526.51 546.49 543.42"/><polygon points="577 543.42 562.2 526.51 577 509.61 591.79 526.51 577 543.42"/><polygon points="607.36 543.42 592.57 526.51 607.36 509.61 622.15 526.51 607.36 543.42"/><polygon points="637.77 543.42 622.97 526.51 637.77 509.61 652.56 526.51 637.77 543.42"/><polygon points="531.21 565.2 516.41 548.3 531.21 531.39 546 548.3 531.21 565.2"/><polygon points="561.71 565.2 546.91 548.3 561.71 531.39 576.5 548.3 561.71 565.2"/><polygon points="592.07 565.2 577.28 548.3 592.07 531.39 606.87 548.3 592.07 565.2"/><polygon points="622.48 565.2 607.68 548.3 622.48 531.39 637.27 548.3 622.48 565.2"/><polygon points="653.25 565.2 638.45 548.3 653.25 531.39 668.04 548.3 653.25 565.2"/><polygon points="546.42 586.8 531.62 569.9 546.42 552.99 561.21 569.9 546.42 586.8"/><polygon points="576.92 586.8 562.13 569.9 576.92 552.99 591.71 569.9 576.92 586.8"/><polygon points="607.28 586.8 592.49 569.9 607.28 552.99 622.08 569.9 607.28 586.8"/><polygon points="637.69 586.8 622.9 569.9 637.69 552.99 652.48 569.9 637.69 586.8"/><polygon points="531.17 608.13 516.37 591.22 531.17 574.32 545.96 591.22 531.17 608.13"/><polygon points="561.67 608.13 546.88 591.22 561.67 574.32 576.46 591.22 561.67 608.13"/><polygon points="592.03 608.13 577.24 591.22 592.03 574.32 606.83 591.22 592.03 608.13"/><polygon points="622.44 608.13 607.65 591.22 622.44 574.32 637.23 591.22 622.44 608.13"/><polygon points="653.21 608.13 638.41 591.22 653.21 574.32 668 591.22 653.21 608.13"/><polygon points="546.3 630.18 531.51 613.28 546.3 596.37 561.1 613.28 546.3 630.18"/><polygon points="576.8 630.18 562.01 613.28 576.8 596.37 591.6 613.28 576.8 630.18"/><polygon points="607.17 630.18 592.38 613.28 607.17 596.37 621.96 613.28 607.17 630.18"/><polygon points="637.58 630.18 622.78 613.28 637.58 596.37 652.37 613.28 637.58 630.18"/><polygon points="530.64 651.05 515.85 634.15 530.64 617.24 545.44 634.15 530.64 651.05"/><polygon points="561.15 651.05 546.35 634.15 561.15 617.24 575.94 634.15 561.15 651.05"/><polygon points="591.51 651.05 576.72 634.15 591.51 617.24 606.31 634.15 591.51 651.05"/><polygon points="621.92 651.05 607.13 634.15 621.92 617.24 636.71 634.15 621.92 651.05"/><polygon points="652.69 651.05 637.89 634.15 652.69 617.24 667.48 634.15 652.69 651.05"/><polygon points="530.8 392.46 516 375.56 530.8 358.65 545.59 375.56 530.8 392.46"/><polygon points="561.3 392.46 546.51 375.56 561.3 358.65 576.1 375.56 561.3 392.46"/><polygon points="591.67 392.46 576.87 375.56 591.67 358.65 606.46 375.56 591.67 392.46"/><polygon points="622.07 392.46 607.28 375.56 622.07 358.65 636.87 375.56 622.07 392.46"/><polygon points="652.84 392.46 638.05 375.56 652.84 358.65 667.63 375.56 652.84 392.46"/></g><path d="M653.29,369.28v-34H629.38c-.16,1.86-.35,3-.35,3a53.28,53.28,0,0,1-15.48-3h-8.32C601.39,346.4,592,354.43,592,354.43s-9.43-8-13.27-19.19h-8a53.37,53.37,0,0,1-15.49,3s-.19-1.13-.35-3H530.65v34Z"/><path d="M644.94,300.2s-8.17,9.55-19.48,13.33c3.32,6.79,3.86,14.47,3.73,19.68h24.1V295.08H639.6A49.47,49.47,0,0,1,644.94,300.2Z"/><path d="M539,300.2s8.18,9.55,19.49,13.33c-3.33,6.79-3.87,14.47-3.74,19.68H530.65V295.08h13.68A49.47,49.47,0,0,0,539,300.2Z"/><path d="M598.68,323.41c-5.37-6.46-6.51-15.18-6.54-21.27L592,302l-.18.16c0,6.09-1.16,14.81-6.54,21.27a25.41,25.41,0,0,1-6.43,5.42c2.62,11.72,13,20.53,13,20.53s10.46-8.9,13-20.7A25.59,25.59,0,0,1,598.68,323.41Z"/><path d="M561.26,310.68a23.68,23.68,0,0,1,3.11-4.88c8.68-10.44,25.25-11.13,26.79-11.17-4.57-4-12.64-9.66-21.87-9.66-14.26,0-25.82,13.54-25.82,13.54S550.93,307.24,561.26,310.68Z"/><path d="M619.56,306.1a23.68,23.68,0,0,1,3.11,4.88c10.33-3.44,17.79-12.17,17.79-12.17s-11.56-13.54-25.82-13.54c-9.22,0-17.3,5.66-21.86,9.66C594.31,295,610.88,295.66,619.56,306.1Z"/><path d="M583,308.49a28.62,28.62,0,0,1-13.66,3.87,25.44,25.44,0,0,1-8-1.38c-5.19,10.6-3,23.6-3,23.6s11.31-.16,20.51-5.75a23.84,23.84,0,0,1-.59-5.24C578.23,318,580.37,312.74,583,308.49Z"/><path d="M600.48,308.22c2.66,4.3,4.89,9.61,4.89,15.37a23.58,23.58,0,0,1-.56,5.07c9.26,5.76,20.81,5.92,20.81,5.92s2.24-13-3-23.6a25.44,25.44,0,0,1-8,1.38A29,29,0,0,1,600.48,308.22Z"/><path d="M530.5,637.4v34h23.9c.16-1.86.35-3,.35-3a53.37,53.37,0,0,1,15.49,3h8.31c3.84-11.15,13.27-19.19,13.27-19.19s9.42,8,13.26,19.19h8a53.28,53.28,0,0,1,15.48-3s.19,1.13.35,3h24.27v-34Z"/><path d="M538.84,706.49s8.18-9.56,19.49-13.33c-3.33-6.79-3.87-14.47-3.74-19.69H530.5V711.6h13.68A50.06,50.06,0,0,1,538.84,706.49Z"/><path d="M644.79,706.49s-8.17-9.56-19.48-13.33c3.32-6.79,3.86-14.47,3.73-19.69h24.1V711.6H639.45A50.06,50.06,0,0,0,644.79,706.49Z"/><path d="M585.1,683.28c5.38,6.45,6.51,15.18,6.54,21.27l.18.15.17-.15c0-6.09,1.17-14.82,6.54-21.27a25.45,25.45,0,0,1,6.43-5.43c-2.61-11.72-13-20.53-13-20.53s-10.46,8.9-13,20.71A25,25,0,0,1,585.1,683.28Z"/><path d="M622.53,696a24.22,24.22,0,0,1-3.12,4.89c-8.68,10.43-25.25,11.12-26.78,11.16,4.56,4,12.64,9.67,21.86,9.67,14.26,0,25.82-13.55,25.82-13.55S632.85,699.44,622.53,696Z"/><path d="M564.22,700.58a24.1,24.1,0,0,1-3.11-4.88c-10.33,3.44-17.79,12.17-17.79,12.17s11.56,13.55,25.82,13.55c9.23,0,17.3-5.66,21.87-9.67C589.47,711.71,572.9,711,564.22,700.58Z"/><path d="M600.83,698.19a28.62,28.62,0,0,1,13.66-3.87,25.5,25.5,0,0,1,8,1.38c5.18-10.6,2.94-23.6,2.94-23.6s-11.3.16-20.51,5.75a23.91,23.91,0,0,1,.6,5.24C605.56,688.74,603.41,694,600.83,698.19Z"/><path d="M583.3,698.46c-2.65-4.3-4.89-9.6-4.89-15.37A24.14,24.14,0,0,1,579,678c-9.26-5.77-20.8-5.93-20.8-5.93s-2.25,13,2.94,23.6a25.44,25.44,0,0,1,8-1.38A29,29,0,0,1,583.3,698.46Z"/><ellipse class="cls-6" cx="893.1" cy="793.37" rx="15.77" ry="15.74"/><rect x="992.36" y="234.58" width="472.41" height="861.81"/><rect class="cls-3" x="1036.83" y="275.28" width="171.47" height="456.11"/><rect x="1061.19" y="459.75" width="27.01" height="26.95"/><rect x="1093.06" y="459.75" width="27.01" height="26.95"/><rect x="1124.92" y="459.75" width="27.01" height="26.95"/><rect x="1156.78" y="459.75" width="27.01" height="26.95"/><rect x="1061.19" y="428.08" width="27.01" height="26.95"/><rect x="1093.06" y="428.08" width="27.01" height="26.95"/><rect x="1124.92" y="428.08" width="27.01" height="26.95"/><rect x="1156.78" y="428.08" width="27.01" height="26.95"/><rect x="1061.19" y="396.03" width="27.01" height="26.95"/><rect x="1093.06" y="396.03" width="27.01" height="26.95"/><rect x="1124.92" y="396.03" width="27.01" height="26.95"/><rect x="1156.78" y="396.03" width="27.01" height="26.95"/><rect x="1061.19" y="491.42" width="27.01" height="26.95"/><rect x="1093.06" y="491.42" width="27.01" height="26.95"/><rect x="1124.92" y="491.42" width="27.01" height="26.95"/><rect x="1156.78" y="491.42" width="27.01" height="26.95"/><rect x="1061.19" y="522.98" width="27.01" height="26.95"/><rect x="1093.06" y="522.98" width="27.01" height="26.95"/><rect x="1124.92" y="522.98" width="27.01" height="26.95"/><rect x="1156.78" y="522.98" width="27.01" height="26.95"/><rect x="1061.19" y="554.29" width="27.01" height="26.95"/><rect x="1093.06" y="554.29" width="27.01" height="26.95"/><rect x="1124.92" y="554.29" width="27.01" height="26.95"/><rect x="1156.78" y="554.29" width="27.01" height="26.95"/><rect x="1061.19" y="585.6" width="27.01" height="26.95"/><rect x="1093.06" y="585.6" width="27.01" height="26.95"/><rect x="1124.92" y="585.6" width="27.01" height="26.95"/><rect x="1156.78" y="585.6" width="27.01" height="26.95"/><rect x="1061.17" y="615.82" width="17.74" height="17.71"/><rect x="1082.1" y="615.82" width="17.74" height="17.71"/><rect x="1103.03" y="615.82" width="17.74" height="17.71"/><rect x="1123.96" y="615.82" width="17.74" height="17.71"/><rect x="1145.14" y="615.82" width="17.74" height="17.71"/><rect x="1166.07" y="615.82" width="17.74" height="17.71"/><rect x="1061.17" y="374.01" width="17.74" height="17.71"/><rect x="1082.1" y="374.01" width="17.74" height="17.71"/><rect x="1103.03" y="374.01" width="17.74" height="17.71"/><rect x="1123.96" y="374.01" width="17.74" height="17.71"/><rect x="1145.14" y="374.01" width="17.74" height="17.71"/><rect x="1166.07" y="374.01" width="17.74" height="17.71"/><path d="M1061.17,637v34h23.9c.16-1.86.35-3,.35-3a53.14,53.14,0,0,1,15.49,3h8.32c3.83-11.15,13.26-19.19,13.26-19.19s9.42,8,13.26,19.19h8a53.05,53.05,0,0,1,15.48-3s.2,1.12.35,3h24.27V637Z"/><path d="M1069.51,706.07s8.18-9.56,19.49-13.33c-3.32-6.79-3.86-14.47-3.73-19.69h-24.1v38.13h13.68A50.09,50.09,0,0,1,1069.51,706.07Z"/><path d="M1175.46,706.07s-8.17-9.56-19.48-13.33c3.32-6.79,3.86-14.47,3.73-19.69h24.1v38.13h-13.68A49.29,49.29,0,0,0,1175.46,706.07Z"/><path d="M1115.78,682.86c5.37,6.46,6.5,15.18,6.53,21.27l.18.15.17-.15c0-6.09,1.17-14.81,6.54-21.27a25.38,25.38,0,0,1,6.43-5.42c-2.61-11.73-13-20.54-13-20.54s-10.46,8.9-13,20.71A25.23,25.23,0,0,1,1115.78,682.86Z"/><path d="M1153.2,695.59a24.55,24.55,0,0,1-3.11,4.88c-8.69,10.44-25.26,11.12-26.79,11.17,4.57,4,12.64,9.66,21.87,9.66,14.26,0,25.82-13.55,25.82-13.55S1163.52,699,1153.2,695.59Z"/><path d="M1094.89,700.17a24.61,24.61,0,0,1-3.11-4.89c-10.32,3.44-17.79,12.17-17.79,12.17S1085.55,721,1099.81,721c9.23,0,17.3-5.66,21.87-9.67C1120.14,711.29,1103.58,710.6,1094.89,700.17Z"/><path d="M1131.5,697.77a28.74,28.74,0,0,1,13.67-3.87,25.49,25.49,0,0,1,8,1.38c5.19-10.6,2.94-23.59,2.94-23.59s-11.3.16-20.51,5.75a23.82,23.82,0,0,1,.6,5.23C1136.23,688.32,1134.08,693.53,1131.5,697.77Z"/><path d="M1114,698c-2.65-4.29-4.89-9.6-4.89-15.37a24.21,24.21,0,0,1,.56-5.06c-9.25-5.77-20.8-5.92-20.8-5.92s-2.25,13,2.94,23.59a25.49,25.49,0,0,1,8-1.38A29,29,0,0,1,1114,698Z"/><path d="M1184,369.7v-34h-23.91c-.15,1.86-.35,3-.35,3a53.28,53.28,0,0,1-15.48-3h-8.32c-3.84,11.15-13.26,19.19-13.26,19.19s-9.43-8-13.27-19.19h-7.95a53.28,53.28,0,0,1-15.48,3s-.2-1.13-.35-3h-24.27v34Z"/><path d="M1175.61,300.61s-8.17,9.56-19.48,13.33c3.32,6.8,3.86,14.47,3.73,19.69H1184V295.5h-13.69A50.06,50.06,0,0,1,1175.61,300.61Z"/><path d="M1069.66,300.61s8.18,9.56,19.49,13.33c-3.33,6.8-3.87,14.47-3.73,19.69h-24.1V295.5H1075A51.31,51.31,0,0,0,1069.66,300.61Z"/><path d="M1129.35,323.83c-5.37-6.46-6.5-15.19-6.54-21.28l-.17-.15-.18.15c0,6.09-1.16,14.82-6.53,21.28a25.66,25.66,0,0,1-6.44,5.42c2.62,11.72,13,20.53,13,20.53s10.46-8.9,13-20.7A25.59,25.59,0,0,1,1129.35,323.83Z"/><path d="M1091.93,311.1a24.9,24.9,0,0,1,3.11-4.89c8.69-10.43,25.25-11.12,26.79-11.16-4.57-4-12.64-9.67-21.87-9.67-14.26,0-25.82,13.55-25.82,13.55S1081.6,307.66,1091.93,311.1Z"/><path d="M1150.23,306.52a24.15,24.15,0,0,1,3.12,4.88c10.32-3.44,17.79-12.17,17.79-12.17s-11.56-13.54-25.83-13.54c-9.22,0-17.3,5.66-21.86,9.66C1125,295.39,1141.55,296.08,1150.23,306.52Z"/><path d="M1113.62,308.91a28.59,28.59,0,0,1-13.66,3.87,25.44,25.44,0,0,1-8-1.38C1086.74,322,1089,335,1089,335s11.3-.16,20.5-5.75a24.46,24.46,0,0,1-.59-5.24C1108.9,318.36,1111,313.16,1113.62,308.91Z"/><path d="M1131.16,308.64c2.65,4.3,4.89,9.6,4.89,15.37a23.59,23.59,0,0,1-.57,5.07c9.26,5.76,20.81,5.92,20.81,5.92s2.25-13-2.94-23.6a25.5,25.5,0,0,1-8,1.38A28.92,28.92,0,0,1,1131.16,308.64Z"/><rect class="cls-3" x="1248.83" y="275.56" width="171.47" height="456.11" transform="translate(2669.12 1007.23) rotate(180)"/><rect x="1273.19" y="460.02" width="27.01" height="26.95"/><rect x="1305.05" y="460.02" width="27.01" height="26.95"/><rect x="1336.91" y="460.02" width="27.01" height="26.95"/><rect x="1368.77" y="460.02" width="27.01" height="26.95"/><rect x="1273.19" y="428.35" width="27.01" height="26.95"/><rect x="1305.05" y="428.35" width="27.01" height="26.95"/><rect x="1336.91" y="428.35" width="27.01" height="26.95"/><rect x="1368.77" y="428.35" width="27.01" height="26.95"/><rect x="1273.19" y="396.3" width="27.01" height="26.95"/><rect x="1305.05" y="396.3" width="27.01" height="26.95"/><rect x="1336.91" y="396.3" width="27.01" height="26.95"/><rect x="1368.77" y="396.3" width="27.01" height="26.95"/><rect x="1273.19" y="491.69" width="27.01" height="26.95"/><rect x="1305.05" y="491.69" width="27.01" height="26.95"/><rect x="1336.91" y="491.69" width="27.01" height="26.95"/><rect x="1368.77" y="491.69" width="27.01" height="26.95"/><rect x="1273.19" y="523.25" width="27.01" height="26.95"/><rect x="1305.05" y="523.25" width="27.01" height="26.95"/><rect x="1336.91" y="523.25" width="27.01" height="26.95"/><rect x="1368.77" y="523.25" width="27.01" height="26.95"/><rect x="1273.19" y="554.56" width="27.01" height="26.95"/><rect x="1305.05" y="554.56" width="27.01" height="26.95"/><rect x="1336.91" y="554.56" width="27.01" height="26.95"/><rect x="1368.77" y="554.56" width="27.01" height="26.95"/><rect x="1273.19" y="585.87" width="27.01" height="26.95"/><rect x="1305.05" y="585.87" width="27.01" height="26.95"/><rect x="1336.91" y="585.87" width="27.01" height="26.95"/><rect x="1368.77" y="585.87" width="27.01" height="26.95"/><rect x="1273.17" y="616.09" width="17.74" height="17.71"/><rect x="1294.1" y="616.09" width="17.74" height="17.71"/><rect x="1315.03" y="616.09" width="17.74" height="17.71"/><rect x="1335.96" y="616.09" width="17.74" height="17.71"/><rect x="1357.13" y="616.09" width="17.74" height="17.71"/><rect x="1378.06" y="616.09" width="17.74" height="17.71"/><rect x="1273.17" y="374.28" width="17.74" height="17.71"/><rect x="1294.1" y="374.28" width="17.74" height="17.71"/><rect x="1315.03" y="374.28" width="17.74" height="17.71"/><rect x="1335.96" y="374.28" width="17.74" height="17.71"/><rect x="1357.13" y="374.28" width="17.74" height="17.71"/><rect x="1378.06" y="374.28" width="17.74" height="17.71"/><path d="M1273.17,637.25v34h23.9c.16-1.86.35-3,.35-3a53.05,53.05,0,0,1,15.48,3h8.32c3.84-11.15,13.27-19.19,13.27-19.19s9.42,8,13.26,19.19h8a53.14,53.14,0,0,1,15.49-3s.19,1.12.35,3h24.27v-34Z"/><path d="M1281.51,706.34s8.18-9.56,19.49-13.33c-3.33-6.79-3.87-14.47-3.74-19.69h-24.09v38.13h13.68A48.9,48.9,0,0,1,1281.51,706.34Z"/><path d="M1387.46,706.34s-8.18-9.56-19.48-13.33c3.32-6.79,3.86-14.47,3.73-19.69h24.1v38.13h-13.69A48.9,48.9,0,0,0,1387.46,706.34Z"/><path d="M1327.77,683.13c5.38,6.46,6.51,15.18,6.54,21.27l.18.16.17-.16c0-6.09,1.17-14.81,6.54-21.27a25.21,25.21,0,0,1,6.43-5.42c-2.62-11.73-13-20.54-13-20.54s-10.46,8.9-13,20.71A25.18,25.18,0,0,1,1327.77,683.13Z"/><path d="M1365.19,695.86a23.68,23.68,0,0,1-3.11,4.88c-8.68,10.44-25.25,11.13-26.78,11.17,4.56,4,12.64,9.66,21.86,9.66,14.26,0,25.82-13.55,25.82-13.55S1375.52,699.3,1365.19,695.86Z"/><path d="M1306.89,700.44a24,24,0,0,1-3.11-4.88C1293.45,699,1286,707.72,1286,707.72s11.56,13.55,25.82,13.55c9.23,0,17.3-5.66,21.87-9.66C1332.14,711.56,1315.57,710.87,1306.89,700.44Z"/><path d="M1343.5,698.05a28.62,28.62,0,0,1,13.66-3.87,25.16,25.16,0,0,1,8,1.38c5.19-10.61,3-23.6,3-23.6s-11.3.16-20.51,5.75a23.82,23.82,0,0,1,.59,5.23C1348.22,688.59,1346.08,693.8,1343.5,698.05Z"/><path d="M1326,698.31c-2.66-4.29-4.89-9.6-4.89-15.37a24.21,24.21,0,0,1,.56-5.06c-9.26-5.77-20.81-5.92-20.81-5.92s-2.24,13,3,23.6a25.16,25.16,0,0,1,8-1.38A29,29,0,0,1,1326,698.31Z"/><path d="M1396,370v-34h-23.9c-.16,1.86-.35,3-.35,3a53.28,53.28,0,0,1-15.48-3h-8.32c-3.84,11.15-13.27,19.19-13.27,19.19s-9.42-8-13.26-19.19h-7.95a53.37,53.37,0,0,1-15.49,3s-.19-1.13-.35-3h-24.27v34Z"/><path d="M1387.61,300.88s-8.18,9.56-19.49,13.34c3.33,6.79,3.87,14.46,3.74,19.68H1396V295.77h-13.68A50.06,50.06,0,0,1,1387.61,300.88Z"/><path d="M1281.66,300.88s8.17,9.56,19.48,13.34c-3.32,6.79-3.86,14.46-3.73,19.68h-24.1V295.77H1287A50.06,50.06,0,0,0,1281.66,300.88Z"/><path d="M1341.35,324.1c-5.38-6.46-6.51-15.19-6.54-21.27l-.18-.16c-.05.05-.12.1-.17.16,0,6.08-1.17,14.81-6.54,21.27a25.41,25.41,0,0,1-6.43,5.42c2.61,11.72,13,20.53,13,20.53s10.46-8.9,13-20.7A25.4,25.4,0,0,1,1341.35,324.1Z"/><path d="M1303.93,311.37a23.68,23.68,0,0,1,3.11-4.88c8.68-10.44,25.25-11.13,26.78-11.17-4.56-4-12.64-9.66-21.86-9.66-14.26,0-25.82,13.54-25.82,13.54S1293.6,307.93,1303.93,311.37Z"/><path d="M1362.23,306.79a23.68,23.68,0,0,1,3.11,4.88c10.33-3.44,17.79-12.17,17.79-12.17S1371.57,286,1357.31,286c-9.23,0-17.3,5.66-21.87,9.66C1337,295.66,1353.55,296.35,1362.23,306.79Z"/><path d="M1325.62,309.18a28.62,28.62,0,0,1-13.66,3.87,25.44,25.44,0,0,1-8-1.38c-5.19,10.6-3,23.6-3,23.6s11.3-.16,20.51-5.75a23.84,23.84,0,0,1-.59-5.24C1320.9,318.63,1323,313.43,1325.62,309.18Z"/><path d="M1343.15,308.91c2.66,4.3,4.89,9.6,4.89,15.37a24.23,24.23,0,0,1-.56,5.07c9.26,5.76,20.81,5.92,20.81,5.92s2.24-13-3-23.6a25.44,25.44,0,0,1-8,1.38A29,29,0,0,1,1343.15,308.91Z"/><ellipse class="cls-6" cx="1031.9" cy="793.37" rx="15.77" ry="15.74"/></svg>